G04 MADE WITH FRITZING*
G04 WWW.FRITZING.ORG*
G04 DOUBLE SIDED*
G04 HOLES PLATED*
G04 CONTOUR ON CENTER OF CONTOUR VECTOR*
%ASAXBY*%
%FSLAX23Y23*%
%MOIN*%
%OFA0B0*%
%SFA1.0B1.0*%
%ADD10C,0.075000*%
%ADD11C,0.039370*%
%ADD12C,0.070000*%
%ADD13C,0.057000*%
%ADD14C,0.078000*%
%ADD15R,0.040236X0.067069*%
%ADD16R,0.040222X0.067069*%
%ADD17R,0.040236X0.067083*%
%ADD18R,0.040222X0.067056*%
%ADD19R,0.050000X0.022000*%
%ADD20R,0.022000X0.050000*%
%ADD21R,0.047244X0.021654*%
%ADD22R,0.013780X0.055118*%
%ADD23R,0.070866X0.074803*%
%ADD24R,0.059055X0.055118*%
%ADD25R,0.055118X0.059055*%
%ADD26C,0.024000*%
%ADD27C,0.012000*%
%ADD28C,0.016000*%
%ADD29C,0.020000*%
%LNCOPPER1*%
G90*
G70*
G54D10*
X330Y2927D03*
X906Y2990D03*
X218Y895D03*
X167Y313D03*
G54D11*
X694Y1942D03*
X394Y1942D03*
X580Y2491D03*
X887Y2250D03*
X729Y2253D03*
X564Y1040D03*
X751Y1242D03*
X693Y731D03*
X171Y1227D03*
X729Y2342D03*
X333Y2504D03*
X559Y2879D03*
X248Y2879D03*
X303Y2685D03*
X270Y1305D03*
X911Y1178D03*
X851Y1180D03*
X805Y1381D03*
X351Y338D03*
X124Y1382D03*
X80Y1307D03*
X471Y2531D03*
X266Y1640D03*
X493Y1591D03*
X342Y1589D03*
X804Y1313D03*
X800Y595D03*
X437Y1082D03*
X624Y1082D03*
G54D10*
X392Y1743D03*
X392Y2043D03*
X492Y1743D03*
X492Y2043D03*
X592Y1743D03*
X592Y2043D03*
X692Y1743D03*
X692Y2043D03*
G54D12*
X587Y2710D03*
X587Y2810D03*
X674Y2707D03*
X674Y2807D03*
G54D13*
X468Y2724D03*
X468Y2645D03*
X468Y2724D03*
X468Y2645D03*
X468Y2724D03*
X468Y2645D03*
G54D12*
X261Y1021D03*
X361Y1021D03*
G54D14*
X753Y196D03*
X653Y196D03*
X553Y196D03*
X453Y196D03*
X353Y196D03*
X253Y196D03*
G54D15*
X447Y863D03*
G54D16*
X577Y863D03*
G54D17*
X447Y670D03*
G54D18*
X577Y670D03*
G54D15*
X449Y2423D03*
G54D16*
X579Y2423D03*
G54D17*
X449Y2230D03*
G54D18*
X579Y2230D03*
G54D19*
X670Y1274D03*
X670Y1306D03*
X670Y1337D03*
X670Y1368D03*
G54D20*
X548Y1490D03*
X517Y1490D03*
X485Y1490D03*
X454Y1490D03*
G54D21*
X351Y2649D03*
X351Y2686D03*
X351Y2723D03*
X249Y2723D03*
X249Y2649D03*
G54D22*
X559Y2961D03*
X456Y2961D03*
X533Y2961D03*
X508Y2961D03*
X482Y2961D03*
G54D23*
X665Y3066D03*
X350Y3066D03*
G54D24*
X718Y2981D03*
X718Y2900D03*
G54D25*
X332Y2583D03*
X251Y2583D03*
G54D24*
X809Y2899D03*
X809Y2980D03*
G54D26*
X393Y2014D02*
X394Y1961D01*
D02*
X413Y1942D02*
X675Y1942D01*
D02*
X694Y1961D02*
X693Y2014D01*
D02*
X249Y2643D02*
X250Y2607D01*
D02*
X742Y2980D02*
X785Y2980D01*
G54D27*
D02*
X579Y2423D02*
X580Y2423D01*
D02*
X580Y2423D02*
X580Y2478D01*
D02*
X837Y1743D02*
X715Y1743D01*
D02*
X837Y2491D02*
X837Y1743D01*
D02*
X593Y2491D02*
X837Y2491D01*
D02*
X580Y1546D02*
X768Y1546D01*
D02*
X768Y1546D02*
X768Y1600D01*
D02*
X768Y1600D02*
X887Y1600D01*
D02*
X580Y1510D02*
X580Y1546D01*
D02*
X887Y1600D02*
X887Y2236D01*
D02*
X171Y2423D02*
X171Y1240D01*
D02*
X434Y2423D02*
X171Y2423D01*
D02*
X693Y633D02*
X693Y718D01*
D02*
X577Y633D02*
X693Y633D01*
D02*
X577Y642D02*
X577Y633D01*
D02*
X515Y991D02*
X515Y1040D01*
D02*
X447Y991D02*
X515Y991D01*
D02*
X447Y891D02*
X447Y991D01*
D02*
X515Y1040D02*
X551Y1040D01*
D02*
X689Y1242D02*
X737Y1242D01*
D02*
X332Y2559D02*
X333Y2518D01*
D02*
X657Y2230D02*
X657Y2342D01*
D02*
X657Y2342D02*
X715Y2342D01*
D02*
X593Y2230D02*
X657Y2230D01*
D02*
X449Y2171D02*
X729Y2171D01*
D02*
X729Y2171D02*
X729Y2240D01*
D02*
X449Y2202D02*
X449Y2171D01*
D02*
X248Y2729D02*
X248Y2865D01*
D02*
X303Y2641D02*
X303Y2672D01*
D02*
X303Y2583D02*
X303Y2641D01*
D02*
X310Y2583D02*
X303Y2583D01*
D02*
X333Y2686D02*
X317Y2685D01*
D02*
X468Y2881D02*
X468Y2839D01*
D02*
X456Y2881D02*
X468Y2881D01*
D02*
X456Y2939D02*
X456Y2881D01*
D02*
X468Y2839D02*
X468Y2743D01*
D02*
X303Y2839D02*
X303Y2698D01*
D02*
X468Y2839D02*
X303Y2839D01*
D02*
X559Y2961D02*
X559Y2961D01*
D02*
X559Y2961D02*
X559Y2893D01*
D02*
X674Y2828D02*
X674Y2879D01*
D02*
X674Y2880D02*
X572Y2880D01*
D02*
X418Y2645D02*
X449Y2645D01*
D02*
X369Y2723D02*
X418Y2723D01*
D02*
X418Y2723D02*
X418Y2645D01*
D02*
X592Y2140D02*
X592Y2066D01*
D02*
X224Y2140D02*
X592Y2140D01*
D02*
X385Y1152D02*
X224Y1152D01*
D02*
X224Y1152D02*
X224Y2140D01*
D02*
X911Y1490D02*
X911Y1191D01*
D02*
X616Y1490D02*
X911Y1490D01*
D02*
X312Y1305D02*
X284Y1305D01*
D02*
X805Y1400D02*
X805Y1394D01*
D02*
X689Y1400D02*
X805Y1400D01*
D02*
X851Y1431D02*
X851Y1193D01*
D02*
X689Y1431D02*
X851Y1431D01*
D02*
X351Y324D02*
X353Y221D01*
D02*
X553Y100D02*
X80Y100D01*
D02*
X80Y100D02*
X80Y1293D01*
D02*
X553Y171D02*
X553Y100D01*
D02*
X453Y387D02*
X124Y387D01*
D02*
X453Y221D02*
X453Y387D01*
D02*
X124Y387D02*
X124Y1369D01*
D02*
X485Y1540D02*
X485Y1510D01*
D02*
X544Y1540D02*
X485Y1540D01*
D02*
X544Y1598D02*
X544Y1540D01*
D02*
X692Y1720D02*
X692Y1598D01*
D02*
X692Y1598D02*
X544Y1598D01*
D02*
X312Y1431D02*
X266Y1431D01*
D02*
X266Y1431D02*
X266Y1626D01*
D02*
X392Y1653D02*
X392Y1720D01*
D02*
X422Y1510D02*
X422Y1653D01*
D02*
X422Y1653D02*
X392Y1653D01*
D02*
X804Y1337D02*
X804Y1327D01*
D02*
X689Y1337D02*
X804Y1337D01*
D02*
X385Y1490D02*
X342Y1490D01*
D02*
X342Y1490D02*
X342Y1575D01*
D02*
X492Y1720D02*
X493Y1604D01*
D02*
X485Y1021D02*
X485Y1133D01*
D02*
X447Y642D02*
X447Y637D01*
D02*
X447Y595D02*
X786Y595D01*
D02*
X447Y637D02*
X447Y595D01*
D02*
X753Y344D02*
X531Y344D01*
D02*
X531Y344D02*
X531Y447D01*
D02*
X531Y447D02*
X359Y447D01*
D02*
X753Y221D02*
X753Y344D01*
D02*
X359Y447D02*
X361Y1001D01*
D02*
X382Y1021D02*
X485Y1021D01*
D02*
X259Y1082D02*
X260Y1042D01*
D02*
X424Y1082D02*
X259Y1082D01*
D02*
X454Y1082D02*
X451Y1082D01*
D02*
X454Y1133D02*
X454Y1082D01*
D02*
X922Y863D02*
X592Y863D01*
D02*
X653Y105D02*
X922Y105D01*
D02*
X653Y171D02*
X653Y105D01*
D02*
X922Y105D02*
X922Y863D01*
D02*
X577Y993D02*
X622Y993D01*
D02*
X622Y993D02*
X624Y1069D01*
D02*
X577Y891D02*
X577Y993D01*
D02*
X580Y1303D02*
X580Y1471D01*
D02*
X548Y1172D02*
X548Y1303D01*
D02*
X548Y1303D02*
X580Y1303D01*
D02*
X383Y2579D02*
X600Y2579D01*
D02*
X600Y2579D02*
X809Y2579D01*
D02*
X383Y2646D02*
X383Y2579D01*
D02*
X369Y2647D02*
X383Y2646D01*
D02*
X809Y2579D02*
X809Y2877D01*
D02*
X515Y2644D02*
X487Y2645D01*
D02*
X515Y2809D02*
X515Y2644D01*
D02*
X567Y2810D02*
X515Y2809D01*
G54D28*
D02*
X718Y2807D02*
X718Y2878D01*
D02*
X695Y2807D02*
X718Y2807D01*
G36*
X186Y3070D02*
X186Y3050D01*
X192Y3050D01*
X192Y3048D01*
X196Y3048D01*
X196Y3046D01*
X202Y3046D01*
X202Y3044D01*
X204Y3044D01*
X204Y3042D01*
X206Y3042D01*
X206Y3018D01*
X304Y3018D01*
X304Y3070D01*
X186Y3070D01*
G37*
D02*
G36*
X396Y3070D02*
X396Y3018D01*
X620Y3018D01*
X620Y3070D01*
X396Y3070D01*
G37*
D02*
G36*
X206Y3018D02*
X206Y3016D01*
X678Y3016D01*
X678Y3018D01*
X206Y3018D01*
G37*
D02*
G36*
X206Y3018D02*
X206Y3016D01*
X678Y3016D01*
X678Y3018D01*
X206Y3018D01*
G37*
D02*
G36*
X206Y3016D02*
X206Y2998D01*
X576Y2998D01*
X576Y2924D01*
X574Y2924D01*
X574Y2904D01*
X576Y2904D01*
X576Y2902D01*
X580Y2902D01*
X580Y2898D01*
X582Y2898D01*
X582Y2896D01*
X678Y2896D01*
X678Y3016D01*
X206Y3016D01*
G37*
D02*
G36*
X206Y2998D02*
X206Y2970D01*
X202Y2970D01*
X202Y2968D01*
X200Y2968D01*
X200Y2966D01*
X198Y2966D01*
X198Y2964D01*
X196Y2964D01*
X196Y2962D01*
X192Y2962D01*
X192Y2960D01*
X190Y2960D01*
X190Y2958D01*
X188Y2958D01*
X188Y2956D01*
X184Y2956D01*
X184Y2954D01*
X182Y2954D01*
X182Y2952D01*
X180Y2952D01*
X180Y2950D01*
X176Y2950D01*
X176Y2948D01*
X174Y2948D01*
X174Y2946D01*
X172Y2946D01*
X172Y2944D01*
X168Y2944D01*
X168Y2928D01*
X212Y2928D01*
X212Y2908D01*
X254Y2908D01*
X254Y2906D01*
X260Y2906D01*
X260Y2904D01*
X264Y2904D01*
X264Y2902D01*
X266Y2902D01*
X266Y2900D01*
X270Y2900D01*
X270Y2896D01*
X272Y2896D01*
X272Y2894D01*
X274Y2894D01*
X274Y2890D01*
X276Y2890D01*
X276Y2882D01*
X278Y2882D01*
X278Y2874D01*
X276Y2874D01*
X276Y2866D01*
X274Y2866D01*
X274Y2862D01*
X272Y2862D01*
X272Y2860D01*
X270Y2860D01*
X270Y2858D01*
X268Y2858D01*
X268Y2856D01*
X266Y2856D01*
X266Y2854D01*
X264Y2854D01*
X264Y2762D01*
X476Y2762D01*
X476Y2760D01*
X500Y2760D01*
X500Y2816D01*
X502Y2816D01*
X502Y2820D01*
X504Y2820D01*
X504Y2822D01*
X508Y2822D01*
X508Y2824D01*
X532Y2824D01*
X532Y2826D01*
X546Y2826D01*
X546Y2830D01*
X548Y2830D01*
X548Y2852D01*
X546Y2852D01*
X546Y2854D01*
X542Y2854D01*
X542Y2856D01*
X540Y2856D01*
X540Y2858D01*
X538Y2858D01*
X538Y2860D01*
X536Y2860D01*
X536Y2862D01*
X534Y2862D01*
X534Y2866D01*
X532Y2866D01*
X532Y2870D01*
X530Y2870D01*
X530Y2888D01*
X532Y2888D01*
X532Y2894D01*
X534Y2894D01*
X534Y2896D01*
X536Y2896D01*
X536Y2900D01*
X538Y2900D01*
X538Y2902D01*
X542Y2902D01*
X542Y2924D01*
X440Y2924D01*
X440Y2998D01*
X206Y2998D01*
G37*
D02*
G36*
X212Y2908D02*
X212Y2902D01*
X232Y2902D01*
X232Y2904D01*
X236Y2904D01*
X236Y2906D01*
X240Y2906D01*
X240Y2908D01*
X212Y2908D01*
G37*
D02*
G36*
X264Y2762D02*
X264Y2744D01*
X384Y2744D01*
X384Y2740D01*
X434Y2740D01*
X434Y2744D01*
X436Y2744D01*
X436Y2746D01*
X438Y2746D01*
X438Y2748D01*
X440Y2748D01*
X440Y2752D01*
X444Y2752D01*
X444Y2754D01*
X446Y2754D01*
X446Y2756D01*
X448Y2756D01*
X448Y2758D01*
X452Y2758D01*
X452Y2760D01*
X458Y2760D01*
X458Y2762D01*
X264Y2762D01*
G37*
D02*
G36*
X282Y2744D02*
X282Y2714D01*
X318Y2714D01*
X318Y2744D01*
X282Y2744D01*
G37*
D02*
G36*
X736Y2862D02*
X736Y2800D01*
X734Y2800D01*
X734Y2796D01*
X732Y2796D01*
X732Y2794D01*
X730Y2794D01*
X730Y2792D01*
X726Y2792D01*
X726Y2790D01*
X716Y2790D01*
X716Y2788D01*
X714Y2788D01*
X714Y2784D01*
X712Y2784D01*
X712Y2782D01*
X710Y2782D01*
X710Y2780D01*
X708Y2780D01*
X708Y2776D01*
X706Y2776D01*
X706Y2774D01*
X704Y2774D01*
X704Y2772D01*
X700Y2772D01*
X700Y2770D01*
X698Y2770D01*
X698Y2768D01*
X694Y2768D01*
X694Y2746D01*
X698Y2746D01*
X698Y2744D01*
X700Y2744D01*
X700Y2742D01*
X704Y2742D01*
X704Y2740D01*
X706Y2740D01*
X706Y2738D01*
X708Y2738D01*
X708Y2736D01*
X710Y2736D01*
X710Y2732D01*
X712Y2732D01*
X712Y2730D01*
X714Y2730D01*
X714Y2726D01*
X716Y2726D01*
X716Y2720D01*
X718Y2720D01*
X718Y2710D01*
X720Y2710D01*
X720Y2704D01*
X718Y2704D01*
X718Y2694D01*
X716Y2694D01*
X716Y2688D01*
X714Y2688D01*
X714Y2684D01*
X712Y2684D01*
X712Y2682D01*
X710Y2682D01*
X710Y2678D01*
X708Y2678D01*
X708Y2676D01*
X706Y2676D01*
X706Y2674D01*
X704Y2674D01*
X704Y2672D01*
X700Y2672D01*
X700Y2670D01*
X698Y2670D01*
X698Y2668D01*
X694Y2668D01*
X694Y2666D01*
X690Y2666D01*
X690Y2664D01*
X684Y2664D01*
X684Y2662D01*
X794Y2662D01*
X794Y2862D01*
X736Y2862D01*
G37*
D02*
G36*
X532Y2682D02*
X532Y2664D01*
X580Y2664D01*
X580Y2666D01*
X572Y2666D01*
X572Y2668D01*
X568Y2668D01*
X568Y2670D01*
X564Y2670D01*
X564Y2672D01*
X560Y2672D01*
X560Y2674D01*
X558Y2674D01*
X558Y2676D01*
X556Y2676D01*
X556Y2678D01*
X554Y2678D01*
X554Y2680D01*
X552Y2680D01*
X552Y2682D01*
X532Y2682D01*
G37*
D02*
G36*
X620Y2680D02*
X620Y2678D01*
X618Y2678D01*
X618Y2676D01*
X616Y2676D01*
X616Y2674D01*
X614Y2674D01*
X614Y2672D01*
X610Y2672D01*
X610Y2670D01*
X606Y2670D01*
X606Y2668D01*
X602Y2668D01*
X602Y2666D01*
X594Y2666D01*
X594Y2664D01*
X658Y2664D01*
X658Y2666D01*
X654Y2666D01*
X654Y2668D01*
X650Y2668D01*
X650Y2670D01*
X648Y2670D01*
X648Y2672D01*
X646Y2672D01*
X646Y2674D01*
X642Y2674D01*
X642Y2676D01*
X640Y2676D01*
X640Y2680D01*
X620Y2680D01*
G37*
D02*
G36*
X532Y2664D02*
X532Y2662D01*
X666Y2662D01*
X666Y2664D01*
X532Y2664D01*
G37*
D02*
G36*
X532Y2664D02*
X532Y2662D01*
X666Y2662D01*
X666Y2664D01*
X532Y2664D01*
G37*
D02*
G36*
X532Y2662D02*
X532Y2660D01*
X794Y2660D01*
X794Y2662D01*
X532Y2662D01*
G37*
D02*
G36*
X532Y2662D02*
X532Y2660D01*
X794Y2660D01*
X794Y2662D01*
X532Y2662D01*
G37*
D02*
G36*
X532Y2660D02*
X532Y2642D01*
X530Y2642D01*
X530Y2636D01*
X528Y2636D01*
X528Y2632D01*
X526Y2632D01*
X526Y2630D01*
X522Y2630D01*
X522Y2628D01*
X502Y2628D01*
X502Y2626D01*
X500Y2626D01*
X500Y2622D01*
X498Y2622D01*
X498Y2620D01*
X496Y2620D01*
X496Y2618D01*
X494Y2618D01*
X494Y2616D01*
X492Y2616D01*
X492Y2614D01*
X490Y2614D01*
X490Y2594D01*
X794Y2594D01*
X794Y2660D01*
X532Y2660D01*
G37*
D02*
G36*
X432Y2018D02*
X432Y2016D01*
X430Y2016D01*
X430Y2012D01*
X428Y2012D01*
X428Y2010D01*
X426Y2010D01*
X426Y2008D01*
X424Y2008D01*
X424Y2006D01*
X422Y2006D01*
X422Y2004D01*
X418Y2004D01*
X418Y2002D01*
X416Y2002D01*
X416Y1996D01*
X480Y1996D01*
X480Y1998D01*
X474Y1998D01*
X474Y2000D01*
X470Y2000D01*
X470Y2002D01*
X466Y2002D01*
X466Y2004D01*
X464Y2004D01*
X464Y2006D01*
X462Y2006D01*
X462Y2008D01*
X458Y2008D01*
X458Y2012D01*
X456Y2012D01*
X456Y2014D01*
X454Y2014D01*
X454Y2016D01*
X452Y2016D01*
X452Y2018D01*
X432Y2018D01*
G37*
D02*
G36*
X532Y2018D02*
X532Y2016D01*
X530Y2016D01*
X530Y2012D01*
X528Y2012D01*
X528Y2010D01*
X526Y2010D01*
X526Y2008D01*
X524Y2008D01*
X524Y2006D01*
X522Y2006D01*
X522Y2004D01*
X518Y2004D01*
X518Y2002D01*
X514Y2002D01*
X514Y2000D01*
X512Y2000D01*
X512Y1998D01*
X506Y1998D01*
X506Y1996D01*
X580Y1996D01*
X580Y1998D01*
X574Y1998D01*
X574Y2000D01*
X570Y2000D01*
X570Y2002D01*
X566Y2002D01*
X566Y2004D01*
X564Y2004D01*
X564Y2006D01*
X562Y2006D01*
X562Y2008D01*
X558Y2008D01*
X558Y2012D01*
X556Y2012D01*
X556Y2014D01*
X554Y2014D01*
X554Y2016D01*
X552Y2016D01*
X552Y2018D01*
X532Y2018D01*
G37*
D02*
G36*
X632Y2018D02*
X632Y2016D01*
X630Y2016D01*
X630Y2012D01*
X628Y2012D01*
X628Y2010D01*
X626Y2010D01*
X626Y2008D01*
X624Y2008D01*
X624Y2006D01*
X622Y2006D01*
X622Y2004D01*
X618Y2004D01*
X618Y2002D01*
X614Y2002D01*
X614Y2000D01*
X612Y2000D01*
X612Y1998D01*
X606Y1998D01*
X606Y1996D01*
X672Y1996D01*
X672Y2000D01*
X670Y2000D01*
X670Y2002D01*
X666Y2002D01*
X666Y2004D01*
X664Y2004D01*
X664Y2006D01*
X662Y2006D01*
X662Y2008D01*
X658Y2008D01*
X658Y2012D01*
X656Y2012D01*
X656Y2014D01*
X654Y2014D01*
X654Y2016D01*
X652Y2016D01*
X652Y2018D01*
X632Y2018D01*
G37*
D02*
G36*
X416Y1996D02*
X416Y1994D01*
X672Y1994D01*
X672Y1996D01*
X416Y1996D01*
G37*
D02*
G36*
X416Y1996D02*
X416Y1994D01*
X672Y1994D01*
X672Y1996D01*
X416Y1996D01*
G37*
D02*
G36*
X416Y1996D02*
X416Y1994D01*
X672Y1994D01*
X672Y1996D01*
X416Y1996D01*
G37*
D02*
G36*
X416Y1994D02*
X416Y1964D01*
X672Y1964D01*
X672Y1994D01*
X416Y1994D01*
G37*
D02*
G36*
X240Y1418D02*
X240Y1332D01*
X260Y1332D01*
X260Y1334D01*
X296Y1334D01*
X296Y1416D01*
X260Y1416D01*
X260Y1418D01*
X240Y1418D01*
G37*
D02*
G36*
X704Y1384D02*
X704Y1352D01*
X776Y1352D01*
X776Y1384D01*
X704Y1384D01*
G37*
D02*
G36*
X710Y3070D02*
X710Y3018D01*
X758Y3018D01*
X758Y3016D01*
X848Y3016D01*
X848Y2862D01*
X826Y2862D01*
X826Y2578D01*
X824Y2578D01*
X824Y2570D01*
X822Y2570D01*
X822Y2568D01*
X820Y2568D01*
X820Y2566D01*
X818Y2566D01*
X818Y2564D01*
X812Y2564D01*
X812Y2562D01*
X498Y2562D01*
X498Y2540D01*
X500Y2540D01*
X500Y2522D01*
X498Y2522D01*
X498Y2520D01*
X588Y2520D01*
X588Y2518D01*
X594Y2518D01*
X594Y2516D01*
X596Y2516D01*
X596Y2514D01*
X600Y2514D01*
X600Y2512D01*
X602Y2512D01*
X602Y2508D01*
X604Y2508D01*
X604Y2506D01*
X606Y2506D01*
X606Y2502D01*
X608Y2502D01*
X608Y2494D01*
X610Y2494D01*
X610Y2488D01*
X608Y2488D01*
X608Y2378D01*
X982Y2378D01*
X982Y3070D01*
X710Y3070D01*
G37*
D02*
G36*
X90Y2882D02*
X90Y2880D01*
X76Y2880D01*
X76Y2878D01*
X40Y2878D01*
X40Y2474D01*
X328Y2474D01*
X328Y2476D01*
X320Y2476D01*
X320Y2478D01*
X318Y2478D01*
X318Y2480D01*
X314Y2480D01*
X314Y2482D01*
X312Y2482D01*
X312Y2484D01*
X310Y2484D01*
X310Y2486D01*
X308Y2486D01*
X308Y2490D01*
X306Y2490D01*
X306Y2494D01*
X304Y2494D01*
X304Y2514D01*
X306Y2514D01*
X306Y2518D01*
X308Y2518D01*
X308Y2522D01*
X310Y2522D01*
X310Y2524D01*
X312Y2524D01*
X312Y2544D01*
X214Y2544D01*
X214Y2668D01*
X216Y2668D01*
X216Y2670D01*
X274Y2670D01*
X274Y2702D01*
X216Y2702D01*
X216Y2704D01*
X214Y2704D01*
X214Y2744D01*
X232Y2744D01*
X232Y2854D01*
X230Y2854D01*
X230Y2856D01*
X228Y2856D01*
X228Y2858D01*
X226Y2858D01*
X226Y2860D01*
X224Y2860D01*
X224Y2862D01*
X222Y2862D01*
X222Y2866D01*
X220Y2866D01*
X220Y2872D01*
X218Y2872D01*
X218Y2882D01*
X90Y2882D01*
G37*
D02*
G36*
X370Y2562D02*
X370Y2544D01*
X354Y2544D01*
X354Y2524D01*
X356Y2524D01*
X356Y2522D01*
X358Y2522D01*
X358Y2518D01*
X360Y2518D01*
X360Y2514D01*
X362Y2514D01*
X362Y2502D01*
X460Y2502D01*
X460Y2504D01*
X456Y2504D01*
X456Y2506D01*
X454Y2506D01*
X454Y2508D01*
X450Y2508D01*
X450Y2510D01*
X448Y2510D01*
X448Y2514D01*
X446Y2514D01*
X446Y2516D01*
X444Y2516D01*
X444Y2520D01*
X442Y2520D01*
X442Y2540D01*
X444Y2540D01*
X444Y2562D01*
X370Y2562D01*
G37*
D02*
G36*
X498Y2520D02*
X498Y2518D01*
X496Y2518D01*
X496Y2514D01*
X494Y2514D01*
X494Y2512D01*
X492Y2512D01*
X492Y2510D01*
X490Y2510D01*
X490Y2508D01*
X488Y2508D01*
X488Y2506D01*
X486Y2506D01*
X486Y2504D01*
X482Y2504D01*
X482Y2502D01*
X552Y2502D01*
X552Y2504D01*
X554Y2504D01*
X554Y2506D01*
X556Y2506D01*
X556Y2510D01*
X558Y2510D01*
X558Y2512D01*
X560Y2512D01*
X560Y2514D01*
X562Y2514D01*
X562Y2516D01*
X566Y2516D01*
X566Y2518D01*
X572Y2518D01*
X572Y2520D01*
X498Y2520D01*
G37*
D02*
G36*
X362Y2502D02*
X362Y2500D01*
X552Y2500D01*
X552Y2502D01*
X362Y2502D01*
G37*
D02*
G36*
X362Y2502D02*
X362Y2500D01*
X552Y2500D01*
X552Y2502D01*
X362Y2502D01*
G37*
D02*
G36*
X362Y2500D02*
X362Y2494D01*
X360Y2494D01*
X360Y2490D01*
X358Y2490D01*
X358Y2486D01*
X356Y2486D01*
X356Y2484D01*
X354Y2484D01*
X354Y2482D01*
X352Y2482D01*
X352Y2480D01*
X348Y2480D01*
X348Y2478D01*
X346Y2478D01*
X346Y2476D01*
X338Y2476D01*
X338Y2474D01*
X550Y2474D01*
X550Y2498D01*
X552Y2498D01*
X552Y2500D01*
X362Y2500D01*
G37*
D02*
G36*
X40Y2474D02*
X40Y2472D01*
X550Y2472D01*
X550Y2474D01*
X40Y2474D01*
G37*
D02*
G36*
X40Y2474D02*
X40Y2472D01*
X550Y2472D01*
X550Y2474D01*
X40Y2474D01*
G37*
D02*
G36*
X40Y2472D02*
X40Y2466D01*
X478Y2466D01*
X478Y2378D01*
X548Y2378D01*
X548Y2466D01*
X550Y2466D01*
X550Y2472D01*
X40Y2472D01*
G37*
D02*
G36*
X40Y2466D02*
X40Y1412D01*
X128Y1412D01*
X128Y1410D01*
X154Y1410D01*
X154Y2424D01*
X156Y2424D01*
X156Y2430D01*
X158Y2430D01*
X158Y2432D01*
X160Y2432D01*
X160Y2434D01*
X162Y2434D01*
X162Y2436D01*
X164Y2436D01*
X164Y2438D01*
X418Y2438D01*
X418Y2466D01*
X40Y2466D01*
G37*
D02*
G36*
X186Y2406D02*
X186Y2378D01*
X420Y2378D01*
X420Y2380D01*
X418Y2380D01*
X418Y2406D01*
X186Y2406D01*
G37*
D02*
G36*
X186Y2378D02*
X186Y2376D01*
X982Y2376D01*
X982Y2378D01*
X186Y2378D01*
G37*
D02*
G36*
X186Y2378D02*
X186Y2376D01*
X982Y2376D01*
X982Y2378D01*
X186Y2378D01*
G37*
D02*
G36*
X186Y2378D02*
X186Y2376D01*
X982Y2376D01*
X982Y2378D01*
X186Y2378D01*
G37*
D02*
G36*
X186Y2376D02*
X186Y2372D01*
X734Y2372D01*
X734Y2370D01*
X740Y2370D01*
X740Y2368D01*
X744Y2368D01*
X744Y2366D01*
X746Y2366D01*
X746Y2364D01*
X750Y2364D01*
X750Y2362D01*
X752Y2362D01*
X752Y2358D01*
X754Y2358D01*
X754Y2356D01*
X756Y2356D01*
X756Y2350D01*
X758Y2350D01*
X758Y2334D01*
X756Y2334D01*
X756Y2328D01*
X754Y2328D01*
X754Y2326D01*
X752Y2326D01*
X752Y2322D01*
X750Y2322D01*
X750Y2320D01*
X748Y2320D01*
X748Y2318D01*
X744Y2318D01*
X744Y2316D01*
X742Y2316D01*
X742Y2314D01*
X736Y2314D01*
X736Y2312D01*
X982Y2312D01*
X982Y2376D01*
X186Y2376D01*
G37*
D02*
G36*
X186Y2372D02*
X186Y2272D01*
X608Y2272D01*
X608Y2246D01*
X642Y2246D01*
X642Y2348D01*
X644Y2348D01*
X644Y2352D01*
X646Y2352D01*
X646Y2354D01*
X648Y2354D01*
X648Y2356D01*
X652Y2356D01*
X652Y2358D01*
X704Y2358D01*
X704Y2360D01*
X706Y2360D01*
X706Y2362D01*
X708Y2362D01*
X708Y2364D01*
X710Y2364D01*
X710Y2366D01*
X714Y2366D01*
X714Y2368D01*
X716Y2368D01*
X716Y2370D01*
X724Y2370D01*
X724Y2372D01*
X186Y2372D01*
G37*
D02*
G36*
X674Y2326D02*
X674Y2312D01*
X722Y2312D01*
X722Y2314D01*
X716Y2314D01*
X716Y2316D01*
X712Y2316D01*
X712Y2318D01*
X710Y2318D01*
X710Y2320D01*
X708Y2320D01*
X708Y2322D01*
X706Y2322D01*
X706Y2324D01*
X704Y2324D01*
X704Y2326D01*
X674Y2326D01*
G37*
D02*
G36*
X674Y2312D02*
X674Y2310D01*
X982Y2310D01*
X982Y2312D01*
X674Y2312D01*
G37*
D02*
G36*
X674Y2312D02*
X674Y2310D01*
X982Y2310D01*
X982Y2312D01*
X674Y2312D01*
G37*
D02*
G36*
X674Y2310D02*
X674Y2282D01*
X738Y2282D01*
X738Y2280D01*
X890Y2280D01*
X890Y2278D01*
X898Y2278D01*
X898Y2276D01*
X902Y2276D01*
X902Y2274D01*
X904Y2274D01*
X904Y2272D01*
X908Y2272D01*
X908Y2270D01*
X910Y2270D01*
X910Y2266D01*
X912Y2266D01*
X912Y2264D01*
X914Y2264D01*
X914Y2258D01*
X916Y2258D01*
X916Y2242D01*
X914Y2242D01*
X914Y2236D01*
X912Y2236D01*
X912Y2232D01*
X910Y2232D01*
X910Y2230D01*
X908Y2230D01*
X908Y2228D01*
X906Y2228D01*
X906Y2226D01*
X904Y2226D01*
X904Y2224D01*
X902Y2224D01*
X902Y1592D01*
X900Y1592D01*
X900Y1590D01*
X898Y1590D01*
X898Y1588D01*
X896Y1588D01*
X896Y1586D01*
X894Y1586D01*
X894Y1584D01*
X784Y1584D01*
X784Y1540D01*
X782Y1540D01*
X782Y1536D01*
X780Y1536D01*
X780Y1534D01*
X778Y1534D01*
X778Y1532D01*
X774Y1532D01*
X774Y1530D01*
X632Y1530D01*
X632Y1506D01*
X916Y1506D01*
X916Y1504D01*
X920Y1504D01*
X920Y1502D01*
X922Y1502D01*
X922Y1500D01*
X924Y1500D01*
X924Y1498D01*
X926Y1498D01*
X926Y1202D01*
X928Y1202D01*
X928Y1200D01*
X932Y1200D01*
X932Y1196D01*
X934Y1196D01*
X934Y1194D01*
X936Y1194D01*
X936Y1192D01*
X938Y1192D01*
X938Y1186D01*
X940Y1186D01*
X940Y1168D01*
X938Y1168D01*
X938Y1164D01*
X936Y1164D01*
X936Y1160D01*
X934Y1160D01*
X934Y1158D01*
X932Y1158D01*
X932Y1156D01*
X930Y1156D01*
X930Y1154D01*
X928Y1154D01*
X928Y1152D01*
X924Y1152D01*
X924Y1150D01*
X918Y1150D01*
X918Y1148D01*
X982Y1148D01*
X982Y2310D01*
X674Y2310D01*
G37*
D02*
G36*
X674Y2282D02*
X674Y2226D01*
X672Y2226D01*
X672Y2220D01*
X670Y2220D01*
X670Y2218D01*
X668Y2218D01*
X668Y2216D01*
X664Y2216D01*
X664Y2214D01*
X608Y2214D01*
X608Y2186D01*
X712Y2186D01*
X712Y2230D01*
X708Y2230D01*
X708Y2232D01*
X706Y2232D01*
X706Y2236D01*
X704Y2236D01*
X704Y2238D01*
X702Y2238D01*
X702Y2242D01*
X700Y2242D01*
X700Y2252D01*
X698Y2252D01*
X698Y2254D01*
X700Y2254D01*
X700Y2264D01*
X702Y2264D01*
X702Y2268D01*
X704Y2268D01*
X704Y2270D01*
X706Y2270D01*
X706Y2274D01*
X708Y2274D01*
X708Y2276D01*
X712Y2276D01*
X712Y2278D01*
X714Y2278D01*
X714Y2280D01*
X720Y2280D01*
X720Y2282D01*
X674Y2282D01*
G37*
D02*
G36*
X742Y2280D02*
X742Y2278D01*
X746Y2278D01*
X746Y2276D01*
X748Y2276D01*
X748Y2274D01*
X750Y2274D01*
X750Y2272D01*
X752Y2272D01*
X752Y2270D01*
X754Y2270D01*
X754Y2266D01*
X756Y2266D01*
X756Y2260D01*
X758Y2260D01*
X758Y2244D01*
X756Y2244D01*
X756Y2240D01*
X754Y2240D01*
X754Y2236D01*
X752Y2236D01*
X752Y2234D01*
X750Y2234D01*
X750Y2232D01*
X748Y2232D01*
X748Y2230D01*
X746Y2230D01*
X746Y2228D01*
X744Y2228D01*
X744Y2164D01*
X742Y2164D01*
X742Y2160D01*
X740Y2160D01*
X740Y2158D01*
X736Y2158D01*
X736Y2156D01*
X732Y2156D01*
X732Y2154D01*
X608Y2154D01*
X608Y2090D01*
X702Y2090D01*
X702Y2088D01*
X708Y2088D01*
X708Y2086D01*
X714Y2086D01*
X714Y2084D01*
X716Y2084D01*
X716Y2082D01*
X720Y2082D01*
X720Y2080D01*
X722Y2080D01*
X722Y2078D01*
X724Y2078D01*
X724Y2076D01*
X726Y2076D01*
X726Y2074D01*
X728Y2074D01*
X728Y2072D01*
X730Y2072D01*
X730Y2070D01*
X732Y2070D01*
X732Y2066D01*
X734Y2066D01*
X734Y2062D01*
X736Y2062D01*
X736Y2058D01*
X738Y2058D01*
X738Y2050D01*
X740Y2050D01*
X740Y2034D01*
X738Y2034D01*
X738Y2028D01*
X736Y2028D01*
X736Y2022D01*
X734Y2022D01*
X734Y2018D01*
X732Y2018D01*
X732Y2016D01*
X730Y2016D01*
X730Y2012D01*
X728Y2012D01*
X728Y2010D01*
X726Y2010D01*
X726Y2008D01*
X724Y2008D01*
X724Y2006D01*
X722Y2006D01*
X722Y2004D01*
X718Y2004D01*
X718Y2002D01*
X716Y2002D01*
X716Y1960D01*
X718Y1960D01*
X718Y1958D01*
X720Y1958D01*
X720Y1954D01*
X722Y1954D01*
X722Y1948D01*
X724Y1948D01*
X724Y1934D01*
X722Y1934D01*
X722Y1928D01*
X720Y1928D01*
X720Y1926D01*
X718Y1926D01*
X718Y1922D01*
X716Y1922D01*
X716Y1920D01*
X714Y1920D01*
X714Y1918D01*
X710Y1918D01*
X710Y1916D01*
X708Y1916D01*
X708Y1914D01*
X702Y1914D01*
X702Y1912D01*
X870Y1912D01*
X870Y2226D01*
X868Y2226D01*
X868Y2228D01*
X866Y2228D01*
X866Y2230D01*
X864Y2230D01*
X864Y2232D01*
X862Y2232D01*
X862Y2236D01*
X860Y2236D01*
X860Y2240D01*
X858Y2240D01*
X858Y2260D01*
X860Y2260D01*
X860Y2264D01*
X862Y2264D01*
X862Y2268D01*
X864Y2268D01*
X864Y2270D01*
X866Y2270D01*
X866Y2272D01*
X868Y2272D01*
X868Y2274D01*
X872Y2274D01*
X872Y2276D01*
X876Y2276D01*
X876Y2278D01*
X884Y2278D01*
X884Y2280D01*
X742Y2280D01*
G37*
D02*
G36*
X186Y2272D02*
X186Y1252D01*
X188Y1252D01*
X188Y1250D01*
X208Y1250D01*
X208Y2144D01*
X210Y2144D01*
X210Y2148D01*
X212Y2148D01*
X212Y2152D01*
X216Y2152D01*
X216Y2154D01*
X220Y2154D01*
X220Y2156D01*
X432Y2156D01*
X432Y2186D01*
X418Y2186D01*
X418Y2272D01*
X186Y2272D01*
G37*
D02*
G36*
X478Y2272D02*
X478Y2186D01*
X548Y2186D01*
X548Y2272D01*
X478Y2272D01*
G37*
D02*
G36*
X240Y2124D02*
X240Y2090D01*
X502Y2090D01*
X502Y2088D01*
X508Y2088D01*
X508Y2086D01*
X514Y2086D01*
X514Y2084D01*
X516Y2084D01*
X516Y2082D01*
X520Y2082D01*
X520Y2080D01*
X522Y2080D01*
X522Y2078D01*
X524Y2078D01*
X524Y2076D01*
X526Y2076D01*
X526Y2074D01*
X528Y2074D01*
X528Y2072D01*
X530Y2072D01*
X530Y2070D01*
X532Y2070D01*
X532Y2066D01*
X552Y2066D01*
X552Y2068D01*
X554Y2068D01*
X554Y2072D01*
X556Y2072D01*
X556Y2074D01*
X558Y2074D01*
X558Y2076D01*
X560Y2076D01*
X560Y2078D01*
X562Y2078D01*
X562Y2080D01*
X564Y2080D01*
X564Y2082D01*
X568Y2082D01*
X568Y2084D01*
X572Y2084D01*
X572Y2086D01*
X576Y2086D01*
X576Y2124D01*
X240Y2124D01*
G37*
D02*
G36*
X240Y2090D02*
X240Y1912D01*
X386Y1912D01*
X386Y1914D01*
X380Y1914D01*
X380Y1916D01*
X378Y1916D01*
X378Y1918D01*
X374Y1918D01*
X374Y1920D01*
X372Y1920D01*
X372Y1922D01*
X370Y1922D01*
X370Y1926D01*
X368Y1926D01*
X368Y1930D01*
X366Y1930D01*
X366Y1936D01*
X364Y1936D01*
X364Y1946D01*
X366Y1946D01*
X366Y1954D01*
X368Y1954D01*
X368Y1956D01*
X370Y1956D01*
X370Y1960D01*
X372Y1960D01*
X372Y2000D01*
X370Y2000D01*
X370Y2002D01*
X366Y2002D01*
X366Y2004D01*
X364Y2004D01*
X364Y2006D01*
X362Y2006D01*
X362Y2008D01*
X358Y2008D01*
X358Y2012D01*
X356Y2012D01*
X356Y2014D01*
X354Y2014D01*
X354Y2016D01*
X352Y2016D01*
X352Y2020D01*
X350Y2020D01*
X350Y2024D01*
X348Y2024D01*
X348Y2030D01*
X346Y2030D01*
X346Y2040D01*
X344Y2040D01*
X344Y2046D01*
X346Y2046D01*
X346Y2056D01*
X348Y2056D01*
X348Y2062D01*
X350Y2062D01*
X350Y2066D01*
X352Y2066D01*
X352Y2068D01*
X354Y2068D01*
X354Y2072D01*
X356Y2072D01*
X356Y2074D01*
X358Y2074D01*
X358Y2076D01*
X360Y2076D01*
X360Y2078D01*
X362Y2078D01*
X362Y2080D01*
X364Y2080D01*
X364Y2082D01*
X368Y2082D01*
X368Y2084D01*
X372Y2084D01*
X372Y2086D01*
X376Y2086D01*
X376Y2088D01*
X384Y2088D01*
X384Y2090D01*
X240Y2090D01*
G37*
D02*
G36*
X402Y2090D02*
X402Y2088D01*
X408Y2088D01*
X408Y2086D01*
X414Y2086D01*
X414Y2084D01*
X416Y2084D01*
X416Y2082D01*
X420Y2082D01*
X420Y2080D01*
X422Y2080D01*
X422Y2078D01*
X424Y2078D01*
X424Y2076D01*
X426Y2076D01*
X426Y2074D01*
X428Y2074D01*
X428Y2072D01*
X430Y2072D01*
X430Y2070D01*
X432Y2070D01*
X432Y2066D01*
X452Y2066D01*
X452Y2068D01*
X454Y2068D01*
X454Y2072D01*
X456Y2072D01*
X456Y2074D01*
X458Y2074D01*
X458Y2076D01*
X460Y2076D01*
X460Y2078D01*
X462Y2078D01*
X462Y2080D01*
X464Y2080D01*
X464Y2082D01*
X468Y2082D01*
X468Y2084D01*
X472Y2084D01*
X472Y2086D01*
X476Y2086D01*
X476Y2088D01*
X484Y2088D01*
X484Y2090D01*
X402Y2090D01*
G37*
D02*
G36*
X608Y2090D02*
X608Y2086D01*
X614Y2086D01*
X614Y2084D01*
X616Y2084D01*
X616Y2082D01*
X620Y2082D01*
X620Y2080D01*
X622Y2080D01*
X622Y2078D01*
X624Y2078D01*
X624Y2076D01*
X626Y2076D01*
X626Y2074D01*
X628Y2074D01*
X628Y2072D01*
X630Y2072D01*
X630Y2070D01*
X632Y2070D01*
X632Y2066D01*
X652Y2066D01*
X652Y2068D01*
X654Y2068D01*
X654Y2072D01*
X656Y2072D01*
X656Y2074D01*
X658Y2074D01*
X658Y2076D01*
X660Y2076D01*
X660Y2078D01*
X662Y2078D01*
X662Y2080D01*
X664Y2080D01*
X664Y2082D01*
X668Y2082D01*
X668Y2084D01*
X672Y2084D01*
X672Y2086D01*
X676Y2086D01*
X676Y2088D01*
X684Y2088D01*
X684Y2090D01*
X608Y2090D01*
G37*
D02*
G36*
X414Y1920D02*
X414Y1918D01*
X410Y1918D01*
X410Y1916D01*
X408Y1916D01*
X408Y1914D01*
X402Y1914D01*
X402Y1912D01*
X686Y1912D01*
X686Y1914D01*
X680Y1914D01*
X680Y1916D01*
X678Y1916D01*
X678Y1918D01*
X674Y1918D01*
X674Y1920D01*
X414Y1920D01*
G37*
D02*
G36*
X240Y1912D02*
X240Y1910D01*
X870Y1910D01*
X870Y1912D01*
X240Y1912D01*
G37*
D02*
G36*
X240Y1912D02*
X240Y1910D01*
X870Y1910D01*
X870Y1912D01*
X240Y1912D01*
G37*
D02*
G36*
X240Y1912D02*
X240Y1910D01*
X870Y1910D01*
X870Y1912D01*
X240Y1912D01*
G37*
D02*
G36*
X240Y1910D02*
X240Y1790D01*
X702Y1790D01*
X702Y1788D01*
X708Y1788D01*
X708Y1786D01*
X714Y1786D01*
X714Y1784D01*
X716Y1784D01*
X716Y1782D01*
X720Y1782D01*
X720Y1780D01*
X722Y1780D01*
X722Y1778D01*
X724Y1778D01*
X724Y1776D01*
X726Y1776D01*
X726Y1774D01*
X728Y1774D01*
X728Y1772D01*
X730Y1772D01*
X730Y1770D01*
X732Y1770D01*
X732Y1766D01*
X734Y1766D01*
X734Y1762D01*
X736Y1762D01*
X736Y1758D01*
X738Y1758D01*
X738Y1750D01*
X740Y1750D01*
X740Y1734D01*
X738Y1734D01*
X738Y1728D01*
X736Y1728D01*
X736Y1722D01*
X734Y1722D01*
X734Y1718D01*
X732Y1718D01*
X732Y1716D01*
X730Y1716D01*
X730Y1712D01*
X728Y1712D01*
X728Y1710D01*
X726Y1710D01*
X726Y1708D01*
X724Y1708D01*
X724Y1706D01*
X722Y1706D01*
X722Y1704D01*
X718Y1704D01*
X718Y1702D01*
X714Y1702D01*
X714Y1700D01*
X712Y1700D01*
X712Y1698D01*
X706Y1698D01*
X706Y1696D01*
X870Y1696D01*
X870Y1910D01*
X240Y1910D01*
G37*
D02*
G36*
X240Y1790D02*
X240Y1670D01*
X270Y1670D01*
X270Y1668D01*
X278Y1668D01*
X278Y1666D01*
X282Y1666D01*
X282Y1664D01*
X284Y1664D01*
X284Y1662D01*
X286Y1662D01*
X286Y1660D01*
X288Y1660D01*
X288Y1658D01*
X290Y1658D01*
X290Y1656D01*
X292Y1656D01*
X292Y1652D01*
X294Y1652D01*
X294Y1646D01*
X296Y1646D01*
X296Y1632D01*
X294Y1632D01*
X294Y1626D01*
X292Y1626D01*
X292Y1624D01*
X290Y1624D01*
X290Y1620D01*
X288Y1620D01*
X288Y1618D01*
X350Y1618D01*
X350Y1616D01*
X356Y1616D01*
X356Y1614D01*
X358Y1614D01*
X358Y1612D01*
X362Y1612D01*
X362Y1610D01*
X364Y1610D01*
X364Y1606D01*
X366Y1606D01*
X366Y1604D01*
X368Y1604D01*
X368Y1600D01*
X370Y1600D01*
X370Y1594D01*
X372Y1594D01*
X372Y1584D01*
X370Y1584D01*
X370Y1576D01*
X368Y1576D01*
X368Y1572D01*
X366Y1572D01*
X366Y1570D01*
X364Y1570D01*
X364Y1568D01*
X362Y1568D01*
X362Y1566D01*
X360Y1566D01*
X360Y1564D01*
X358Y1564D01*
X358Y1526D01*
X406Y1526D01*
X406Y1636D01*
X392Y1636D01*
X392Y1638D01*
X384Y1638D01*
X384Y1640D01*
X382Y1640D01*
X382Y1642D01*
X380Y1642D01*
X380Y1644D01*
X378Y1644D01*
X378Y1648D01*
X376Y1648D01*
X376Y1694D01*
X346Y1694D01*
X346Y1696D01*
X344Y1696D01*
X344Y1790D01*
X240Y1790D01*
G37*
D02*
G36*
X440Y1790D02*
X440Y1776D01*
X460Y1776D01*
X460Y1778D01*
X462Y1778D01*
X462Y1780D01*
X464Y1780D01*
X464Y1782D01*
X468Y1782D01*
X468Y1784D01*
X472Y1784D01*
X472Y1786D01*
X476Y1786D01*
X476Y1788D01*
X484Y1788D01*
X484Y1790D01*
X440Y1790D01*
G37*
D02*
G36*
X502Y1790D02*
X502Y1788D01*
X508Y1788D01*
X508Y1786D01*
X514Y1786D01*
X514Y1784D01*
X516Y1784D01*
X516Y1782D01*
X520Y1782D01*
X520Y1780D01*
X522Y1780D01*
X522Y1778D01*
X524Y1778D01*
X524Y1776D01*
X526Y1776D01*
X526Y1774D01*
X528Y1774D01*
X528Y1772D01*
X530Y1772D01*
X530Y1770D01*
X532Y1770D01*
X532Y1766D01*
X552Y1766D01*
X552Y1768D01*
X554Y1768D01*
X554Y1772D01*
X556Y1772D01*
X556Y1774D01*
X558Y1774D01*
X558Y1776D01*
X560Y1776D01*
X560Y1778D01*
X562Y1778D01*
X562Y1780D01*
X564Y1780D01*
X564Y1782D01*
X568Y1782D01*
X568Y1784D01*
X572Y1784D01*
X572Y1786D01*
X576Y1786D01*
X576Y1788D01*
X584Y1788D01*
X584Y1790D01*
X502Y1790D01*
G37*
D02*
G36*
X602Y1790D02*
X602Y1788D01*
X608Y1788D01*
X608Y1786D01*
X614Y1786D01*
X614Y1784D01*
X616Y1784D01*
X616Y1782D01*
X620Y1782D01*
X620Y1780D01*
X622Y1780D01*
X622Y1778D01*
X624Y1778D01*
X624Y1776D01*
X626Y1776D01*
X626Y1774D01*
X628Y1774D01*
X628Y1772D01*
X630Y1772D01*
X630Y1770D01*
X632Y1770D01*
X632Y1766D01*
X652Y1766D01*
X652Y1768D01*
X654Y1768D01*
X654Y1772D01*
X656Y1772D01*
X656Y1774D01*
X658Y1774D01*
X658Y1776D01*
X660Y1776D01*
X660Y1778D01*
X662Y1778D01*
X662Y1780D01*
X664Y1780D01*
X664Y1782D01*
X668Y1782D01*
X668Y1784D01*
X672Y1784D01*
X672Y1786D01*
X676Y1786D01*
X676Y1788D01*
X684Y1788D01*
X684Y1790D01*
X602Y1790D01*
G37*
D02*
G36*
X532Y1718D02*
X532Y1716D01*
X530Y1716D01*
X530Y1712D01*
X528Y1712D01*
X528Y1710D01*
X526Y1710D01*
X526Y1708D01*
X524Y1708D01*
X524Y1706D01*
X522Y1706D01*
X522Y1704D01*
X518Y1704D01*
X518Y1702D01*
X514Y1702D01*
X514Y1700D01*
X512Y1700D01*
X512Y1698D01*
X508Y1698D01*
X508Y1696D01*
X580Y1696D01*
X580Y1698D01*
X574Y1698D01*
X574Y1700D01*
X570Y1700D01*
X570Y1702D01*
X566Y1702D01*
X566Y1704D01*
X564Y1704D01*
X564Y1706D01*
X562Y1706D01*
X562Y1708D01*
X558Y1708D01*
X558Y1712D01*
X556Y1712D01*
X556Y1714D01*
X554Y1714D01*
X554Y1716D01*
X552Y1716D01*
X552Y1718D01*
X532Y1718D01*
G37*
D02*
G36*
X632Y1718D02*
X632Y1716D01*
X630Y1716D01*
X630Y1712D01*
X628Y1712D01*
X628Y1710D01*
X626Y1710D01*
X626Y1708D01*
X624Y1708D01*
X624Y1706D01*
X622Y1706D01*
X622Y1704D01*
X618Y1704D01*
X618Y1702D01*
X614Y1702D01*
X614Y1700D01*
X612Y1700D01*
X612Y1698D01*
X606Y1698D01*
X606Y1696D01*
X680Y1696D01*
X680Y1698D01*
X674Y1698D01*
X674Y1700D01*
X670Y1700D01*
X670Y1702D01*
X666Y1702D01*
X666Y1704D01*
X664Y1704D01*
X664Y1706D01*
X662Y1706D01*
X662Y1708D01*
X658Y1708D01*
X658Y1712D01*
X656Y1712D01*
X656Y1714D01*
X654Y1714D01*
X654Y1716D01*
X652Y1716D01*
X652Y1718D01*
X632Y1718D01*
G37*
D02*
G36*
X440Y1708D02*
X440Y1696D01*
X438Y1696D01*
X438Y1694D01*
X408Y1694D01*
X408Y1668D01*
X430Y1668D01*
X430Y1666D01*
X432Y1666D01*
X432Y1664D01*
X434Y1664D01*
X434Y1662D01*
X436Y1662D01*
X436Y1658D01*
X438Y1658D01*
X438Y1562D01*
X482Y1562D01*
X482Y1564D01*
X478Y1564D01*
X478Y1566D01*
X476Y1566D01*
X476Y1568D01*
X472Y1568D01*
X472Y1572D01*
X470Y1572D01*
X470Y1574D01*
X468Y1574D01*
X468Y1576D01*
X466Y1576D01*
X466Y1582D01*
X464Y1582D01*
X464Y1600D01*
X466Y1600D01*
X466Y1604D01*
X468Y1604D01*
X468Y1608D01*
X470Y1608D01*
X470Y1610D01*
X472Y1610D01*
X472Y1612D01*
X474Y1612D01*
X474Y1614D01*
X476Y1614D01*
X476Y1698D01*
X474Y1698D01*
X474Y1700D01*
X470Y1700D01*
X470Y1702D01*
X466Y1702D01*
X466Y1704D01*
X464Y1704D01*
X464Y1706D01*
X462Y1706D01*
X462Y1708D01*
X440Y1708D01*
G37*
D02*
G36*
X508Y1696D02*
X508Y1694D01*
X870Y1694D01*
X870Y1696D01*
X508Y1696D01*
G37*
D02*
G36*
X508Y1696D02*
X508Y1694D01*
X870Y1694D01*
X870Y1696D01*
X508Y1696D01*
G37*
D02*
G36*
X508Y1696D02*
X508Y1694D01*
X870Y1694D01*
X870Y1696D01*
X508Y1696D01*
G37*
D02*
G36*
X508Y1694D02*
X508Y1616D01*
X510Y1616D01*
X510Y1614D01*
X512Y1614D01*
X512Y1612D01*
X514Y1612D01*
X514Y1610D01*
X516Y1610D01*
X516Y1608D01*
X518Y1608D01*
X518Y1604D01*
X520Y1604D01*
X520Y1600D01*
X522Y1600D01*
X522Y1582D01*
X520Y1582D01*
X520Y1576D01*
X518Y1576D01*
X518Y1574D01*
X516Y1574D01*
X516Y1570D01*
X514Y1570D01*
X514Y1568D01*
X510Y1568D01*
X510Y1566D01*
X508Y1566D01*
X508Y1564D01*
X504Y1564D01*
X504Y1562D01*
X752Y1562D01*
X752Y1604D01*
X754Y1604D01*
X754Y1608D01*
X756Y1608D01*
X756Y1610D01*
X758Y1610D01*
X758Y1612D01*
X760Y1612D01*
X760Y1614D01*
X764Y1614D01*
X764Y1616D01*
X870Y1616D01*
X870Y1694D01*
X508Y1694D01*
G37*
D02*
G36*
X240Y1670D02*
X240Y1668D01*
X264Y1668D01*
X264Y1670D01*
X240Y1670D01*
G37*
D02*
G36*
X286Y1618D02*
X286Y1616D01*
X282Y1616D01*
X282Y1452D01*
X366Y1452D01*
X366Y1190D01*
X532Y1190D01*
X532Y1308D01*
X534Y1308D01*
X534Y1312D01*
X536Y1312D01*
X536Y1314D01*
X538Y1314D01*
X538Y1316D01*
X542Y1316D01*
X542Y1318D01*
X564Y1318D01*
X564Y1454D01*
X370Y1454D01*
X370Y1474D01*
X336Y1474D01*
X336Y1476D01*
X332Y1476D01*
X332Y1478D01*
X330Y1478D01*
X330Y1480D01*
X328Y1480D01*
X328Y1484D01*
X326Y1484D01*
X326Y1564D01*
X324Y1564D01*
X324Y1566D01*
X322Y1566D01*
X322Y1568D01*
X320Y1568D01*
X320Y1570D01*
X318Y1570D01*
X318Y1572D01*
X316Y1572D01*
X316Y1576D01*
X314Y1576D01*
X314Y1582D01*
X312Y1582D01*
X312Y1594D01*
X314Y1594D01*
X314Y1600D01*
X316Y1600D01*
X316Y1604D01*
X318Y1604D01*
X318Y1608D01*
X320Y1608D01*
X320Y1610D01*
X322Y1610D01*
X322Y1612D01*
X326Y1612D01*
X326Y1614D01*
X328Y1614D01*
X328Y1616D01*
X334Y1616D01*
X334Y1618D01*
X286Y1618D01*
G37*
D02*
G36*
X438Y1562D02*
X438Y1560D01*
X574Y1560D01*
X574Y1562D01*
X438Y1562D01*
G37*
D02*
G36*
X438Y1562D02*
X438Y1560D01*
X574Y1560D01*
X574Y1562D01*
X438Y1562D01*
G37*
D02*
G36*
X438Y1560D02*
X438Y1526D01*
X564Y1526D01*
X564Y1552D01*
X566Y1552D01*
X566Y1556D01*
X568Y1556D01*
X568Y1558D01*
X570Y1558D01*
X570Y1560D01*
X438Y1560D01*
G37*
D02*
G36*
X632Y1474D02*
X632Y1454D01*
X596Y1454D01*
X596Y1452D01*
X704Y1452D01*
X704Y1448D01*
X854Y1448D01*
X854Y1446D01*
X858Y1446D01*
X858Y1444D01*
X862Y1444D01*
X862Y1442D01*
X864Y1442D01*
X864Y1438D01*
X866Y1438D01*
X866Y1204D01*
X868Y1204D01*
X868Y1202D01*
X872Y1202D01*
X872Y1200D01*
X894Y1200D01*
X894Y1474D01*
X632Y1474D01*
G37*
D02*
G36*
X596Y1452D02*
X596Y1298D01*
X594Y1298D01*
X594Y1294D01*
X592Y1294D01*
X592Y1292D01*
X590Y1292D01*
X590Y1290D01*
X588Y1290D01*
X588Y1288D01*
X584Y1288D01*
X584Y1286D01*
X564Y1286D01*
X564Y1190D01*
X634Y1190D01*
X634Y1452D01*
X596Y1452D01*
G37*
D02*
G36*
X40Y1412D02*
X40Y1336D01*
X86Y1336D01*
X86Y1334D01*
X108Y1334D01*
X108Y1358D01*
X106Y1358D01*
X106Y1360D01*
X104Y1360D01*
X104Y1362D01*
X102Y1362D01*
X102Y1364D01*
X100Y1364D01*
X100Y1366D01*
X98Y1366D01*
X98Y1370D01*
X96Y1370D01*
X96Y1378D01*
X94Y1378D01*
X94Y1386D01*
X96Y1386D01*
X96Y1394D01*
X98Y1394D01*
X98Y1398D01*
X100Y1398D01*
X100Y1400D01*
X102Y1400D01*
X102Y1402D01*
X104Y1402D01*
X104Y1404D01*
X106Y1404D01*
X106Y1406D01*
X108Y1406D01*
X108Y1408D01*
X112Y1408D01*
X112Y1410D01*
X120Y1410D01*
X120Y1412D01*
X40Y1412D01*
G37*
D02*
G36*
X40Y1336D02*
X40Y1328D01*
X60Y1328D01*
X60Y1330D01*
X64Y1330D01*
X64Y1332D01*
X66Y1332D01*
X66Y1334D01*
X72Y1334D01*
X72Y1336D01*
X40Y1336D01*
G37*
D02*
G36*
X704Y1320D02*
X704Y1284D01*
X794Y1284D01*
X794Y1286D01*
X790Y1286D01*
X790Y1288D01*
X786Y1288D01*
X786Y1290D01*
X784Y1290D01*
X784Y1292D01*
X782Y1292D01*
X782Y1294D01*
X780Y1294D01*
X780Y1298D01*
X778Y1298D01*
X778Y1302D01*
X776Y1302D01*
X776Y1308D01*
X774Y1308D01*
X774Y1320D01*
X704Y1320D01*
G37*
D02*
G36*
X40Y1286D02*
X40Y84D01*
X74Y84D01*
X74Y86D01*
X70Y86D01*
X70Y88D01*
X68Y88D01*
X68Y90D01*
X66Y90D01*
X66Y94D01*
X64Y94D01*
X64Y1282D01*
X62Y1282D01*
X62Y1284D01*
X60Y1284D01*
X60Y1286D01*
X40Y1286D01*
G37*
D02*
G36*
X814Y1286D02*
X814Y1284D01*
X834Y1284D01*
X834Y1286D01*
X814Y1286D01*
G37*
D02*
G36*
X704Y1284D02*
X704Y1282D01*
X834Y1282D01*
X834Y1284D01*
X704Y1284D01*
G37*
D02*
G36*
X704Y1284D02*
X704Y1282D01*
X834Y1282D01*
X834Y1284D01*
X704Y1284D01*
G37*
D02*
G36*
X704Y1282D02*
X704Y1272D01*
X756Y1272D01*
X756Y1270D01*
X762Y1270D01*
X762Y1268D01*
X766Y1268D01*
X766Y1266D01*
X770Y1266D01*
X770Y1264D01*
X772Y1264D01*
X772Y1262D01*
X774Y1262D01*
X774Y1258D01*
X776Y1258D01*
X776Y1256D01*
X778Y1256D01*
X778Y1250D01*
X780Y1250D01*
X780Y1234D01*
X778Y1234D01*
X778Y1228D01*
X776Y1228D01*
X776Y1224D01*
X774Y1224D01*
X774Y1222D01*
X772Y1222D01*
X772Y1220D01*
X770Y1220D01*
X770Y1218D01*
X766Y1218D01*
X766Y1216D01*
X764Y1216D01*
X764Y1214D01*
X758Y1214D01*
X758Y1212D01*
X834Y1212D01*
X834Y1282D01*
X704Y1282D01*
G37*
D02*
G36*
X240Y1278D02*
X240Y1190D01*
X296Y1190D01*
X296Y1276D01*
X262Y1276D01*
X262Y1278D01*
X240Y1278D01*
G37*
D02*
G36*
X704Y1272D02*
X704Y1258D01*
X726Y1258D01*
X726Y1260D01*
X728Y1260D01*
X728Y1262D01*
X730Y1262D01*
X730Y1264D01*
X732Y1264D01*
X732Y1266D01*
X736Y1266D01*
X736Y1268D01*
X738Y1268D01*
X738Y1270D01*
X746Y1270D01*
X746Y1272D01*
X704Y1272D01*
G37*
D02*
G36*
X704Y1226D02*
X704Y1212D01*
X744Y1212D01*
X744Y1214D01*
X738Y1214D01*
X738Y1216D01*
X734Y1216D01*
X734Y1218D01*
X732Y1218D01*
X732Y1220D01*
X730Y1220D01*
X730Y1222D01*
X728Y1222D01*
X728Y1224D01*
X726Y1224D01*
X726Y1226D01*
X704Y1226D01*
G37*
D02*
G36*
X704Y1212D02*
X704Y1210D01*
X834Y1210D01*
X834Y1212D01*
X704Y1212D01*
G37*
D02*
G36*
X704Y1212D02*
X704Y1210D01*
X834Y1210D01*
X834Y1212D01*
X704Y1212D01*
G37*
D02*
G36*
X704Y1210D02*
X704Y1190D01*
X824Y1190D01*
X824Y1194D01*
X826Y1194D01*
X826Y1198D01*
X828Y1198D01*
X828Y1200D01*
X830Y1200D01*
X830Y1202D01*
X832Y1202D01*
X832Y1204D01*
X834Y1204D01*
X834Y1210D01*
X704Y1210D01*
G37*
D02*
G36*
X240Y1190D02*
X240Y1188D01*
X532Y1188D01*
X532Y1190D01*
X240Y1190D01*
G37*
D02*
G36*
X240Y1190D02*
X240Y1188D01*
X532Y1188D01*
X532Y1190D01*
X240Y1190D01*
G37*
D02*
G36*
X564Y1190D02*
X564Y1188D01*
X822Y1188D01*
X822Y1190D01*
X564Y1190D01*
G37*
D02*
G36*
X564Y1190D02*
X564Y1188D01*
X822Y1188D01*
X822Y1190D01*
X564Y1190D01*
G37*
D02*
G36*
X240Y1188D02*
X240Y1168D01*
X370Y1168D01*
X370Y1188D01*
X240Y1188D01*
G37*
D02*
G36*
X632Y1188D02*
X632Y1150D01*
X844Y1150D01*
X844Y1152D01*
X838Y1152D01*
X838Y1154D01*
X834Y1154D01*
X834Y1156D01*
X832Y1156D01*
X832Y1158D01*
X830Y1158D01*
X830Y1160D01*
X828Y1160D01*
X828Y1162D01*
X826Y1162D01*
X826Y1166D01*
X824Y1166D01*
X824Y1170D01*
X822Y1170D01*
X822Y1188D01*
X632Y1188D01*
G37*
D02*
G36*
X870Y1158D02*
X870Y1156D01*
X868Y1156D01*
X868Y1154D01*
X864Y1154D01*
X864Y1152D01*
X858Y1152D01*
X858Y1150D01*
X898Y1150D01*
X898Y1152D01*
X894Y1152D01*
X894Y1154D01*
X892Y1154D01*
X892Y1156D01*
X890Y1156D01*
X890Y1158D01*
X870Y1158D01*
G37*
D02*
G36*
X632Y1150D02*
X632Y1148D01*
X902Y1148D01*
X902Y1150D01*
X632Y1150D01*
G37*
D02*
G36*
X632Y1150D02*
X632Y1148D01*
X902Y1148D01*
X902Y1150D01*
X632Y1150D01*
G37*
D02*
G36*
X632Y1148D02*
X632Y1146D01*
X982Y1146D01*
X982Y1148D01*
X632Y1148D01*
G37*
D02*
G36*
X632Y1148D02*
X632Y1146D01*
X982Y1146D01*
X982Y1148D01*
X632Y1148D01*
G37*
D02*
G36*
X632Y1146D02*
X632Y1110D01*
X636Y1110D01*
X636Y1108D01*
X640Y1108D01*
X640Y1106D01*
X642Y1106D01*
X642Y1104D01*
X644Y1104D01*
X644Y1102D01*
X646Y1102D01*
X646Y1100D01*
X648Y1100D01*
X648Y1098D01*
X650Y1098D01*
X650Y1094D01*
X652Y1094D01*
X652Y1088D01*
X654Y1088D01*
X654Y1076D01*
X652Y1076D01*
X652Y1070D01*
X650Y1070D01*
X650Y1066D01*
X648Y1066D01*
X648Y1064D01*
X646Y1064D01*
X646Y1060D01*
X642Y1060D01*
X642Y1058D01*
X640Y1058D01*
X640Y1056D01*
X636Y1056D01*
X636Y1054D01*
X630Y1054D01*
X630Y1052D01*
X982Y1052D01*
X982Y1146D01*
X632Y1146D01*
G37*
D02*
G36*
X502Y1116D02*
X502Y1070D01*
X566Y1070D01*
X566Y1068D01*
X576Y1068D01*
X576Y1066D01*
X580Y1066D01*
X580Y1064D01*
X582Y1064D01*
X582Y1062D01*
X584Y1062D01*
X584Y1060D01*
X586Y1060D01*
X586Y1058D01*
X588Y1058D01*
X588Y1056D01*
X590Y1056D01*
X590Y1052D01*
X618Y1052D01*
X618Y1054D01*
X612Y1054D01*
X612Y1056D01*
X608Y1056D01*
X608Y1058D01*
X606Y1058D01*
X606Y1060D01*
X604Y1060D01*
X604Y1062D01*
X602Y1062D01*
X602Y1064D01*
X600Y1064D01*
X600Y1066D01*
X598Y1066D01*
X598Y1070D01*
X596Y1070D01*
X596Y1078D01*
X594Y1078D01*
X594Y1086D01*
X596Y1086D01*
X596Y1094D01*
X598Y1094D01*
X598Y1116D01*
X502Y1116D01*
G37*
D02*
G36*
X502Y1070D02*
X502Y1056D01*
X540Y1056D01*
X540Y1058D01*
X542Y1058D01*
X542Y1060D01*
X544Y1060D01*
X544Y1062D01*
X546Y1062D01*
X546Y1064D01*
X550Y1064D01*
X550Y1066D01*
X552Y1066D01*
X552Y1068D01*
X562Y1068D01*
X562Y1070D01*
X502Y1070D01*
G37*
D02*
G36*
X592Y1052D02*
X592Y1050D01*
X982Y1050D01*
X982Y1052D01*
X592Y1052D01*
G37*
D02*
G36*
X592Y1052D02*
X592Y1050D01*
X982Y1050D01*
X982Y1052D01*
X592Y1052D01*
G37*
D02*
G36*
X592Y1050D02*
X592Y1046D01*
X594Y1046D01*
X594Y1034D01*
X592Y1034D01*
X592Y1028D01*
X590Y1028D01*
X590Y1024D01*
X588Y1024D01*
X588Y1020D01*
X586Y1020D01*
X586Y1018D01*
X584Y1018D01*
X584Y1016D01*
X580Y1016D01*
X580Y1014D01*
X576Y1014D01*
X576Y1012D01*
X572Y1012D01*
X572Y1010D01*
X982Y1010D01*
X982Y1050D01*
X592Y1050D01*
G37*
D02*
G36*
X532Y1014D02*
X532Y1010D01*
X556Y1010D01*
X556Y1012D01*
X552Y1012D01*
X552Y1014D01*
X532Y1014D01*
G37*
D02*
G36*
X532Y1010D02*
X532Y1008D01*
X982Y1008D01*
X982Y1010D01*
X532Y1010D01*
G37*
D02*
G36*
X532Y1010D02*
X532Y1008D01*
X982Y1008D01*
X982Y1010D01*
X532Y1010D01*
G37*
D02*
G36*
X532Y1008D02*
X532Y988D01*
X530Y988D01*
X530Y982D01*
X528Y982D01*
X528Y980D01*
X526Y980D01*
X526Y978D01*
X524Y978D01*
X524Y976D01*
X518Y976D01*
X518Y974D01*
X464Y974D01*
X464Y906D01*
X608Y906D01*
X608Y820D01*
X606Y820D01*
X606Y818D01*
X982Y818D01*
X982Y1008D01*
X532Y1008D01*
G37*
D02*
G36*
X404Y1006D02*
X404Y1004D01*
X402Y1004D01*
X402Y1000D01*
X400Y1000D01*
X400Y996D01*
X398Y996D01*
X398Y994D01*
X396Y994D01*
X396Y992D01*
X394Y992D01*
X394Y990D01*
X392Y990D01*
X392Y988D01*
X390Y988D01*
X390Y986D01*
X388Y986D01*
X388Y984D01*
X384Y984D01*
X384Y982D01*
X382Y982D01*
X382Y980D01*
X378Y980D01*
X378Y920D01*
X376Y920D01*
X376Y818D01*
X418Y818D01*
X418Y906D01*
X432Y906D01*
X432Y1006D01*
X404Y1006D01*
G37*
D02*
G36*
X478Y906D02*
X478Y820D01*
X476Y820D01*
X476Y818D01*
X548Y818D01*
X548Y906D01*
X478Y906D01*
G37*
D02*
G36*
X376Y818D02*
X376Y816D01*
X982Y816D01*
X982Y818D01*
X376Y818D01*
G37*
D02*
G36*
X376Y818D02*
X376Y816D01*
X982Y816D01*
X982Y818D01*
X376Y818D01*
G37*
D02*
G36*
X376Y818D02*
X376Y816D01*
X982Y816D01*
X982Y818D01*
X376Y818D01*
G37*
D02*
G36*
X376Y816D02*
X376Y760D01*
X702Y760D01*
X702Y758D01*
X706Y758D01*
X706Y756D01*
X710Y756D01*
X710Y754D01*
X712Y754D01*
X712Y752D01*
X714Y752D01*
X714Y750D01*
X716Y750D01*
X716Y748D01*
X718Y748D01*
X718Y744D01*
X720Y744D01*
X720Y740D01*
X722Y740D01*
X722Y722D01*
X720Y722D01*
X720Y716D01*
X718Y716D01*
X718Y714D01*
X716Y714D01*
X716Y710D01*
X714Y710D01*
X714Y708D01*
X710Y708D01*
X710Y632D01*
X708Y632D01*
X708Y624D01*
X808Y624D01*
X808Y622D01*
X814Y622D01*
X814Y620D01*
X816Y620D01*
X816Y618D01*
X818Y618D01*
X818Y616D01*
X822Y616D01*
X822Y612D01*
X824Y612D01*
X824Y610D01*
X826Y610D01*
X826Y606D01*
X828Y606D01*
X828Y598D01*
X830Y598D01*
X830Y592D01*
X828Y592D01*
X828Y584D01*
X826Y584D01*
X826Y580D01*
X824Y580D01*
X824Y576D01*
X822Y576D01*
X822Y574D01*
X820Y574D01*
X820Y572D01*
X818Y572D01*
X818Y570D01*
X814Y570D01*
X814Y568D01*
X810Y568D01*
X810Y566D01*
X982Y566D01*
X982Y816D01*
X376Y816D01*
G37*
D02*
G36*
X376Y760D02*
X376Y714D01*
X606Y714D01*
X606Y712D01*
X608Y712D01*
X608Y648D01*
X678Y648D01*
X678Y706D01*
X676Y706D01*
X676Y708D01*
X672Y708D01*
X672Y712D01*
X670Y712D01*
X670Y714D01*
X668Y714D01*
X668Y716D01*
X666Y716D01*
X666Y722D01*
X664Y722D01*
X664Y740D01*
X666Y740D01*
X666Y744D01*
X668Y744D01*
X668Y748D01*
X670Y748D01*
X670Y750D01*
X672Y750D01*
X672Y752D01*
X674Y752D01*
X674Y754D01*
X676Y754D01*
X676Y756D01*
X680Y756D01*
X680Y758D01*
X684Y758D01*
X684Y760D01*
X376Y760D01*
G37*
D02*
G36*
X376Y714D02*
X376Y566D01*
X790Y566D01*
X790Y568D01*
X786Y568D01*
X786Y570D01*
X782Y570D01*
X782Y572D01*
X780Y572D01*
X780Y574D01*
X778Y574D01*
X778Y576D01*
X776Y576D01*
X776Y578D01*
X444Y578D01*
X444Y580D01*
X440Y580D01*
X440Y582D01*
X436Y582D01*
X436Y584D01*
X434Y584D01*
X434Y588D01*
X432Y588D01*
X432Y626D01*
X418Y626D01*
X418Y714D01*
X376Y714D01*
G37*
D02*
G36*
X476Y714D02*
X476Y712D01*
X478Y712D01*
X478Y610D01*
X548Y610D01*
X548Y714D01*
X476Y714D01*
G37*
D02*
G36*
X708Y624D02*
X708Y610D01*
X776Y610D01*
X776Y614D01*
X778Y614D01*
X778Y616D01*
X780Y616D01*
X780Y618D01*
X782Y618D01*
X782Y620D01*
X786Y620D01*
X786Y622D01*
X792Y622D01*
X792Y624D01*
X708Y624D01*
G37*
D02*
G36*
X376Y566D02*
X376Y564D01*
X982Y564D01*
X982Y566D01*
X376Y566D01*
G37*
D02*
G36*
X376Y566D02*
X376Y564D01*
X982Y564D01*
X982Y566D01*
X376Y566D01*
G37*
D02*
G36*
X376Y564D02*
X376Y462D01*
X536Y462D01*
X536Y460D01*
X540Y460D01*
X540Y458D01*
X542Y458D01*
X542Y456D01*
X544Y456D01*
X544Y454D01*
X546Y454D01*
X546Y360D01*
X758Y360D01*
X758Y358D01*
X762Y358D01*
X762Y356D01*
X764Y356D01*
X764Y354D01*
X766Y354D01*
X766Y352D01*
X768Y352D01*
X768Y346D01*
X770Y346D01*
X770Y242D01*
X772Y242D01*
X772Y240D01*
X776Y240D01*
X776Y238D01*
X780Y238D01*
X780Y236D01*
X782Y236D01*
X782Y234D01*
X784Y234D01*
X784Y232D01*
X788Y232D01*
X788Y228D01*
X790Y228D01*
X790Y226D01*
X792Y226D01*
X792Y224D01*
X794Y224D01*
X794Y220D01*
X796Y220D01*
X796Y218D01*
X798Y218D01*
X798Y212D01*
X800Y212D01*
X800Y206D01*
X802Y206D01*
X802Y186D01*
X800Y186D01*
X800Y178D01*
X798Y178D01*
X798Y174D01*
X796Y174D01*
X796Y170D01*
X794Y170D01*
X794Y168D01*
X792Y168D01*
X792Y164D01*
X790Y164D01*
X790Y162D01*
X788Y162D01*
X788Y160D01*
X786Y160D01*
X786Y158D01*
X782Y158D01*
X782Y156D01*
X780Y156D01*
X780Y154D01*
X776Y154D01*
X776Y152D01*
X774Y152D01*
X774Y150D01*
X766Y150D01*
X766Y148D01*
X758Y148D01*
X758Y146D01*
X982Y146D01*
X982Y564D01*
X376Y564D01*
G37*
D02*
G36*
X592Y168D02*
X592Y164D01*
X590Y164D01*
X590Y162D01*
X588Y162D01*
X588Y160D01*
X586Y160D01*
X586Y158D01*
X582Y158D01*
X582Y156D01*
X580Y156D01*
X580Y154D01*
X576Y154D01*
X576Y152D01*
X574Y152D01*
X574Y150D01*
X570Y150D01*
X570Y146D01*
X648Y146D01*
X648Y148D01*
X640Y148D01*
X640Y150D01*
X634Y150D01*
X634Y152D01*
X630Y152D01*
X630Y154D01*
X626Y154D01*
X626Y156D01*
X624Y156D01*
X624Y158D01*
X622Y158D01*
X622Y160D01*
X618Y160D01*
X618Y164D01*
X616Y164D01*
X616Y166D01*
X614Y166D01*
X614Y168D01*
X592Y168D01*
G37*
D02*
G36*
X692Y168D02*
X692Y164D01*
X690Y164D01*
X690Y162D01*
X688Y162D01*
X688Y160D01*
X686Y160D01*
X686Y158D01*
X682Y158D01*
X682Y156D01*
X680Y156D01*
X680Y154D01*
X676Y154D01*
X676Y152D01*
X674Y152D01*
X674Y150D01*
X666Y150D01*
X666Y148D01*
X658Y148D01*
X658Y146D01*
X748Y146D01*
X748Y148D01*
X740Y148D01*
X740Y150D01*
X734Y150D01*
X734Y152D01*
X730Y152D01*
X730Y154D01*
X726Y154D01*
X726Y156D01*
X724Y156D01*
X724Y158D01*
X722Y158D01*
X722Y160D01*
X718Y160D01*
X718Y164D01*
X716Y164D01*
X716Y166D01*
X714Y166D01*
X714Y168D01*
X692Y168D01*
G37*
D02*
G36*
X570Y146D02*
X570Y144D01*
X982Y144D01*
X982Y146D01*
X570Y146D01*
G37*
D02*
G36*
X570Y146D02*
X570Y144D01*
X982Y144D01*
X982Y146D01*
X570Y146D01*
G37*
D02*
G36*
X570Y146D02*
X570Y144D01*
X982Y144D01*
X982Y146D01*
X570Y146D01*
G37*
D02*
G36*
X570Y144D02*
X570Y98D01*
X568Y98D01*
X568Y92D01*
X566Y92D01*
X566Y88D01*
X562Y88D01*
X562Y86D01*
X560Y86D01*
X560Y84D01*
X982Y84D01*
X982Y144D01*
X570Y144D01*
G37*
D02*
G36*
X40Y84D02*
X40Y82D01*
X982Y82D01*
X982Y84D01*
X40Y84D01*
G37*
D02*
G36*
X40Y84D02*
X40Y82D01*
X982Y82D01*
X982Y84D01*
X40Y84D01*
G37*
D02*
G36*
X40Y82D02*
X40Y40D01*
X982Y40D01*
X982Y82D01*
X40Y82D01*
G37*
D02*
G36*
X188Y1204D02*
X188Y1202D01*
X186Y1202D01*
X186Y1200D01*
X182Y1200D01*
X182Y1198D01*
X174Y1198D01*
X174Y1196D01*
X208Y1196D01*
X208Y1204D01*
X188Y1204D01*
G37*
D02*
G36*
X140Y1200D02*
X140Y1196D01*
X168Y1196D01*
X168Y1198D01*
X160Y1198D01*
X160Y1200D01*
X140Y1200D01*
G37*
D02*
G36*
X140Y1196D02*
X140Y1194D01*
X208Y1194D01*
X208Y1196D01*
X140Y1196D01*
G37*
D02*
G36*
X140Y1196D02*
X140Y1194D01*
X208Y1194D01*
X208Y1196D01*
X140Y1196D01*
G37*
D02*
G36*
X140Y1194D02*
X140Y1066D01*
X370Y1066D01*
X370Y1064D01*
X378Y1064D01*
X378Y1062D01*
X382Y1062D01*
X382Y1060D01*
X386Y1060D01*
X386Y1058D01*
X388Y1058D01*
X388Y1056D01*
X390Y1056D01*
X390Y1054D01*
X394Y1054D01*
X394Y1050D01*
X396Y1050D01*
X396Y1048D01*
X398Y1048D01*
X398Y1046D01*
X400Y1046D01*
X400Y1042D01*
X402Y1042D01*
X402Y1038D01*
X422Y1038D01*
X422Y1058D01*
X418Y1058D01*
X418Y1060D01*
X416Y1060D01*
X416Y1062D01*
X414Y1062D01*
X414Y1066D01*
X412Y1066D01*
X412Y1068D01*
X410Y1068D01*
X410Y1074D01*
X408Y1074D01*
X408Y1090D01*
X410Y1090D01*
X410Y1094D01*
X412Y1094D01*
X412Y1116D01*
X370Y1116D01*
X370Y1136D01*
X218Y1136D01*
X218Y1138D01*
X214Y1138D01*
X214Y1140D01*
X212Y1140D01*
X212Y1142D01*
X210Y1142D01*
X210Y1148D01*
X208Y1148D01*
X208Y1194D01*
X140Y1194D01*
G37*
D02*
G36*
X140Y1066D02*
X140Y976D01*
X254Y976D01*
X254Y978D01*
X246Y978D01*
X246Y980D01*
X242Y980D01*
X242Y982D01*
X238Y982D01*
X238Y984D01*
X234Y984D01*
X234Y986D01*
X232Y986D01*
X232Y988D01*
X230Y988D01*
X230Y990D01*
X228Y990D01*
X228Y992D01*
X226Y992D01*
X226Y994D01*
X224Y994D01*
X224Y998D01*
X222Y998D01*
X222Y1002D01*
X220Y1002D01*
X220Y1006D01*
X218Y1006D01*
X218Y1014D01*
X216Y1014D01*
X216Y1028D01*
X218Y1028D01*
X218Y1036D01*
X220Y1036D01*
X220Y1040D01*
X222Y1040D01*
X222Y1044D01*
X224Y1044D01*
X224Y1048D01*
X226Y1048D01*
X226Y1050D01*
X228Y1050D01*
X228Y1052D01*
X230Y1052D01*
X230Y1054D01*
X232Y1054D01*
X232Y1056D01*
X234Y1056D01*
X234Y1058D01*
X238Y1058D01*
X238Y1060D01*
X240Y1060D01*
X240Y1062D01*
X246Y1062D01*
X246Y1064D01*
X252Y1064D01*
X252Y1066D01*
X140Y1066D01*
G37*
D02*
G36*
X270Y1066D02*
X270Y1064D01*
X278Y1064D01*
X278Y1062D01*
X282Y1062D01*
X282Y1060D01*
X286Y1060D01*
X286Y1058D01*
X288Y1058D01*
X288Y1056D01*
X290Y1056D01*
X290Y1054D01*
X292Y1054D01*
X292Y1052D01*
X294Y1052D01*
X294Y1050D01*
X296Y1050D01*
X296Y1048D01*
X298Y1048D01*
X298Y1046D01*
X300Y1046D01*
X300Y1042D01*
X302Y1042D01*
X302Y1040D01*
X322Y1040D01*
X322Y1044D01*
X324Y1044D01*
X324Y1048D01*
X326Y1048D01*
X326Y1050D01*
X328Y1050D01*
X328Y1052D01*
X330Y1052D01*
X330Y1054D01*
X332Y1054D01*
X332Y1056D01*
X334Y1056D01*
X334Y1058D01*
X338Y1058D01*
X338Y1060D01*
X340Y1060D01*
X340Y1062D01*
X346Y1062D01*
X346Y1064D01*
X352Y1064D01*
X352Y1066D01*
X270Y1066D01*
G37*
D02*
G36*
X302Y1002D02*
X302Y1000D01*
X300Y1000D01*
X300Y998D01*
X298Y998D01*
X298Y994D01*
X296Y994D01*
X296Y992D01*
X294Y992D01*
X294Y990D01*
X292Y990D01*
X292Y988D01*
X290Y988D01*
X290Y986D01*
X288Y986D01*
X288Y984D01*
X284Y984D01*
X284Y982D01*
X282Y982D01*
X282Y980D01*
X276Y980D01*
X276Y978D01*
X270Y978D01*
X270Y976D01*
X346Y976D01*
X346Y980D01*
X342Y980D01*
X342Y982D01*
X338Y982D01*
X338Y984D01*
X334Y984D01*
X334Y986D01*
X332Y986D01*
X332Y988D01*
X330Y988D01*
X330Y990D01*
X328Y990D01*
X328Y992D01*
X326Y992D01*
X326Y994D01*
X324Y994D01*
X324Y998D01*
X322Y998D01*
X322Y1002D01*
X302Y1002D01*
G37*
D02*
G36*
X140Y976D02*
X140Y974D01*
X346Y974D01*
X346Y976D01*
X140Y976D01*
G37*
D02*
G36*
X140Y976D02*
X140Y974D01*
X346Y974D01*
X346Y976D01*
X140Y976D01*
G37*
D02*
G36*
X140Y974D02*
X140Y402D01*
X460Y402D01*
X460Y400D01*
X462Y400D01*
X462Y398D01*
X466Y398D01*
X466Y394D01*
X468Y394D01*
X468Y388D01*
X470Y388D01*
X470Y244D01*
X666Y244D01*
X666Y242D01*
X672Y242D01*
X672Y240D01*
X676Y240D01*
X676Y238D01*
X680Y238D01*
X680Y236D01*
X682Y236D01*
X682Y234D01*
X684Y234D01*
X684Y232D01*
X688Y232D01*
X688Y228D01*
X690Y228D01*
X690Y226D01*
X692Y226D01*
X692Y224D01*
X714Y224D01*
X714Y226D01*
X716Y226D01*
X716Y228D01*
X718Y228D01*
X718Y230D01*
X720Y230D01*
X720Y232D01*
X722Y232D01*
X722Y234D01*
X724Y234D01*
X724Y236D01*
X728Y236D01*
X728Y238D01*
X730Y238D01*
X730Y240D01*
X734Y240D01*
X734Y242D01*
X738Y242D01*
X738Y328D01*
X526Y328D01*
X526Y330D01*
X522Y330D01*
X522Y332D01*
X520Y332D01*
X520Y334D01*
X518Y334D01*
X518Y336D01*
X516Y336D01*
X516Y342D01*
X514Y342D01*
X514Y430D01*
X354Y430D01*
X354Y432D01*
X350Y432D01*
X350Y434D01*
X348Y434D01*
X348Y436D01*
X346Y436D01*
X346Y438D01*
X344Y438D01*
X344Y924D01*
X346Y924D01*
X346Y974D01*
X140Y974D01*
G37*
D02*
G36*
X470Y244D02*
X470Y242D01*
X472Y242D01*
X472Y240D01*
X476Y240D01*
X476Y238D01*
X480Y238D01*
X480Y236D01*
X482Y236D01*
X482Y234D01*
X484Y234D01*
X484Y232D01*
X488Y232D01*
X488Y228D01*
X490Y228D01*
X490Y226D01*
X492Y226D01*
X492Y224D01*
X514Y224D01*
X514Y226D01*
X516Y226D01*
X516Y228D01*
X518Y228D01*
X518Y230D01*
X520Y230D01*
X520Y232D01*
X522Y232D01*
X522Y234D01*
X524Y234D01*
X524Y236D01*
X528Y236D01*
X528Y238D01*
X530Y238D01*
X530Y240D01*
X534Y240D01*
X534Y242D01*
X542Y242D01*
X542Y244D01*
X470Y244D01*
G37*
D02*
G36*
X566Y244D02*
X566Y242D01*
X572Y242D01*
X572Y240D01*
X576Y240D01*
X576Y238D01*
X580Y238D01*
X580Y236D01*
X582Y236D01*
X582Y234D01*
X584Y234D01*
X584Y232D01*
X588Y232D01*
X588Y228D01*
X590Y228D01*
X590Y226D01*
X592Y226D01*
X592Y224D01*
X614Y224D01*
X614Y226D01*
X616Y226D01*
X616Y228D01*
X618Y228D01*
X618Y230D01*
X620Y230D01*
X620Y232D01*
X622Y232D01*
X622Y234D01*
X624Y234D01*
X624Y236D01*
X628Y236D01*
X628Y238D01*
X630Y238D01*
X630Y240D01*
X634Y240D01*
X634Y242D01*
X642Y242D01*
X642Y244D01*
X566Y244D01*
G37*
D02*
G36*
X96Y374D02*
X96Y244D01*
X266Y244D01*
X266Y242D01*
X272Y242D01*
X272Y240D01*
X276Y240D01*
X276Y238D01*
X280Y238D01*
X280Y236D01*
X282Y236D01*
X282Y234D01*
X284Y234D01*
X284Y232D01*
X288Y232D01*
X288Y228D01*
X290Y228D01*
X290Y226D01*
X292Y226D01*
X292Y224D01*
X314Y224D01*
X314Y226D01*
X316Y226D01*
X316Y228D01*
X318Y228D01*
X318Y230D01*
X320Y230D01*
X320Y232D01*
X322Y232D01*
X322Y234D01*
X324Y234D01*
X324Y236D01*
X328Y236D01*
X328Y238D01*
X330Y238D01*
X330Y240D01*
X334Y240D01*
X334Y242D01*
X336Y242D01*
X336Y312D01*
X334Y312D01*
X334Y314D01*
X332Y314D01*
X332Y316D01*
X330Y316D01*
X330Y318D01*
X328Y318D01*
X328Y320D01*
X326Y320D01*
X326Y324D01*
X324Y324D01*
X324Y328D01*
X322Y328D01*
X322Y348D01*
X324Y348D01*
X324Y370D01*
X120Y370D01*
X120Y372D01*
X116Y372D01*
X116Y374D01*
X96Y374D01*
G37*
D02*
G36*
X96Y244D02*
X96Y146D01*
X248Y146D01*
X248Y148D01*
X240Y148D01*
X240Y150D01*
X234Y150D01*
X234Y152D01*
X230Y152D01*
X230Y154D01*
X226Y154D01*
X226Y156D01*
X224Y156D01*
X224Y158D01*
X222Y158D01*
X222Y160D01*
X218Y160D01*
X218Y164D01*
X216Y164D01*
X216Y166D01*
X214Y166D01*
X214Y168D01*
X212Y168D01*
X212Y172D01*
X210Y172D01*
X210Y174D01*
X208Y174D01*
X208Y180D01*
X206Y180D01*
X206Y188D01*
X204Y188D01*
X204Y204D01*
X206Y204D01*
X206Y212D01*
X208Y212D01*
X208Y216D01*
X210Y216D01*
X210Y220D01*
X212Y220D01*
X212Y224D01*
X214Y224D01*
X214Y226D01*
X216Y226D01*
X216Y228D01*
X218Y228D01*
X218Y230D01*
X220Y230D01*
X220Y232D01*
X222Y232D01*
X222Y234D01*
X224Y234D01*
X224Y236D01*
X228Y236D01*
X228Y238D01*
X230Y238D01*
X230Y240D01*
X234Y240D01*
X234Y242D01*
X242Y242D01*
X242Y244D01*
X96Y244D01*
G37*
D02*
G36*
X292Y168D02*
X292Y164D01*
X290Y164D01*
X290Y162D01*
X288Y162D01*
X288Y160D01*
X286Y160D01*
X286Y158D01*
X282Y158D01*
X282Y156D01*
X280Y156D01*
X280Y154D01*
X276Y154D01*
X276Y152D01*
X274Y152D01*
X274Y150D01*
X266Y150D01*
X266Y148D01*
X258Y148D01*
X258Y146D01*
X348Y146D01*
X348Y148D01*
X340Y148D01*
X340Y150D01*
X334Y150D01*
X334Y152D01*
X330Y152D01*
X330Y154D01*
X326Y154D01*
X326Y156D01*
X324Y156D01*
X324Y158D01*
X322Y158D01*
X322Y160D01*
X318Y160D01*
X318Y164D01*
X316Y164D01*
X316Y166D01*
X314Y166D01*
X314Y168D01*
X292Y168D01*
G37*
D02*
G36*
X392Y168D02*
X392Y164D01*
X390Y164D01*
X390Y162D01*
X388Y162D01*
X388Y160D01*
X386Y160D01*
X386Y158D01*
X382Y158D01*
X382Y156D01*
X380Y156D01*
X380Y154D01*
X376Y154D01*
X376Y152D01*
X374Y152D01*
X374Y150D01*
X366Y150D01*
X366Y148D01*
X358Y148D01*
X358Y146D01*
X448Y146D01*
X448Y148D01*
X440Y148D01*
X440Y150D01*
X434Y150D01*
X434Y152D01*
X430Y152D01*
X430Y154D01*
X426Y154D01*
X426Y156D01*
X424Y156D01*
X424Y158D01*
X422Y158D01*
X422Y160D01*
X418Y160D01*
X418Y164D01*
X416Y164D01*
X416Y166D01*
X414Y166D01*
X414Y168D01*
X392Y168D01*
G37*
D02*
G36*
X492Y168D02*
X492Y164D01*
X490Y164D01*
X490Y162D01*
X488Y162D01*
X488Y160D01*
X486Y160D01*
X486Y158D01*
X482Y158D01*
X482Y156D01*
X480Y156D01*
X480Y154D01*
X476Y154D01*
X476Y152D01*
X474Y152D01*
X474Y150D01*
X466Y150D01*
X466Y148D01*
X458Y148D01*
X458Y146D01*
X538Y146D01*
X538Y150D01*
X534Y150D01*
X534Y152D01*
X530Y152D01*
X530Y154D01*
X526Y154D01*
X526Y156D01*
X524Y156D01*
X524Y158D01*
X522Y158D01*
X522Y160D01*
X518Y160D01*
X518Y164D01*
X516Y164D01*
X516Y166D01*
X514Y166D01*
X514Y168D01*
X492Y168D01*
G37*
D02*
G36*
X96Y146D02*
X96Y144D01*
X538Y144D01*
X538Y146D01*
X96Y146D01*
G37*
D02*
G36*
X96Y146D02*
X96Y144D01*
X538Y144D01*
X538Y146D01*
X96Y146D01*
G37*
D02*
G36*
X96Y146D02*
X96Y144D01*
X538Y144D01*
X538Y146D01*
X96Y146D01*
G37*
D02*
G36*
X96Y146D02*
X96Y144D01*
X538Y144D01*
X538Y146D01*
X96Y146D01*
G37*
D02*
G36*
X96Y144D02*
X96Y116D01*
X538Y116D01*
X538Y144D01*
X96Y144D01*
G37*
D02*
G36*
X378Y370D02*
X378Y346D01*
X380Y346D01*
X380Y328D01*
X378Y328D01*
X378Y324D01*
X376Y324D01*
X376Y320D01*
X374Y320D01*
X374Y318D01*
X372Y318D01*
X372Y316D01*
X370Y316D01*
X370Y314D01*
X368Y314D01*
X368Y242D01*
X372Y242D01*
X372Y240D01*
X376Y240D01*
X376Y238D01*
X380Y238D01*
X380Y236D01*
X382Y236D01*
X382Y234D01*
X384Y234D01*
X384Y232D01*
X388Y232D01*
X388Y228D01*
X390Y228D01*
X390Y226D01*
X392Y226D01*
X392Y224D01*
X414Y224D01*
X414Y226D01*
X416Y226D01*
X416Y228D01*
X418Y228D01*
X418Y230D01*
X420Y230D01*
X420Y232D01*
X422Y232D01*
X422Y234D01*
X424Y234D01*
X424Y236D01*
X428Y236D01*
X428Y238D01*
X430Y238D01*
X430Y240D01*
X434Y240D01*
X434Y242D01*
X438Y242D01*
X438Y370D01*
X378Y370D01*
G37*
D02*
G36*
X447Y3002D02*
X460Y3002D01*
X460Y2964D01*
X447Y2964D01*
X447Y3002D01*
G37*
D02*
G36*
X436Y2979D02*
X452Y2979D01*
X452Y2946D01*
X436Y2946D01*
X436Y2979D01*
G37*
D02*
G36*
X651Y2694D02*
X692Y2694D01*
X692Y2662D01*
X651Y2662D01*
X651Y2694D01*
G37*
D02*
G36*
X686Y2729D02*
X720Y2729D01*
X720Y2688D01*
X686Y2688D01*
X686Y2729D01*
G37*
D02*
G36*
X563Y2424D02*
X588Y2424D01*
X588Y2378D01*
X563Y2378D01*
X563Y2424D01*
G37*
D02*
G36*
X544Y2444D02*
X574Y2444D01*
X574Y2405D01*
X544Y2405D01*
X544Y2444D01*
G37*
D02*
G36*
X576Y2444D02*
X608Y2444D01*
X608Y2405D01*
X576Y2405D01*
X576Y2444D01*
G37*
D02*
G36*
X563Y864D02*
X588Y864D01*
X588Y818D01*
X563Y818D01*
X563Y864D01*
G37*
D02*
G36*
X544Y884D02*
X574Y884D01*
X574Y845D01*
X544Y845D01*
X544Y884D01*
G37*
D02*
G36*
X629Y248D02*
X674Y248D01*
X674Y216D01*
X629Y216D01*
X629Y248D01*
G37*
D02*
G36*
X565Y2696D02*
X606Y2696D01*
X606Y2664D01*
X565Y2664D01*
X565Y2696D01*
G37*
D02*
G36*
X319Y2500D02*
X344Y2500D01*
X344Y2474D01*
X319Y2474D01*
X319Y2500D01*
G37*
D02*
G36*
X300Y2519D02*
X324Y2519D01*
X324Y2494D01*
X300Y2494D01*
X300Y2519D01*
G37*
D02*
G36*
X338Y2519D02*
X362Y2519D01*
X362Y2494D01*
X338Y2494D01*
X338Y2519D01*
G37*
D02*
G36*
X443Y1192D02*
X460Y1192D01*
X460Y1156D01*
X443Y1156D01*
X443Y1192D01*
G37*
D02*
G36*
X668Y1794D02*
X711Y1794D01*
X711Y1762D01*
X668Y1762D01*
X668Y1794D01*
G37*
D02*
G36*
X475Y1492D02*
X492Y1492D01*
X492Y1454D01*
X475Y1454D01*
X475Y1492D01*
G37*
D02*
G36*
X239Y1008D02*
X280Y1008D01*
X280Y976D01*
X239Y976D01*
X239Y1008D01*
G37*
D02*
G36*
X212Y1043D02*
X244Y1043D01*
X244Y1002D01*
X212Y1002D01*
X212Y1043D01*
G37*
D02*
G36*
X565Y2524D02*
X590Y2524D01*
X590Y2500D01*
X565Y2500D01*
X565Y2524D01*
G37*
D02*
G36*
X546Y2505D02*
X570Y2505D01*
X570Y2480D01*
X546Y2480D01*
X546Y2505D01*
G37*
D02*
G36*
X628Y1097D02*
X654Y1097D01*
X654Y1072D01*
X628Y1072D01*
X628Y1097D01*
G37*
D02*
G36*
X195Y3033D02*
X195Y3033D01*
X196Y3033D01*
X196Y3033D01*
X195Y3033D01*
G37*
D02*
G36*
X52Y3033D02*
X52Y3032D01*
X52Y3032D01*
X52Y3033D01*
X52Y3033D01*
X52Y3033D01*
X52Y3033D01*
G37*
D02*
G36*
X123Y3060D02*
X123Y3060D01*
X122Y3060D01*
X122Y3059D01*
X125Y3059D01*
X125Y3059D01*
X126Y3059D01*
X126Y3059D01*
X126Y3059D01*
X126Y3058D01*
X127Y3058D01*
X127Y3058D01*
X128Y3058D01*
X128Y3058D01*
X129Y3058D01*
X129Y3057D01*
X130Y3057D01*
X130Y3057D01*
X131Y3057D01*
X131Y3057D01*
X132Y3057D01*
X132Y3057D01*
X132Y3057D01*
X132Y3056D01*
X133Y3056D01*
X133Y3056D01*
X134Y3056D01*
X134Y3056D01*
X135Y3056D01*
X135Y3055D01*
X136Y3055D01*
X136Y3055D01*
X136Y3055D01*
X136Y3055D01*
X137Y3055D01*
X137Y3054D01*
X138Y3054D01*
X138Y3054D01*
X139Y3054D01*
X139Y3054D01*
X140Y3054D01*
X140Y3053D01*
X140Y3053D01*
X140Y3053D01*
X141Y3053D01*
X141Y3053D01*
X142Y3053D01*
X142Y3053D01*
X143Y3053D01*
X143Y3052D01*
X144Y3052D01*
X144Y3052D01*
X144Y3052D01*
X144Y3052D01*
X146Y3052D01*
X146Y3051D01*
X146Y3051D01*
X146Y3051D01*
X147Y3051D01*
X147Y3051D01*
X148Y3051D01*
X148Y3050D01*
X149Y3050D01*
X149Y3050D01*
X150Y3050D01*
X150Y3050D01*
X151Y3050D01*
X151Y3049D01*
X152Y3049D01*
X152Y3049D01*
X152Y3049D01*
X152Y3049D01*
X153Y3049D01*
X153Y3049D01*
X154Y3049D01*
X154Y3048D01*
X155Y3048D01*
X155Y3048D01*
X156Y3048D01*
X156Y3048D01*
X156Y3048D01*
X156Y3047D01*
X157Y3047D01*
X157Y3047D01*
X158Y3047D01*
X158Y3047D01*
X159Y3047D01*
X159Y3046D01*
X160Y3046D01*
X160Y3046D01*
X160Y3046D01*
X160Y3046D01*
X161Y3046D01*
X161Y3045D01*
X162Y3045D01*
X162Y3045D01*
X163Y3045D01*
X163Y3045D01*
X164Y3045D01*
X164Y3045D01*
X165Y3045D01*
X165Y3044D01*
X166Y3044D01*
X166Y3044D01*
X166Y3044D01*
X166Y3044D01*
X167Y3044D01*
X167Y3043D01*
X168Y3043D01*
X168Y3043D01*
X169Y3043D01*
X169Y3043D01*
X170Y3043D01*
X170Y3042D01*
X171Y3042D01*
X171Y3042D01*
X171Y3042D01*
X171Y3042D01*
X172Y3042D01*
X172Y3041D01*
X173Y3041D01*
X173Y3041D01*
X174Y3041D01*
X174Y3041D01*
X175Y3041D01*
X175Y3041D01*
X176Y3041D01*
X176Y3040D01*
X176Y3040D01*
X176Y3040D01*
X177Y3040D01*
X177Y3040D01*
X178Y3040D01*
X178Y3039D01*
X179Y3039D01*
X179Y3039D01*
X180Y3039D01*
X180Y3039D01*
X180Y3039D01*
X180Y3038D01*
X181Y3038D01*
X181Y3038D01*
X182Y3038D01*
X182Y3038D01*
X183Y3038D01*
X183Y3037D01*
X184Y3037D01*
X184Y3037D01*
X185Y3037D01*
X185Y3037D01*
X185Y3037D01*
X185Y3037D01*
X186Y3037D01*
X186Y3036D01*
X187Y3036D01*
X187Y3036D01*
X188Y3036D01*
X188Y3036D01*
X189Y3036D01*
X189Y3035D01*
X190Y3035D01*
X190Y3035D01*
X191Y3035D01*
X191Y3035D01*
X191Y3035D01*
X191Y3034D01*
X192Y3034D01*
X192Y3034D01*
X193Y3034D01*
X193Y3034D01*
X194Y3034D01*
X194Y3034D01*
X193Y3034D01*
X193Y3034D01*
X193Y3034D01*
X193Y3035D01*
X192Y3035D01*
X192Y3035D01*
X191Y3035D01*
X191Y3035D01*
X191Y3035D01*
X191Y3036D01*
X190Y3036D01*
X190Y3036D01*
X189Y3036D01*
X189Y3036D01*
X188Y3036D01*
X188Y3037D01*
X187Y3037D01*
X187Y3037D01*
X186Y3037D01*
X186Y3037D01*
X185Y3037D01*
X185Y3037D01*
X185Y3037D01*
X185Y3038D01*
X184Y3038D01*
X184Y3038D01*
X183Y3038D01*
X183Y3038D01*
X182Y3038D01*
X182Y3039D01*
X181Y3039D01*
X181Y3039D01*
X180Y3039D01*
X180Y3039D01*
X180Y3039D01*
X180Y3040D01*
X179Y3040D01*
X179Y3040D01*
X178Y3040D01*
X178Y3040D01*
X177Y3040D01*
X177Y3041D01*
X176Y3041D01*
X176Y3041D01*
X176Y3041D01*
X176Y3041D01*
X175Y3041D01*
X175Y3041D01*
X174Y3041D01*
X174Y3042D01*
X173Y3042D01*
X173Y3042D01*
X172Y3042D01*
X172Y3042D01*
X171Y3042D01*
X171Y3043D01*
X171Y3043D01*
X171Y3043D01*
X170Y3043D01*
X170Y3043D01*
X169Y3043D01*
X169Y3044D01*
X168Y3044D01*
X168Y3044D01*
X167Y3044D01*
X167Y3044D01*
X166Y3044D01*
X166Y3045D01*
X165Y3045D01*
X165Y3045D01*
X165Y3045D01*
X165Y3045D01*
X164Y3045D01*
X164Y3045D01*
X163Y3045D01*
X163Y3046D01*
X162Y3046D01*
X162Y3046D01*
X161Y3046D01*
X161Y3046D01*
X160Y3046D01*
X160Y3047D01*
X160Y3047D01*
X160Y3047D01*
X159Y3047D01*
X159Y3047D01*
X158Y3047D01*
X158Y3048D01*
X157Y3048D01*
X157Y3048D01*
X156Y3048D01*
X156Y3048D01*
X156Y3048D01*
X156Y3049D01*
X155Y3049D01*
X155Y3049D01*
X154Y3049D01*
X154Y3049D01*
X153Y3049D01*
X153Y3049D01*
X152Y3049D01*
X152Y3050D01*
X151Y3050D01*
X151Y3050D01*
X151Y3050D01*
X151Y3050D01*
X150Y3050D01*
X150Y3051D01*
X149Y3051D01*
X149Y3051D01*
X148Y3051D01*
X148Y3051D01*
X147Y3051D01*
X147Y3052D01*
X146Y3052D01*
X146Y3052D01*
X146Y3052D01*
X146Y3052D01*
X145Y3052D01*
X145Y3053D01*
X144Y3053D01*
X144Y3053D01*
X143Y3053D01*
X143Y3053D01*
X142Y3053D01*
X142Y3053D01*
X141Y3053D01*
X141Y3054D01*
X140Y3054D01*
X140Y3054D01*
X140Y3054D01*
X140Y3054D01*
X139Y3054D01*
X139Y3055D01*
X138Y3055D01*
X138Y3055D01*
X137Y3055D01*
X137Y3055D01*
X136Y3055D01*
X136Y3056D01*
X136Y3056D01*
X136Y3056D01*
X135Y3056D01*
X135Y3056D01*
X134Y3056D01*
X134Y3057D01*
X133Y3057D01*
X133Y3057D01*
X132Y3057D01*
X132Y3057D01*
X132Y3057D01*
X132Y3057D01*
X131Y3057D01*
X131Y3058D01*
X130Y3058D01*
X130Y3058D01*
X129Y3058D01*
X129Y3058D01*
X128Y3058D01*
X128Y3059D01*
X127Y3059D01*
X127Y3059D01*
X126Y3059D01*
X126Y3059D01*
X126Y3059D01*
X126Y3060D01*
X125Y3060D01*
X125Y3060D01*
X123Y3060D01*
G37*
D02*
G36*
X121Y3059D02*
X121Y3059D01*
X120Y3059D01*
X120Y3059D01*
X120Y3059D01*
X120Y3058D01*
X119Y3058D01*
X119Y3058D01*
X118Y3058D01*
X118Y3058D01*
X117Y3058D01*
X117Y3057D01*
X116Y3057D01*
X116Y3057D01*
X115Y3057D01*
X115Y3057D01*
X115Y3057D01*
X115Y3057D01*
X114Y3057D01*
X114Y3056D01*
X113Y3056D01*
X113Y3056D01*
X112Y3056D01*
X112Y3056D01*
X111Y3056D01*
X111Y3055D01*
X110Y3055D01*
X110Y3055D01*
X110Y3055D01*
X110Y3055D01*
X109Y3055D01*
X109Y3054D01*
X108Y3054D01*
X108Y3054D01*
X107Y3054D01*
X107Y3054D01*
X106Y3054D01*
X106Y3053D01*
X105Y3053D01*
X105Y3053D01*
X104Y3053D01*
X104Y3053D01*
X104Y3053D01*
X104Y3053D01*
X103Y3053D01*
X103Y3052D01*
X102Y3052D01*
X102Y3052D01*
X101Y3052D01*
X101Y3052D01*
X100Y3052D01*
X100Y3051D01*
X100Y3051D01*
X100Y3051D01*
X99Y3051D01*
X99Y3051D01*
X98Y3051D01*
X98Y3050D01*
X97Y3050D01*
X97Y3050D01*
X96Y3050D01*
X96Y3050D01*
X96Y3050D01*
X96Y3049D01*
X95Y3049D01*
X95Y3049D01*
X94Y3049D01*
X94Y3049D01*
X93Y3049D01*
X93Y3049D01*
X92Y3049D01*
X92Y3048D01*
X91Y3048D01*
X91Y3048D01*
X90Y3048D01*
X90Y3048D01*
X90Y3048D01*
X90Y3047D01*
X89Y3047D01*
X89Y3047D01*
X88Y3047D01*
X88Y3047D01*
X87Y3047D01*
X87Y3046D01*
X86Y3046D01*
X86Y3046D01*
X85Y3046D01*
X85Y3046D01*
X84Y3046D01*
X84Y3045D01*
X84Y3045D01*
X84Y3045D01*
X83Y3045D01*
X83Y3045D01*
X82Y3045D01*
X82Y3045D01*
X81Y3045D01*
X81Y3044D01*
X80Y3044D01*
X80Y3044D01*
X80Y3044D01*
X80Y3044D01*
X79Y3044D01*
X79Y3043D01*
X78Y3043D01*
X78Y3043D01*
X77Y3043D01*
X77Y3043D01*
X76Y3043D01*
X76Y3042D01*
X76Y3042D01*
X76Y3042D01*
X75Y3042D01*
X75Y3042D01*
X74Y3042D01*
X74Y3041D01*
X73Y3041D01*
X73Y3041D01*
X72Y3041D01*
X72Y3041D01*
X71Y3041D01*
X71Y3041D01*
X70Y3041D01*
X70Y3040D01*
X70Y3040D01*
X70Y3040D01*
X69Y3040D01*
X69Y3040D01*
X68Y3040D01*
X68Y3039D01*
X67Y3039D01*
X67Y3039D01*
X66Y3039D01*
X66Y3039D01*
X65Y3039D01*
X65Y3038D01*
X64Y3038D01*
X64Y3038D01*
X64Y3038D01*
X64Y3038D01*
X63Y3038D01*
X63Y3037D01*
X62Y3037D01*
X62Y3037D01*
X61Y3037D01*
X61Y3037D01*
X60Y3037D01*
X60Y3037D01*
X60Y3037D01*
X60Y3036D01*
X59Y3036D01*
X59Y3036D01*
X58Y3036D01*
X58Y3036D01*
X57Y3036D01*
X57Y3035D01*
X56Y3035D01*
X56Y3035D01*
X56Y3035D01*
X56Y3035D01*
X55Y3035D01*
X55Y3034D01*
X54Y3034D01*
X54Y3034D01*
X53Y3034D01*
X53Y3034D01*
X53Y3034D01*
X53Y3033D01*
X54Y3033D01*
X54Y3034D01*
X55Y3034D01*
X55Y3034D01*
X56Y3034D01*
X56Y3034D01*
X56Y3034D01*
X56Y3035D01*
X57Y3035D01*
X57Y3035D01*
X58Y3035D01*
X58Y3035D01*
X59Y3035D01*
X59Y3036D01*
X60Y3036D01*
X60Y3036D01*
X60Y3036D01*
X60Y3036D01*
X61Y3036D01*
X61Y3037D01*
X62Y3037D01*
X62Y3037D01*
X63Y3037D01*
X63Y3037D01*
X64Y3037D01*
X64Y3037D01*
X64Y3037D01*
X64Y3038D01*
X65Y3038D01*
X65Y3038D01*
X66Y3038D01*
X66Y3038D01*
X67Y3038D01*
X67Y3039D01*
X68Y3039D01*
X68Y3039D01*
X69Y3039D01*
X69Y3039D01*
X70Y3039D01*
X70Y3040D01*
X70Y3040D01*
X70Y3040D01*
X71Y3040D01*
X71Y3040D01*
X72Y3040D01*
X72Y3041D01*
X73Y3041D01*
X73Y3041D01*
X74Y3041D01*
X74Y3041D01*
X75Y3041D01*
X75Y3041D01*
X76Y3041D01*
X76Y3042D01*
X76Y3042D01*
X76Y3042D01*
X77Y3042D01*
X77Y3042D01*
X78Y3042D01*
X78Y3043D01*
X79Y3043D01*
X79Y3043D01*
X80Y3043D01*
X80Y3043D01*
X80Y3043D01*
X80Y3044D01*
X81Y3044D01*
X81Y3044D01*
X82Y3044D01*
X82Y3044D01*
X83Y3044D01*
X83Y3045D01*
X84Y3045D01*
X84Y3045D01*
X84Y3045D01*
X84Y3045D01*
X85Y3045D01*
X85Y3045D01*
X86Y3045D01*
X86Y3046D01*
X87Y3046D01*
X87Y3046D01*
X88Y3046D01*
X88Y3046D01*
X89Y3046D01*
X89Y3047D01*
X90Y3047D01*
X90Y3047D01*
X90Y3047D01*
X90Y3047D01*
X91Y3047D01*
X91Y3048D01*
X92Y3048D01*
X92Y3048D01*
X93Y3048D01*
X93Y3048D01*
X94Y3048D01*
X94Y3049D01*
X95Y3049D01*
X95Y3049D01*
X95Y3049D01*
X95Y3049D01*
X96Y3049D01*
X96Y3049D01*
X97Y3049D01*
X97Y3050D01*
X98Y3050D01*
X98Y3050D01*
X99Y3050D01*
X99Y3050D01*
X100Y3050D01*
X100Y3051D01*
X100Y3051D01*
X100Y3051D01*
X101Y3051D01*
X101Y3051D01*
X102Y3051D01*
X102Y3052D01*
X103Y3052D01*
X103Y3052D01*
X104Y3052D01*
X104Y3052D01*
X104Y3052D01*
X104Y3053D01*
X105Y3053D01*
X105Y3053D01*
X106Y3053D01*
X106Y3053D01*
X107Y3053D01*
X107Y3053D01*
X108Y3053D01*
X108Y3054D01*
X109Y3054D01*
X109Y3054D01*
X109Y3054D01*
X109Y3054D01*
X110Y3054D01*
X110Y3055D01*
X111Y3055D01*
X111Y3055D01*
X112Y3055D01*
X112Y3055D01*
X113Y3055D01*
X113Y3056D01*
X114Y3056D01*
X114Y3056D01*
X115Y3056D01*
X115Y3056D01*
X115Y3056D01*
X115Y3057D01*
X116Y3057D01*
X116Y3057D01*
X117Y3057D01*
X117Y3057D01*
X118Y3057D01*
X118Y3057D01*
X119Y3057D01*
X119Y3058D01*
X120Y3058D01*
X120Y3058D01*
X120Y3058D01*
X120Y3058D01*
X121Y3058D01*
X121Y3059D01*
X122Y3059D01*
X122Y3059D01*
X123Y3059D01*
X123Y3059D01*
X121Y3059D01*
G37*
D02*
G36*
X143Y3052D02*
X143Y3051D01*
X142Y3051D01*
X142Y3051D01*
X141Y3051D01*
X141Y3051D01*
X140Y3051D01*
X140Y3050D01*
X140Y3050D01*
X140Y3050D01*
X139Y3050D01*
X139Y3050D01*
X138Y3050D01*
X138Y3049D01*
X138Y3049D01*
X138Y3049D01*
X137Y3049D01*
X137Y3049D01*
X136Y3049D01*
X136Y3049D01*
X136Y3049D01*
X136Y3048D01*
X135Y3048D01*
X135Y3048D01*
X134Y3048D01*
X134Y3048D01*
X133Y3048D01*
X133Y3047D01*
X132Y3047D01*
X132Y3047D01*
X132Y3047D01*
X132Y3047D01*
X131Y3047D01*
X131Y3046D01*
X130Y3046D01*
X130Y3046D01*
X129Y3046D01*
X129Y3046D01*
X129Y3046D01*
X129Y3045D01*
X128Y3045D01*
X128Y3045D01*
X127Y3045D01*
X127Y3045D01*
X127Y3045D01*
X127Y3045D01*
X126Y3045D01*
X126Y3044D01*
X125Y3044D01*
X125Y3044D01*
X124Y3044D01*
X124Y3044D01*
X124Y3044D01*
X124Y3043D01*
X123Y3043D01*
X123Y3043D01*
X122Y3043D01*
X122Y3043D01*
X121Y3043D01*
X121Y3042D01*
X120Y3042D01*
X120Y3042D01*
X120Y3042D01*
X120Y3042D01*
X119Y3042D01*
X119Y3041D01*
X119Y3041D01*
X119Y3041D01*
X118Y3041D01*
X118Y3041D01*
X117Y3041D01*
X117Y3041D01*
X116Y3041D01*
X116Y3040D01*
X116Y3040D01*
X116Y3040D01*
X115Y3040D01*
X115Y3040D01*
X114Y3040D01*
X114Y3039D01*
X113Y3039D01*
X113Y3039D01*
X112Y3039D01*
X112Y3039D01*
X112Y3039D01*
X112Y3038D01*
X111Y3038D01*
X111Y3038D01*
X110Y3038D01*
X110Y3038D01*
X110Y3038D01*
X110Y3037D01*
X109Y3037D01*
X109Y3037D01*
X108Y3037D01*
X108Y3037D01*
X108Y3037D01*
X108Y3037D01*
X107Y3037D01*
X107Y3036D01*
X106Y3036D01*
X106Y3036D01*
X105Y3036D01*
X105Y3036D01*
X104Y3036D01*
X104Y3035D01*
X104Y3035D01*
X104Y3035D01*
X103Y3035D01*
X103Y3035D01*
X102Y3035D01*
X102Y3034D01*
X102Y3034D01*
X102Y3034D01*
X101Y3034D01*
X101Y3034D01*
X100Y3034D01*
X100Y3033D01*
X99Y3033D01*
X99Y3033D01*
X99Y3033D01*
X99Y3033D01*
X98Y3033D01*
X98Y3033D01*
X97Y3033D01*
X97Y3032D01*
X96Y3032D01*
X96Y3032D01*
X96Y3032D01*
X96Y3032D01*
X95Y3032D01*
X95Y3031D01*
X94Y3031D01*
X94Y3031D01*
X93Y3031D01*
X93Y3031D01*
X93Y3031D01*
X93Y3030D01*
X92Y3030D01*
X92Y3030D01*
X91Y3030D01*
X91Y3030D01*
X91Y3030D01*
X91Y3029D01*
X90Y3029D01*
X90Y3029D01*
X89Y3029D01*
X89Y3029D01*
X88Y3029D01*
X88Y3029D01*
X88Y3029D01*
X88Y3028D01*
X87Y3028D01*
X87Y3028D01*
X86Y3028D01*
X86Y3028D01*
X85Y3028D01*
X85Y3027D01*
X84Y3027D01*
X84Y3027D01*
X84Y3027D01*
X84Y3027D01*
X83Y3027D01*
X83Y3026D01*
X82Y3026D01*
X82Y3026D01*
X82Y3026D01*
X82Y3026D01*
X81Y3026D01*
X81Y3025D01*
X80Y3025D01*
X80Y3025D01*
X79Y3025D01*
X79Y3025D01*
X79Y3025D01*
X79Y3025D01*
X78Y3025D01*
X78Y3024D01*
X77Y3024D01*
X77Y3024D01*
X76Y3024D01*
X76Y3024D01*
X76Y3024D01*
X76Y3023D01*
X75Y3023D01*
X75Y3023D01*
X74Y3023D01*
X74Y3023D01*
X73Y3023D01*
X73Y3022D01*
X73Y3022D01*
X73Y3022D01*
X74Y3022D01*
X74Y3022D01*
X75Y3022D01*
X75Y3023D01*
X76Y3023D01*
X76Y3023D01*
X76Y3023D01*
X76Y3023D01*
X77Y3023D01*
X77Y3024D01*
X78Y3024D01*
X78Y3024D01*
X79Y3024D01*
X79Y3024D01*
X80Y3024D01*
X80Y3025D01*
X80Y3025D01*
X80Y3025D01*
X81Y3025D01*
X81Y3025D01*
X82Y3025D01*
X82Y3025D01*
X82Y3025D01*
X82Y3026D01*
X83Y3026D01*
X83Y3026D01*
X84Y3026D01*
X84Y3026D01*
X84Y3026D01*
X84Y3027D01*
X85Y3027D01*
X85Y3027D01*
X86Y3027D01*
X86Y3027D01*
X87Y3027D01*
X87Y3028D01*
X88Y3028D01*
X88Y3028D01*
X88Y3028D01*
X88Y3028D01*
X89Y3028D01*
X89Y3029D01*
X90Y3029D01*
X90Y3029D01*
X91Y3029D01*
X91Y3029D01*
X91Y3029D01*
X91Y3029D01*
X92Y3029D01*
X92Y3030D01*
X93Y3030D01*
X93Y3030D01*
X93Y3030D01*
X93Y3030D01*
X94Y3030D01*
X94Y3031D01*
X95Y3031D01*
X95Y3031D01*
X96Y3031D01*
X96Y3031D01*
X96Y3031D01*
X96Y3032D01*
X97Y3032D01*
X97Y3032D01*
X98Y3032D01*
X98Y3032D01*
X99Y3032D01*
X99Y3033D01*
X99Y3033D01*
X99Y3033D01*
X100Y3033D01*
X100Y3033D01*
X101Y3033D01*
X101Y3033D01*
X102Y3033D01*
X102Y3034D01*
X102Y3034D01*
X102Y3034D01*
X103Y3034D01*
X103Y3034D01*
X104Y3034D01*
X104Y3035D01*
X104Y3035D01*
X104Y3035D01*
X105Y3035D01*
X105Y3035D01*
X106Y3035D01*
X106Y3036D01*
X107Y3036D01*
X107Y3036D01*
X108Y3036D01*
X108Y3036D01*
X108Y3036D01*
X108Y3037D01*
X109Y3037D01*
X109Y3037D01*
X110Y3037D01*
X110Y3037D01*
X110Y3037D01*
X110Y3037D01*
X111Y3037D01*
X111Y3038D01*
X112Y3038D01*
X112Y3038D01*
X112Y3038D01*
X112Y3038D01*
X113Y3038D01*
X113Y3039D01*
X114Y3039D01*
X114Y3039D01*
X115Y3039D01*
X115Y3039D01*
X116Y3039D01*
X116Y3040D01*
X116Y3040D01*
X116Y3040D01*
X117Y3040D01*
X117Y3040D01*
X118Y3040D01*
X118Y3041D01*
X119Y3041D01*
X119Y3041D01*
X119Y3041D01*
X119Y3041D01*
X120Y3041D01*
X120Y3041D01*
X121Y3041D01*
X121Y3042D01*
X121Y3042D01*
X121Y3042D01*
X122Y3042D01*
X122Y3042D01*
X123Y3042D01*
X123Y3043D01*
X124Y3043D01*
X124Y3043D01*
X124Y3043D01*
X124Y3043D01*
X125Y3043D01*
X125Y3044D01*
X126Y3044D01*
X126Y3044D01*
X127Y3044D01*
X127Y3044D01*
X127Y3044D01*
X127Y3045D01*
X128Y3045D01*
X128Y3045D01*
X129Y3045D01*
X129Y3045D01*
X129Y3045D01*
X129Y3045D01*
X130Y3045D01*
X130Y3046D01*
X131Y3046D01*
X131Y3046D01*
X132Y3046D01*
X132Y3046D01*
X132Y3046D01*
X132Y3047D01*
X133Y3047D01*
X133Y3047D01*
X134Y3047D01*
X134Y3047D01*
X135Y3047D01*
X135Y3048D01*
X136Y3048D01*
X136Y3048D01*
X136Y3048D01*
X136Y3048D01*
X137Y3048D01*
X137Y3049D01*
X138Y3049D01*
X138Y3049D01*
X138Y3049D01*
X138Y3049D01*
X139Y3049D01*
X139Y3049D01*
X140Y3049D01*
X140Y3050D01*
X140Y3050D01*
X140Y3050D01*
X141Y3050D01*
X141Y3050D01*
X142Y3050D01*
X142Y3051D01*
X143Y3051D01*
X143Y3051D01*
X144Y3051D01*
X144Y3051D01*
X144Y3051D01*
X144Y3052D01*
X143Y3052D01*
G37*
D02*
G36*
X167Y3043D02*
X167Y3043D01*
X167Y3043D01*
X167Y3042D01*
X166Y3042D01*
X166Y3042D01*
X165Y3042D01*
X165Y3042D01*
X165Y3042D01*
X165Y3041D01*
X164Y3041D01*
X164Y3041D01*
X164Y3041D01*
X164Y3041D01*
X163Y3041D01*
X163Y3041D01*
X162Y3041D01*
X162Y3040D01*
X161Y3040D01*
X161Y3040D01*
X161Y3040D01*
X161Y3040D01*
X160Y3040D01*
X160Y3039D01*
X160Y3039D01*
X160Y3039D01*
X159Y3039D01*
X159Y3039D01*
X158Y3039D01*
X158Y3038D01*
X158Y3038D01*
X158Y3038D01*
X157Y3038D01*
X157Y3038D01*
X156Y3038D01*
X156Y3037D01*
X156Y3037D01*
X156Y3037D01*
X155Y3037D01*
X155Y3037D01*
X154Y3037D01*
X154Y3037D01*
X154Y3037D01*
X154Y3036D01*
X153Y3036D01*
X153Y3036D01*
X152Y3036D01*
X152Y3036D01*
X152Y3036D01*
X152Y3035D01*
X151Y3035D01*
X151Y3035D01*
X151Y3035D01*
X151Y3035D01*
X150Y3035D01*
X150Y3034D01*
X149Y3034D01*
X149Y3034D01*
X149Y3034D01*
X149Y3034D01*
X148Y3034D01*
X148Y3033D01*
X148Y3033D01*
X148Y3033D01*
X147Y3033D01*
X147Y3033D01*
X146Y3033D01*
X146Y3033D01*
X145Y3033D01*
X145Y3032D01*
X145Y3032D01*
X145Y3032D01*
X144Y3032D01*
X144Y3032D01*
X144Y3032D01*
X144Y3031D01*
X143Y3031D01*
X143Y3031D01*
X142Y3031D01*
X142Y3031D01*
X142Y3031D01*
X142Y3030D01*
X141Y3030D01*
X141Y3030D01*
X140Y3030D01*
X140Y3030D01*
X140Y3030D01*
X140Y3029D01*
X139Y3029D01*
X139Y3029D01*
X138Y3029D01*
X138Y3029D01*
X138Y3029D01*
X138Y3029D01*
X137Y3029D01*
X137Y3028D01*
X136Y3028D01*
X136Y3028D01*
X136Y3028D01*
X136Y3028D01*
X135Y3028D01*
X135Y3027D01*
X135Y3027D01*
X135Y3027D01*
X134Y3027D01*
X134Y3027D01*
X133Y3027D01*
X133Y3026D01*
X133Y3026D01*
X133Y3026D01*
X132Y3026D01*
X132Y3026D01*
X132Y3026D01*
X132Y3025D01*
X131Y3025D01*
X131Y3025D01*
X130Y3025D01*
X130Y3025D01*
X129Y3025D01*
X129Y3025D01*
X129Y3025D01*
X129Y3024D01*
X128Y3024D01*
X128Y3024D01*
X128Y3024D01*
X128Y3024D01*
X127Y3024D01*
X127Y3023D01*
X126Y3023D01*
X126Y3023D01*
X126Y3023D01*
X126Y3023D01*
X125Y3023D01*
X125Y3022D01*
X124Y3022D01*
X124Y3022D01*
X124Y3022D01*
X124Y3022D01*
X123Y3022D01*
X123Y3021D01*
X122Y3021D01*
X122Y3021D01*
X122Y3021D01*
X122Y3021D01*
X121Y3021D01*
X121Y3021D01*
X120Y3021D01*
X120Y3020D01*
X120Y3020D01*
X120Y3020D01*
X119Y3020D01*
X119Y3020D01*
X119Y3020D01*
X119Y3019D01*
X118Y3019D01*
X118Y3019D01*
X117Y3019D01*
X117Y3019D01*
X117Y3019D01*
X117Y3018D01*
X116Y3018D01*
X116Y3018D01*
X116Y3018D01*
X116Y3018D01*
X115Y3018D01*
X115Y3017D01*
X114Y3017D01*
X114Y3017D01*
X113Y3017D01*
X113Y3017D01*
X113Y3017D01*
X113Y3017D01*
X112Y3017D01*
X112Y3016D01*
X112Y3016D01*
X112Y3016D01*
X111Y3016D01*
X111Y3016D01*
X110Y3016D01*
X110Y3015D01*
X110Y3015D01*
X110Y3015D01*
X109Y3015D01*
X109Y3015D01*
X108Y3015D01*
X108Y3014D01*
X108Y3014D01*
X108Y3014D01*
X107Y3014D01*
X107Y3014D01*
X106Y3014D01*
X106Y3013D01*
X106Y3013D01*
X106Y3013D01*
X105Y3013D01*
X105Y3013D01*
X104Y3013D01*
X104Y3013D01*
X104Y3013D01*
X104Y3012D01*
X103Y3012D01*
X103Y3012D01*
X103Y3012D01*
X103Y3012D01*
X102Y3012D01*
X102Y3011D01*
X101Y3011D01*
X101Y3011D01*
X101Y3011D01*
X101Y3011D01*
X100Y3011D01*
X100Y3010D01*
X99Y3010D01*
X99Y3010D01*
X99Y3010D01*
X99Y3010D01*
X98Y3010D01*
X98Y3009D01*
X97Y3009D01*
X97Y3009D01*
X97Y3009D01*
X97Y3009D01*
X96Y3009D01*
X96Y3009D01*
X97Y3009D01*
X97Y3009D01*
X98Y3009D01*
X98Y3009D01*
X99Y3009D01*
X99Y3009D01*
X100Y3009D01*
X100Y3010D01*
X100Y3010D01*
X100Y3010D01*
X101Y3010D01*
X101Y3010D01*
X101Y3010D01*
X101Y3011D01*
X102Y3011D01*
X102Y3011D01*
X103Y3011D01*
X103Y3011D01*
X103Y3011D01*
X103Y3012D01*
X104Y3012D01*
X104Y3012D01*
X104Y3012D01*
X104Y3012D01*
X105Y3012D01*
X105Y3013D01*
X106Y3013D01*
X106Y3013D01*
X106Y3013D01*
X106Y3013D01*
X107Y3013D01*
X107Y3013D01*
X108Y3013D01*
X108Y3014D01*
X108Y3014D01*
X108Y3014D01*
X109Y3014D01*
X109Y3014D01*
X110Y3014D01*
X110Y3015D01*
X110Y3015D01*
X110Y3015D01*
X111Y3015D01*
X111Y3015D01*
X112Y3015D01*
X112Y3016D01*
X112Y3016D01*
X112Y3016D01*
X113Y3016D01*
X113Y3016D01*
X113Y3016D01*
X113Y3017D01*
X114Y3017D01*
X114Y3017D01*
X115Y3017D01*
X115Y3017D01*
X116Y3017D01*
X116Y3017D01*
X116Y3017D01*
X116Y3018D01*
X117Y3018D01*
X117Y3018D01*
X117Y3018D01*
X117Y3018D01*
X118Y3018D01*
X118Y3019D01*
X119Y3019D01*
X119Y3019D01*
X119Y3019D01*
X119Y3019D01*
X120Y3019D01*
X120Y3020D01*
X120Y3020D01*
X120Y3020D01*
X121Y3020D01*
X121Y3020D01*
X122Y3020D01*
X122Y3021D01*
X122Y3021D01*
X122Y3021D01*
X123Y3021D01*
X123Y3021D01*
X124Y3021D01*
X124Y3021D01*
X124Y3021D01*
X124Y3022D01*
X125Y3022D01*
X125Y3022D01*
X126Y3022D01*
X126Y3022D01*
X126Y3022D01*
X126Y3023D01*
X127Y3023D01*
X127Y3023D01*
X128Y3023D01*
X128Y3023D01*
X128Y3023D01*
X128Y3024D01*
X129Y3024D01*
X129Y3024D01*
X129Y3024D01*
X129Y3024D01*
X130Y3024D01*
X130Y3025D01*
X131Y3025D01*
X131Y3025D01*
X132Y3025D01*
X132Y3025D01*
X132Y3025D01*
X132Y3025D01*
X133Y3025D01*
X133Y3026D01*
X133Y3026D01*
X133Y3026D01*
X134Y3026D01*
X134Y3026D01*
X135Y3026D01*
X135Y3027D01*
X135Y3027D01*
X135Y3027D01*
X136Y3027D01*
X136Y3027D01*
X136Y3027D01*
X136Y3028D01*
X137Y3028D01*
X137Y3028D01*
X138Y3028D01*
X138Y3028D01*
X138Y3028D01*
X138Y3029D01*
X139Y3029D01*
X139Y3029D01*
X140Y3029D01*
X140Y3029D01*
X140Y3029D01*
X140Y3029D01*
X141Y3029D01*
X141Y3030D01*
X142Y3030D01*
X142Y3030D01*
X142Y3030D01*
X142Y3030D01*
X143Y3030D01*
X143Y3031D01*
X144Y3031D01*
X144Y3031D01*
X144Y3031D01*
X144Y3031D01*
X145Y3031D01*
X145Y3032D01*
X145Y3032D01*
X145Y3032D01*
X146Y3032D01*
X146Y3032D01*
X147Y3032D01*
X147Y3033D01*
X148Y3033D01*
X148Y3033D01*
X148Y3033D01*
X148Y3033D01*
X149Y3033D01*
X149Y3033D01*
X149Y3033D01*
X149Y3034D01*
X150Y3034D01*
X150Y3034D01*
X151Y3034D01*
X151Y3034D01*
X151Y3034D01*
X151Y3035D01*
X152Y3035D01*
X152Y3035D01*
X152Y3035D01*
X152Y3035D01*
X153Y3035D01*
X153Y3036D01*
X154Y3036D01*
X154Y3036D01*
X154Y3036D01*
X154Y3036D01*
X155Y3036D01*
X155Y3037D01*
X156Y3037D01*
X156Y3037D01*
X156Y3037D01*
X156Y3037D01*
X157Y3037D01*
X157Y3037D01*
X158Y3037D01*
X158Y3038D01*
X158Y3038D01*
X158Y3038D01*
X159Y3038D01*
X159Y3038D01*
X160Y3038D01*
X160Y3039D01*
X160Y3039D01*
X160Y3039D01*
X161Y3039D01*
X161Y3039D01*
X161Y3039D01*
X161Y3040D01*
X162Y3040D01*
X162Y3040D01*
X163Y3040D01*
X163Y3040D01*
X164Y3040D01*
X164Y3041D01*
X164Y3041D01*
X164Y3041D01*
X165Y3041D01*
X165Y3041D01*
X165Y3041D01*
X165Y3041D01*
X166Y3041D01*
X166Y3042D01*
X167Y3042D01*
X167Y3042D01*
X167Y3042D01*
X167Y3042D01*
X168Y3042D01*
X168Y3043D01*
X168Y3043D01*
X168Y3043D01*
X167Y3043D01*
G37*
D02*
G36*
X53Y3033D02*
X53Y3032D01*
X53Y3032D01*
X53Y3032D01*
X54Y3032D01*
X54Y3032D01*
X54Y3032D01*
X54Y3031D01*
X55Y3031D01*
X55Y3031D01*
X55Y3031D01*
X55Y3031D01*
X56Y3031D01*
X56Y3030D01*
X56Y3030D01*
X56Y3030D01*
X57Y3030D01*
X57Y3030D01*
X58Y3030D01*
X58Y3029D01*
X58Y3029D01*
X58Y3029D01*
X59Y3029D01*
X59Y3029D01*
X59Y3029D01*
X59Y3029D01*
X60Y3029D01*
X60Y3028D01*
X60Y3028D01*
X60Y3028D01*
X61Y3028D01*
X61Y3028D01*
X61Y3028D01*
X61Y3027D01*
X62Y3027D01*
X62Y3027D01*
X62Y3027D01*
X62Y3027D01*
X63Y3027D01*
X63Y3026D01*
X64Y3026D01*
X64Y3026D01*
X64Y3026D01*
X64Y3026D01*
X64Y3026D01*
X64Y3025D01*
X65Y3025D01*
X65Y3025D01*
X66Y3025D01*
X66Y3025D01*
X66Y3025D01*
X66Y3025D01*
X67Y3025D01*
X67Y3024D01*
X67Y3024D01*
X67Y3024D01*
X68Y3024D01*
X68Y3024D01*
X68Y3024D01*
X68Y3023D01*
X69Y3023D01*
X69Y3023D01*
X69Y3023D01*
X69Y3023D01*
X70Y3023D01*
X70Y3022D01*
X71Y3022D01*
X71Y3022D01*
X72Y3022D01*
X72Y3022D01*
X71Y3022D01*
X71Y3023D01*
X71Y3023D01*
X71Y3023D01*
X70Y3023D01*
X70Y3023D01*
X70Y3023D01*
X70Y3024D01*
X69Y3024D01*
X69Y3024D01*
X68Y3024D01*
X68Y3024D01*
X68Y3024D01*
X68Y3025D01*
X67Y3025D01*
X67Y3025D01*
X67Y3025D01*
X67Y3025D01*
X66Y3025D01*
X66Y3025D01*
X66Y3025D01*
X66Y3026D01*
X65Y3026D01*
X65Y3026D01*
X65Y3026D01*
X65Y3026D01*
X64Y3026D01*
X64Y3027D01*
X64Y3027D01*
X64Y3027D01*
X63Y3027D01*
X63Y3027D01*
X63Y3027D01*
X63Y3028D01*
X62Y3028D01*
X62Y3028D01*
X61Y3028D01*
X61Y3028D01*
X61Y3028D01*
X61Y3029D01*
X60Y3029D01*
X60Y3029D01*
X60Y3029D01*
X60Y3029D01*
X59Y3029D01*
X59Y3029D01*
X59Y3029D01*
X59Y3030D01*
X58Y3030D01*
X58Y3030D01*
X58Y3030D01*
X58Y3030D01*
X57Y3030D01*
X57Y3031D01*
X56Y3031D01*
X56Y3031D01*
X56Y3031D01*
X56Y3031D01*
X56Y3031D01*
X56Y3032D01*
X55Y3032D01*
X55Y3032D01*
X54Y3032D01*
X54Y3032D01*
X54Y3032D01*
X54Y3033D01*
X53Y3033D01*
X53Y3033D01*
X53Y3033D01*
G37*
D02*
G36*
X193Y3032D02*
X193Y3032D01*
X193Y3032D01*
X193Y3032D01*
X192Y3032D01*
X192Y3031D01*
X192Y3031D01*
X192Y3031D01*
X191Y3031D01*
X191Y3031D01*
X191Y3031D01*
X191Y3030D01*
X190Y3030D01*
X190Y3030D01*
X189Y3030D01*
X189Y3030D01*
X189Y3030D01*
X189Y3029D01*
X188Y3029D01*
X188Y3029D01*
X188Y3029D01*
X188Y3029D01*
X187Y3029D01*
X187Y3029D01*
X187Y3029D01*
X187Y3028D01*
X186Y3028D01*
X186Y3028D01*
X186Y3028D01*
X186Y3028D01*
X185Y3028D01*
X185Y3027D01*
X184Y3027D01*
X184Y3027D01*
X184Y3027D01*
X184Y3027D01*
X184Y3027D01*
X184Y3026D01*
X183Y3026D01*
X183Y3026D01*
X182Y3026D01*
X182Y3026D01*
X182Y3026D01*
X182Y3025D01*
X181Y3025D01*
X181Y3025D01*
X181Y3025D01*
X181Y3025D01*
X180Y3025D01*
X180Y3025D01*
X180Y3025D01*
X180Y3024D01*
X179Y3024D01*
X179Y3024D01*
X179Y3024D01*
X179Y3024D01*
X178Y3024D01*
X178Y3023D01*
X177Y3023D01*
X177Y3023D01*
X177Y3023D01*
X177Y3023D01*
X176Y3023D01*
X176Y3022D01*
X176Y3022D01*
X176Y3022D01*
X175Y3022D01*
X175Y3022D01*
X175Y3022D01*
X175Y3021D01*
X174Y3021D01*
X174Y3021D01*
X174Y3021D01*
X174Y3021D01*
X173Y3021D01*
X173Y3021D01*
X172Y3021D01*
X172Y3020D01*
X172Y3020D01*
X172Y3020D01*
X172Y3020D01*
X172Y3020D01*
X171Y3020D01*
X171Y3019D01*
X170Y3019D01*
X170Y3019D01*
X170Y3019D01*
X170Y3019D01*
X169Y3019D01*
X169Y3018D01*
X169Y3018D01*
X169Y3018D01*
X168Y3018D01*
X168Y3018D01*
X168Y3018D01*
X168Y3017D01*
X167Y3017D01*
X167Y3017D01*
X167Y3017D01*
X167Y3017D01*
X166Y3017D01*
X166Y3017D01*
X165Y3017D01*
X165Y3016D01*
X165Y3016D01*
X165Y3016D01*
X164Y3016D01*
X164Y3016D01*
X164Y3016D01*
X164Y3015D01*
X163Y3015D01*
X163Y3015D01*
X163Y3015D01*
X163Y3015D01*
X162Y3015D01*
X162Y3014D01*
X162Y3014D01*
X162Y3014D01*
X161Y3014D01*
X161Y3014D01*
X161Y3014D01*
X161Y3013D01*
X160Y3013D01*
X160Y3013D01*
X160Y3013D01*
X160Y3013D01*
X159Y3013D01*
X159Y3013D01*
X159Y3013D01*
X159Y3012D01*
X158Y3012D01*
X158Y3012D01*
X157Y3012D01*
X157Y3012D01*
X157Y3012D01*
X157Y3011D01*
X156Y3011D01*
X156Y3011D01*
X156Y3011D01*
X156Y3011D01*
X155Y3011D01*
X155Y3010D01*
X155Y3010D01*
X155Y3010D01*
X154Y3010D01*
X154Y3010D01*
X154Y3010D01*
X154Y3009D01*
X153Y3009D01*
X153Y3009D01*
X152Y3009D01*
X152Y3009D01*
X152Y3009D01*
X152Y3009D01*
X152Y3009D01*
X152Y3008D01*
X151Y3008D01*
X151Y3008D01*
X150Y3008D01*
X150Y3008D01*
X150Y3008D01*
X150Y3007D01*
X149Y3007D01*
X149Y3007D01*
X149Y3007D01*
X149Y3007D01*
X148Y3007D01*
X148Y3006D01*
X148Y3006D01*
X148Y3006D01*
X147Y3006D01*
X147Y3006D01*
X147Y3006D01*
X147Y3005D01*
X146Y3005D01*
X146Y3005D01*
X145Y3005D01*
X145Y3005D01*
X145Y3005D01*
X145Y3005D01*
X144Y3005D01*
X144Y3004D01*
X144Y3004D01*
X144Y3004D01*
X143Y3004D01*
X143Y3004D01*
X143Y3004D01*
X143Y3003D01*
X142Y3003D01*
X142Y3003D01*
X142Y3003D01*
X142Y3003D01*
X141Y3003D01*
X141Y3002D01*
X140Y3002D01*
X140Y3002D01*
X140Y3002D01*
X140Y3002D01*
X140Y3002D01*
X140Y3001D01*
X139Y3001D01*
X139Y3001D01*
X138Y3001D01*
X138Y3001D01*
X138Y3001D01*
X138Y3001D01*
X137Y3001D01*
X137Y3000D01*
X137Y3000D01*
X137Y3000D01*
X136Y3000D01*
X136Y3000D01*
X136Y3000D01*
X136Y2999D01*
X135Y2999D01*
X135Y2999D01*
X135Y2999D01*
X135Y2999D01*
X134Y2999D01*
X134Y2998D01*
X133Y2998D01*
X133Y2998D01*
X133Y2998D01*
X133Y2998D01*
X132Y2998D01*
X132Y2997D01*
X132Y2997D01*
X132Y2997D01*
X131Y2997D01*
X131Y2997D01*
X131Y2997D01*
X131Y2997D01*
X130Y2997D01*
X130Y2996D01*
X130Y2996D01*
X130Y2996D01*
X129Y2996D01*
X129Y2996D01*
X128Y2996D01*
X128Y2995D01*
X128Y2995D01*
X128Y2995D01*
X128Y2995D01*
X128Y2995D01*
X127Y2995D01*
X127Y2994D01*
X126Y2994D01*
X126Y2994D01*
X126Y2994D01*
X126Y2994D01*
X125Y2994D01*
X125Y2993D01*
X125Y2993D01*
X125Y2993D01*
X124Y2993D01*
X124Y2993D01*
X125Y2993D01*
X125Y2993D01*
X126Y2993D01*
X126Y2993D01*
X126Y2993D01*
X126Y2994D01*
X127Y2994D01*
X127Y2994D01*
X128Y2994D01*
X128Y2994D01*
X128Y2994D01*
X128Y2995D01*
X128Y2995D01*
X128Y2995D01*
X129Y2995D01*
X129Y2995D01*
X130Y2995D01*
X130Y2996D01*
X130Y2996D01*
X130Y2996D01*
X131Y2996D01*
X131Y2996D01*
X131Y2996D01*
X131Y2997D01*
X132Y2997D01*
X132Y2997D01*
X132Y2997D01*
X132Y2997D01*
X133Y2997D01*
X133Y2997D01*
X133Y2997D01*
X133Y2998D01*
X134Y2998D01*
X134Y2998D01*
X135Y2998D01*
X135Y2998D01*
X135Y2998D01*
X135Y2999D01*
X136Y2999D01*
X136Y2999D01*
X136Y2999D01*
X136Y2999D01*
X137Y2999D01*
X137Y3000D01*
X137Y3000D01*
X137Y3000D01*
X138Y3000D01*
X138Y3000D01*
X138Y3000D01*
X138Y3001D01*
X139Y3001D01*
X139Y3001D01*
X140Y3001D01*
X140Y3001D01*
X140Y3001D01*
X140Y3001D01*
X140Y3001D01*
X140Y3002D01*
X141Y3002D01*
X141Y3002D01*
X142Y3002D01*
X142Y3002D01*
X142Y3002D01*
X142Y3003D01*
X143Y3003D01*
X143Y3003D01*
X143Y3003D01*
X143Y3003D01*
X144Y3003D01*
X144Y3004D01*
X144Y3004D01*
X144Y3004D01*
X145Y3004D01*
X145Y3004D01*
X145Y3004D01*
X145Y3005D01*
X146Y3005D01*
X146Y3005D01*
X147Y3005D01*
X147Y3005D01*
X147Y3005D01*
X147Y3005D01*
X148Y3005D01*
X148Y3006D01*
X148Y3006D01*
X148Y3006D01*
X149Y3006D01*
X149Y3006D01*
X149Y3006D01*
X149Y3007D01*
X150Y3007D01*
X150Y3007D01*
X150Y3007D01*
X150Y3007D01*
X151Y3007D01*
X151Y3008D01*
X152Y3008D01*
X152Y3008D01*
X152Y3008D01*
X152Y3008D01*
X152Y3008D01*
X152Y3009D01*
X153Y3009D01*
X153Y3009D01*
X154Y3009D01*
X154Y3009D01*
X154Y3009D01*
X154Y3009D01*
X155Y3009D01*
X155Y3010D01*
X155Y3010D01*
X155Y3010D01*
X156Y3010D01*
X156Y3010D01*
X156Y3010D01*
X156Y3011D01*
X157Y3011D01*
X157Y3011D01*
X157Y3011D01*
X157Y3011D01*
X158Y3011D01*
X158Y3012D01*
X159Y3012D01*
X159Y3012D01*
X159Y3012D01*
X159Y3012D01*
X160Y3012D01*
X160Y3013D01*
X160Y3013D01*
X160Y3013D01*
X161Y3013D01*
X161Y3013D01*
X161Y3013D01*
X161Y3013D01*
X162Y3013D01*
X162Y3014D01*
X162Y3014D01*
X162Y3014D01*
X163Y3014D01*
X163Y3014D01*
X164Y3014D01*
X164Y3015D01*
X164Y3015D01*
X164Y3015D01*
X164Y3015D01*
X164Y3015D01*
X165Y3015D01*
X165Y3016D01*
X166Y3016D01*
X166Y3016D01*
X166Y3016D01*
X166Y3016D01*
X167Y3016D01*
X167Y3017D01*
X167Y3017D01*
X167Y3017D01*
X168Y3017D01*
X168Y3017D01*
X168Y3017D01*
X168Y3017D01*
X169Y3017D01*
X169Y3018D01*
X169Y3018D01*
X169Y3018D01*
X170Y3018D01*
X170Y3018D01*
X171Y3018D01*
X171Y3019D01*
X171Y3019D01*
X171Y3019D01*
X172Y3019D01*
X172Y3019D01*
X172Y3019D01*
X172Y3020D01*
X173Y3020D01*
X173Y3020D01*
X173Y3020D01*
X173Y3020D01*
X174Y3020D01*
X174Y3021D01*
X174Y3021D01*
X174Y3021D01*
X175Y3021D01*
X175Y3021D01*
X175Y3021D01*
X175Y3021D01*
X176Y3021D01*
X176Y3022D01*
X176Y3022D01*
X176Y3022D01*
X177Y3022D01*
X177Y3022D01*
X178Y3022D01*
X178Y3023D01*
X178Y3023D01*
X178Y3023D01*
X179Y3023D01*
X179Y3023D01*
X179Y3023D01*
X179Y3024D01*
X180Y3024D01*
X180Y3024D01*
X180Y3024D01*
X180Y3024D01*
X181Y3024D01*
X181Y3025D01*
X181Y3025D01*
X181Y3025D01*
X182Y3025D01*
X182Y3025D01*
X182Y3025D01*
X182Y3025D01*
X183Y3025D01*
X183Y3026D01*
X184Y3026D01*
X184Y3026D01*
X184Y3026D01*
X184Y3026D01*
X185Y3026D01*
X185Y3027D01*
X185Y3027D01*
X185Y3027D01*
X186Y3027D01*
X186Y3027D01*
X186Y3027D01*
X186Y3028D01*
X187Y3028D01*
X187Y3028D01*
X187Y3028D01*
X187Y3028D01*
X188Y3028D01*
X188Y3029D01*
X188Y3029D01*
X188Y3029D01*
X189Y3029D01*
X189Y3029D01*
X189Y3029D01*
X189Y3029D01*
X190Y3029D01*
X190Y3030D01*
X191Y3030D01*
X191Y3030D01*
X191Y3030D01*
X191Y3030D01*
X192Y3030D01*
X192Y3031D01*
X192Y3031D01*
X192Y3031D01*
X193Y3031D01*
X193Y3031D01*
X193Y3031D01*
X193Y3032D01*
X194Y3032D01*
X194Y3032D01*
X194Y3032D01*
X194Y3032D01*
X193Y3032D01*
G37*
D02*
G36*
X52Y3031D02*
X52Y3016D01*
X52Y3016D01*
X52Y3015D01*
X53Y3015D01*
X53Y3015D01*
X53Y3015D01*
X53Y3015D01*
X54Y3015D01*
X54Y3014D01*
X54Y3014D01*
X54Y3014D01*
X55Y3014D01*
X55Y3014D01*
X56Y3014D01*
X56Y3013D01*
X56Y3013D01*
X56Y3013D01*
X56Y3013D01*
X56Y3013D01*
X57Y3013D01*
X57Y3013D01*
X57Y3013D01*
X57Y3012D01*
X58Y3012D01*
X58Y3012D01*
X58Y3012D01*
X58Y3012D01*
X59Y3012D01*
X59Y3011D01*
X59Y3011D01*
X59Y3011D01*
X60Y3011D01*
X60Y3011D01*
X60Y3011D01*
X60Y3010D01*
X61Y3010D01*
X61Y3010D01*
X61Y3010D01*
X61Y3010D01*
X62Y3010D01*
X62Y3009D01*
X62Y3009D01*
X62Y3009D01*
X63Y3009D01*
X63Y3009D01*
X63Y3009D01*
X63Y3009D01*
X64Y3009D01*
X64Y3008D01*
X64Y3008D01*
X64Y3008D01*
X65Y3008D01*
X65Y3008D01*
X65Y3008D01*
X65Y3007D01*
X66Y3007D01*
X66Y3007D01*
X66Y3007D01*
X66Y3007D01*
X67Y3007D01*
X67Y3006D01*
X67Y3006D01*
X67Y3006D01*
X68Y3006D01*
X68Y3006D01*
X68Y3006D01*
X68Y3005D01*
X69Y3005D01*
X69Y3005D01*
X69Y3005D01*
X69Y3005D01*
X70Y3005D01*
X70Y3005D01*
X70Y3005D01*
X70Y3004D01*
X71Y3004D01*
X71Y3005D01*
X71Y3005D01*
X71Y3005D01*
X70Y3005D01*
X70Y3005D01*
X70Y3005D01*
X70Y3005D01*
X69Y3005D01*
X69Y3006D01*
X69Y3006D01*
X69Y3006D01*
X68Y3006D01*
X68Y3006D01*
X68Y3006D01*
X68Y3007D01*
X67Y3007D01*
X67Y3007D01*
X67Y3007D01*
X67Y3007D01*
X66Y3007D01*
X66Y3008D01*
X66Y3008D01*
X66Y3008D01*
X65Y3008D01*
X65Y3008D01*
X65Y3008D01*
X65Y3009D01*
X64Y3009D01*
X64Y3009D01*
X64Y3009D01*
X64Y3009D01*
X63Y3009D01*
X63Y3009D01*
X63Y3009D01*
X63Y3010D01*
X62Y3010D01*
X62Y3010D01*
X62Y3010D01*
X62Y3010D01*
X61Y3010D01*
X61Y3011D01*
X61Y3011D01*
X61Y3011D01*
X60Y3011D01*
X60Y3011D01*
X60Y3011D01*
X60Y3012D01*
X60Y3012D01*
X60Y3012D01*
X59Y3012D01*
X59Y3012D01*
X58Y3012D01*
X58Y3013D01*
X58Y3013D01*
X58Y3013D01*
X57Y3013D01*
X57Y3013D01*
X57Y3013D01*
X57Y3013D01*
X56Y3013D01*
X56Y3014D01*
X56Y3014D01*
X56Y3014D01*
X56Y3014D01*
X56Y3014D01*
X55Y3014D01*
X55Y3015D01*
X55Y3015D01*
X55Y3015D01*
X54Y3015D01*
X54Y3015D01*
X53Y3015D01*
X53Y3016D01*
X53Y3016D01*
X53Y3016D01*
X52Y3016D01*
X52Y3016D01*
X52Y3016D01*
X52Y3031D01*
X52Y3031D01*
G37*
D02*
G36*
X196Y3031D02*
X196Y3016D01*
X195Y3016D01*
X195Y3016D01*
X195Y3016D01*
X195Y3016D01*
X196Y3016D01*
X196Y2999D01*
X195Y2999D01*
X195Y2999D01*
X195Y2999D01*
X195Y2999D01*
X194Y2999D01*
X194Y2998D01*
X196Y2998D01*
X196Y2982D01*
X195Y2982D01*
X195Y2982D01*
X195Y2982D01*
X195Y2982D01*
X194Y2982D01*
X194Y2981D01*
X194Y2981D01*
X194Y2981D01*
X194Y2981D01*
X194Y2981D01*
X193Y2981D01*
X193Y2981D01*
X193Y2981D01*
X193Y2980D01*
X192Y2980D01*
X192Y2980D01*
X192Y2980D01*
X192Y2980D01*
X192Y2980D01*
X192Y2979D01*
X191Y2979D01*
X191Y2979D01*
X191Y2979D01*
X191Y2979D01*
X190Y2979D01*
X190Y2978D01*
X190Y2978D01*
X190Y2978D01*
X189Y2978D01*
X189Y2978D01*
X189Y2978D01*
X189Y2977D01*
X189Y2977D01*
X189Y2977D01*
X188Y2977D01*
X188Y2977D01*
X188Y2977D01*
X188Y2977D01*
X188Y2977D01*
X188Y2976D01*
X187Y2976D01*
X187Y2976D01*
X187Y2976D01*
X187Y2976D01*
X186Y2976D01*
X186Y2975D01*
X186Y2975D01*
X186Y2975D01*
X185Y2975D01*
X185Y2975D01*
X185Y2975D01*
X185Y2974D01*
X185Y2974D01*
X185Y2974D01*
X184Y2974D01*
X184Y2974D01*
X184Y2974D01*
X184Y2973D01*
X184Y2973D01*
X184Y2973D01*
X183Y2973D01*
X183Y2973D01*
X183Y2973D01*
X183Y2973D01*
X182Y2973D01*
X182Y2972D01*
X182Y2972D01*
X182Y2972D01*
X181Y2972D01*
X181Y2972D01*
X181Y2972D01*
X181Y2971D01*
X180Y2971D01*
X180Y2971D01*
X180Y2971D01*
X180Y2971D01*
X180Y2971D01*
X180Y2970D01*
X179Y2970D01*
X179Y2970D01*
X179Y2970D01*
X179Y2970D01*
X179Y2970D01*
X179Y2969D01*
X178Y2969D01*
X178Y2969D01*
X178Y2969D01*
X178Y2969D01*
X177Y2969D01*
X177Y2969D01*
X177Y2969D01*
X177Y2968D01*
X176Y2968D01*
X176Y2968D01*
X176Y2968D01*
X176Y2968D01*
X176Y2968D01*
X176Y2967D01*
X175Y2967D01*
X175Y2967D01*
X175Y2967D01*
X175Y2967D01*
X174Y2967D01*
X174Y2966D01*
X174Y2966D01*
X174Y2966D01*
X174Y2966D01*
X174Y2966D01*
X173Y2966D01*
X173Y2965D01*
X173Y2965D01*
X173Y2965D01*
X172Y2965D01*
X172Y2965D01*
X172Y2965D01*
X172Y2965D01*
X172Y2965D01*
X172Y2964D01*
X171Y2964D01*
X171Y2964D01*
X171Y2964D01*
X171Y2964D01*
X170Y2964D01*
X170Y2963D01*
X170Y2963D01*
X170Y2963D01*
X169Y2963D01*
X169Y2963D01*
X169Y2963D01*
X169Y2962D01*
X169Y2962D01*
X169Y2962D01*
X168Y2962D01*
X168Y2962D01*
X168Y2962D01*
X168Y2961D01*
X168Y2961D01*
X168Y2961D01*
X167Y2961D01*
X167Y2961D01*
X167Y2961D01*
X167Y2961D01*
X166Y2961D01*
X166Y2960D01*
X166Y2960D01*
X166Y2960D01*
X165Y2960D01*
X165Y2960D01*
X165Y2960D01*
X165Y2959D01*
X164Y2959D01*
X164Y2959D01*
X164Y2959D01*
X164Y2959D01*
X164Y2959D01*
X164Y2958D01*
X163Y2958D01*
X163Y2958D01*
X163Y2958D01*
X163Y2958D01*
X163Y2958D01*
X163Y2957D01*
X162Y2957D01*
X162Y2957D01*
X162Y2957D01*
X162Y2957D01*
X161Y2957D01*
X161Y2957D01*
X161Y2957D01*
X161Y2956D01*
X160Y2956D01*
X160Y2956D01*
X160Y2956D01*
X160Y2956D01*
X160Y2956D01*
X160Y2955D01*
X159Y2955D01*
X159Y2955D01*
X159Y2955D01*
X159Y2955D01*
X159Y2955D01*
X159Y2954D01*
X158Y2954D01*
X158Y2954D01*
X158Y2954D01*
X158Y2954D01*
X157Y2954D01*
X157Y2953D01*
X157Y2953D01*
X157Y2953D01*
X156Y2953D01*
X156Y2953D01*
X156Y2953D01*
X156Y2953D01*
X156Y2953D01*
X156Y2952D01*
X155Y2952D01*
X155Y2952D01*
X155Y2952D01*
X155Y2952D01*
X154Y2952D01*
X154Y2951D01*
X154Y2951D01*
X154Y2951D01*
X154Y2951D01*
X154Y2951D01*
X153Y2951D01*
X153Y2950D01*
X153Y2950D01*
X153Y2950D01*
X152Y2950D01*
X152Y2950D01*
X152Y2950D01*
X152Y2949D01*
X152Y2949D01*
X152Y2949D01*
X151Y2949D01*
X151Y2949D01*
X151Y2949D01*
X151Y2949D01*
X150Y2949D01*
X150Y2948D01*
X150Y2948D01*
X150Y2948D01*
X149Y2948D01*
X149Y2948D01*
X149Y2948D01*
X149Y2947D01*
X149Y2947D01*
X149Y2947D01*
X148Y2947D01*
X148Y2947D01*
X148Y2947D01*
X148Y2946D01*
X148Y2946D01*
X148Y2946D01*
X147Y2946D01*
X147Y2946D01*
X147Y2946D01*
X147Y2945D01*
X146Y2945D01*
X146Y2945D01*
X146Y2945D01*
X146Y2945D01*
X145Y2945D01*
X145Y2945D01*
X145Y2945D01*
X145Y2944D01*
X144Y2944D01*
X144Y2944D01*
X144Y2944D01*
X144Y2944D01*
X144Y2944D01*
X144Y2943D01*
X143Y2943D01*
X143Y2943D01*
X143Y2943D01*
X143Y2943D01*
X143Y2943D01*
X143Y2942D01*
X142Y2942D01*
X142Y2942D01*
X142Y2942D01*
X142Y2942D01*
X141Y2942D01*
X141Y2941D01*
X141Y2941D01*
X141Y2941D01*
X140Y2941D01*
X140Y2941D01*
X140Y2941D01*
X140Y2941D01*
X140Y2941D01*
X140Y2940D01*
X139Y2940D01*
X139Y2940D01*
X139Y2940D01*
X139Y2940D01*
X138Y2940D01*
X138Y2939D01*
X138Y2939D01*
X138Y2939D01*
X138Y2939D01*
X138Y2939D01*
X137Y2939D01*
X137Y2938D01*
X137Y2938D01*
X137Y2938D01*
X136Y2938D01*
X136Y2938D01*
X136Y2938D01*
X136Y2937D01*
X136Y2937D01*
X136Y2937D01*
X135Y2937D01*
X135Y2937D01*
X135Y2937D01*
X135Y2937D01*
X134Y2937D01*
X134Y2936D01*
X134Y2936D01*
X134Y2936D01*
X133Y2936D01*
X133Y2936D01*
X133Y2936D01*
X133Y2935D01*
X133Y2935D01*
X133Y2935D01*
X132Y2935D01*
X132Y2935D01*
X132Y2935D01*
X132Y2934D01*
X132Y2934D01*
X132Y2934D01*
X131Y2934D01*
X131Y2934D01*
X131Y2934D01*
X131Y2933D01*
X130Y2933D01*
X130Y2933D01*
X130Y2933D01*
X130Y2933D01*
X129Y2933D01*
X129Y2933D01*
X129Y2933D01*
X129Y2932D01*
X129Y2932D01*
X129Y2932D01*
X128Y2932D01*
X128Y2932D01*
X128Y2932D01*
X128Y2931D01*
X128Y2931D01*
X128Y2931D01*
X127Y2931D01*
X127Y2931D01*
X127Y2931D01*
X127Y2930D01*
X126Y2930D01*
X126Y2930D01*
X126Y2930D01*
X126Y2930D01*
X125Y2930D01*
X125Y2929D01*
X126Y2929D01*
X126Y2930D01*
X127Y2930D01*
X127Y2930D01*
X127Y2930D01*
X127Y2930D01*
X128Y2930D01*
X128Y2931D01*
X128Y2931D01*
X128Y2931D01*
X128Y2931D01*
X128Y2931D01*
X129Y2931D01*
X129Y2932D01*
X129Y2932D01*
X129Y2932D01*
X130Y2932D01*
X130Y2932D01*
X130Y2932D01*
X130Y2933D01*
X130Y2933D01*
X130Y2933D01*
X131Y2933D01*
X131Y2933D01*
X131Y2933D01*
X131Y2933D01*
X132Y2933D01*
X132Y2934D01*
X132Y2934D01*
X132Y2934D01*
X132Y2934D01*
X132Y2934D01*
X133Y2934D01*
X133Y2935D01*
X133Y2935D01*
X133Y2935D01*
X134Y2935D01*
X134Y2935D01*
X134Y2935D01*
X134Y2936D01*
X134Y2936D01*
X134Y2936D01*
X135Y2936D01*
X135Y2936D01*
X135Y2936D01*
X135Y2937D01*
X136Y2937D01*
X136Y2937D01*
X136Y2937D01*
X136Y2937D01*
X136Y2937D01*
X136Y2937D01*
X137Y2937D01*
X137Y2938D01*
X137Y2938D01*
X137Y2938D01*
X138Y2938D01*
X138Y2938D01*
X138Y2938D01*
X138Y2939D01*
X139Y2939D01*
X139Y2939D01*
X139Y2939D01*
X139Y2939D01*
X139Y2939D01*
X139Y2940D01*
X140Y2940D01*
X140Y2940D01*
X140Y2940D01*
X140Y2940D01*
X140Y2940D01*
X140Y2941D01*
X141Y2941D01*
X141Y2941D01*
X141Y2941D01*
X141Y2941D01*
X142Y2941D01*
X142Y2941D01*
X142Y2941D01*
X142Y2942D01*
X143Y2942D01*
X143Y2942D01*
X143Y2942D01*
X143Y2942D01*
X144Y2942D01*
X144Y2943D01*
X144Y2943D01*
X144Y2943D01*
X144Y2943D01*
X144Y2943D01*
X145Y2943D01*
X145Y2944D01*
X145Y2944D01*
X145Y2944D01*
X145Y2944D01*
X145Y2944D01*
X146Y2944D01*
X146Y2945D01*
X146Y2945D01*
X146Y2945D01*
X147Y2945D01*
X147Y2945D01*
X147Y2945D01*
X147Y2945D01*
X148Y2945D01*
X148Y2946D01*
X148Y2946D01*
X148Y2946D01*
X148Y2946D01*
X148Y2946D01*
X149Y2946D01*
X149Y2947D01*
X149Y2947D01*
X149Y2947D01*
X150Y2947D01*
X150Y2947D01*
X150Y2947D01*
X150Y2948D01*
X150Y2948D01*
X150Y2948D01*
X151Y2948D01*
X151Y2948D01*
X151Y2948D01*
X151Y2949D01*
X152Y2949D01*
X152Y2949D01*
X152Y2949D01*
X152Y2949D01*
X152Y2949D01*
X152Y2949D01*
X153Y2949D01*
X153Y2950D01*
X153Y2950D01*
X153Y2950D01*
X154Y2950D01*
X154Y2950D01*
X154Y2950D01*
X154Y2951D01*
X155Y2951D01*
X155Y2951D01*
X155Y2951D01*
X155Y2951D01*
X155Y2951D01*
X155Y2952D01*
X156Y2952D01*
X156Y2952D01*
X156Y2952D01*
X156Y2952D01*
X156Y2952D01*
X156Y2953D01*
X157Y2953D01*
X157Y2953D01*
X157Y2953D01*
X157Y2953D01*
X158Y2953D01*
X158Y2953D01*
X158Y2953D01*
X158Y2954D01*
X159Y2954D01*
X159Y2954D01*
X159Y2954D01*
X159Y2954D01*
X160Y2954D01*
X160Y2955D01*
X160Y2955D01*
X160Y2955D01*
X160Y2955D01*
X160Y2955D01*
X160Y2955D01*
X160Y2956D01*
X161Y2956D01*
X161Y2956D01*
X161Y2956D01*
X161Y2956D01*
X162Y2956D01*
X162Y2957D01*
X162Y2957D01*
X162Y2957D01*
X163Y2957D01*
X163Y2957D01*
X163Y2957D01*
X163Y2957D01*
X164Y2957D01*
X164Y2958D01*
X164Y2958D01*
X164Y2958D01*
X164Y2958D01*
X164Y2958D01*
X165Y2958D01*
X165Y2959D01*
X165Y2959D01*
X165Y2959D01*
X165Y2959D01*
X165Y2959D01*
X166Y2959D01*
X166Y2960D01*
X166Y2960D01*
X166Y2960D01*
X167Y2960D01*
X167Y2960D01*
X167Y2960D01*
X167Y2961D01*
X168Y2961D01*
X168Y2961D01*
X168Y2961D01*
X168Y2961D01*
X168Y2961D01*
X168Y2961D01*
X169Y2961D01*
X169Y2962D01*
X169Y2962D01*
X169Y2962D01*
X170Y2962D01*
X170Y2962D01*
X170Y2962D01*
X170Y2963D01*
X170Y2963D01*
X170Y2963D01*
X171Y2963D01*
X171Y2963D01*
X171Y2963D01*
X171Y2964D01*
X172Y2964D01*
X172Y2964D01*
X172Y2964D01*
X172Y2964D01*
X172Y2964D01*
X172Y2965D01*
X173Y2965D01*
X173Y2965D01*
X173Y2965D01*
X173Y2965D01*
X174Y2965D01*
X174Y2965D01*
X174Y2965D01*
X174Y2966D01*
X175Y2966D01*
X175Y2966D01*
X175Y2966D01*
X175Y2966D01*
X175Y2966D01*
X175Y2967D01*
X176Y2967D01*
X176Y2967D01*
X176Y2967D01*
X176Y2967D01*
X176Y2967D01*
X176Y2968D01*
X177Y2968D01*
X177Y2968D01*
X177Y2968D01*
X177Y2968D01*
X178Y2968D01*
X178Y2969D01*
X178Y2969D01*
X178Y2969D01*
X179Y2969D01*
X179Y2969D01*
X179Y2969D01*
X179Y2969D01*
X180Y2969D01*
X180Y2970D01*
X180Y2970D01*
X180Y2970D01*
X180Y2970D01*
X180Y2970D01*
X181Y2970D01*
X181Y2971D01*
X181Y2971D01*
X181Y2971D01*
X181Y2971D01*
X181Y2971D01*
X182Y2971D01*
X182Y2972D01*
X182Y2972D01*
X182Y2972D01*
X183Y2972D01*
X183Y2972D01*
X183Y2972D01*
X183Y2973D01*
X184Y2973D01*
X184Y2973D01*
X184Y2973D01*
X184Y2973D01*
X184Y2973D01*
X184Y2973D01*
X185Y2973D01*
X185Y2974D01*
X185Y2974D01*
X185Y2974D01*
X186Y2974D01*
X186Y2974D01*
X186Y2974D01*
X186Y2975D01*
X186Y2975D01*
X186Y2975D01*
X187Y2975D01*
X187Y2975D01*
X187Y2975D01*
X187Y2976D01*
X188Y2976D01*
X188Y2976D01*
X188Y2976D01*
X188Y2976D01*
X188Y2976D01*
X188Y2977D01*
X189Y2977D01*
X189Y2977D01*
X189Y2977D01*
X189Y2977D01*
X190Y2977D01*
X190Y2977D01*
X190Y2977D01*
X190Y2978D01*
X190Y2978D01*
X190Y2978D01*
X191Y2978D01*
X191Y2978D01*
X191Y2978D01*
X191Y2979D01*
X192Y2979D01*
X192Y2979D01*
X192Y2979D01*
X192Y2979D01*
X192Y2979D01*
X192Y2980D01*
X193Y2980D01*
X193Y2980D01*
X193Y2980D01*
X193Y2980D01*
X194Y2980D01*
X194Y2981D01*
X194Y2981D01*
X194Y2981D01*
X195Y2981D01*
X195Y2981D01*
X195Y2981D01*
X195Y2981D01*
X195Y2981D01*
X195Y2982D01*
X196Y2982D01*
X196Y2982D01*
X196Y2982D01*
X196Y3031D01*
X196Y3031D01*
X196Y3031D01*
X196Y3031D01*
G37*
D02*
G36*
X71Y3022D02*
X71Y3022D01*
X74Y3022D01*
X74Y3022D01*
X71Y3022D01*
G37*
D02*
G36*
X71Y3022D02*
X71Y3022D01*
X74Y3022D01*
X74Y3022D01*
X71Y3022D01*
G37*
D02*
G36*
X72Y3022D02*
X72Y3021D01*
X72Y3021D01*
X72Y3021D01*
X73Y3021D01*
X73Y3021D01*
X73Y3021D01*
X73Y3021D01*
X74Y3021D01*
X74Y3020D01*
X74Y3020D01*
X74Y3020D01*
X75Y3020D01*
X75Y3020D01*
X76Y3020D01*
X76Y3019D01*
X76Y3019D01*
X76Y3019D01*
X76Y3019D01*
X76Y3019D01*
X77Y3019D01*
X77Y3018D01*
X78Y3018D01*
X78Y3018D01*
X78Y3018D01*
X78Y3018D01*
X79Y3018D01*
X79Y3017D01*
X79Y3017D01*
X79Y3017D01*
X80Y3017D01*
X80Y3017D01*
X80Y3017D01*
X80Y3017D01*
X81Y3017D01*
X81Y3016D01*
X81Y3016D01*
X81Y3016D01*
X82Y3016D01*
X82Y3016D01*
X83Y3016D01*
X83Y3015D01*
X83Y3015D01*
X83Y3015D01*
X84Y3015D01*
X84Y3015D01*
X84Y3015D01*
X84Y3014D01*
X85Y3014D01*
X85Y3014D01*
X85Y3014D01*
X85Y3014D01*
X86Y3014D01*
X86Y3013D01*
X86Y3013D01*
X86Y3013D01*
X87Y3013D01*
X87Y3013D01*
X88Y3013D01*
X88Y3013D01*
X88Y3013D01*
X88Y3012D01*
X88Y3012D01*
X88Y3012D01*
X89Y3012D01*
X89Y3012D01*
X90Y3012D01*
X90Y3011D01*
X90Y3011D01*
X90Y3011D01*
X91Y3011D01*
X91Y3011D01*
X91Y3011D01*
X91Y3010D01*
X92Y3010D01*
X92Y3010D01*
X92Y3010D01*
X92Y3010D01*
X93Y3010D01*
X93Y3009D01*
X93Y3009D01*
X93Y3009D01*
X94Y3009D01*
X94Y3009D01*
X95Y3009D01*
X95Y3009D01*
X96Y3009D01*
X96Y3009D01*
X95Y3009D01*
X95Y3009D01*
X95Y3009D01*
X95Y3009D01*
X94Y3009D01*
X94Y3010D01*
X93Y3010D01*
X93Y3010D01*
X93Y3010D01*
X93Y3010D01*
X92Y3010D01*
X92Y3011D01*
X92Y3011D01*
X92Y3011D01*
X91Y3011D01*
X91Y3011D01*
X91Y3011D01*
X91Y3012D01*
X90Y3012D01*
X90Y3012D01*
X90Y3012D01*
X90Y3012D01*
X89Y3012D01*
X89Y3013D01*
X88Y3013D01*
X88Y3013D01*
X88Y3013D01*
X88Y3013D01*
X88Y3013D01*
X88Y3013D01*
X87Y3013D01*
X87Y3014D01*
X86Y3014D01*
X86Y3014D01*
X86Y3014D01*
X86Y3014D01*
X85Y3014D01*
X85Y3015D01*
X85Y3015D01*
X85Y3015D01*
X84Y3015D01*
X84Y3015D01*
X84Y3015D01*
X84Y3016D01*
X83Y3016D01*
X83Y3016D01*
X83Y3016D01*
X83Y3016D01*
X82Y3016D01*
X82Y3017D01*
X81Y3017D01*
X81Y3017D01*
X81Y3017D01*
X81Y3017D01*
X80Y3017D01*
X80Y3017D01*
X80Y3017D01*
X80Y3018D01*
X79Y3018D01*
X79Y3018D01*
X79Y3018D01*
X79Y3018D01*
X78Y3018D01*
X78Y3019D01*
X78Y3019D01*
X78Y3019D01*
X77Y3019D01*
X77Y3019D01*
X77Y3019D01*
X77Y3020D01*
X76Y3020D01*
X76Y3020D01*
X76Y3020D01*
X76Y3020D01*
X75Y3020D01*
X75Y3021D01*
X75Y3021D01*
X75Y3021D01*
X74Y3021D01*
X74Y3021D01*
X73Y3021D01*
X73Y3021D01*
X73Y3021D01*
X73Y3022D01*
X72Y3022D01*
G37*
D02*
G36*
X72Y3021D02*
X72Y3004D01*
X72Y3004D01*
X72Y3021D01*
X72Y3021D01*
G37*
D02*
G36*
X52Y3016D02*
X52Y2998D01*
X53Y2998D01*
X53Y2998D01*
X53Y2998D01*
X53Y2998D01*
X54Y2998D01*
X54Y2997D01*
X54Y2997D01*
X54Y2997D01*
X55Y2997D01*
X55Y2997D01*
X55Y2997D01*
X55Y2997D01*
X56Y2997D01*
X56Y2996D01*
X56Y2996D01*
X56Y2996D01*
X56Y2996D01*
X56Y2996D01*
X57Y2996D01*
X57Y2995D01*
X57Y2995D01*
X57Y2995D01*
X58Y2995D01*
X58Y2995D01*
X58Y2995D01*
X58Y2994D01*
X59Y2994D01*
X59Y2994D01*
X59Y2994D01*
X59Y2994D01*
X60Y2994D01*
X60Y2993D01*
X60Y2993D01*
X60Y2993D01*
X60Y2993D01*
X60Y2993D01*
X61Y2993D01*
X61Y2993D01*
X61Y2993D01*
X61Y2992D01*
X62Y2992D01*
X62Y2992D01*
X62Y2992D01*
X62Y2992D01*
X63Y2992D01*
X63Y2991D01*
X63Y2991D01*
X63Y2991D01*
X64Y2991D01*
X64Y2991D01*
X64Y2991D01*
X64Y2990D01*
X64Y2990D01*
X64Y2990D01*
X65Y2990D01*
X65Y2990D01*
X65Y2990D01*
X65Y2989D01*
X66Y2989D01*
X66Y2989D01*
X66Y2989D01*
X66Y2989D01*
X67Y2989D01*
X67Y2989D01*
X67Y2989D01*
X67Y2988D01*
X68Y2988D01*
X68Y2988D01*
X68Y2988D01*
X68Y2988D01*
X68Y2988D01*
X68Y2987D01*
X69Y2987D01*
X69Y2987D01*
X69Y2987D01*
X69Y2987D01*
X70Y2987D01*
X70Y2986D01*
X70Y2986D01*
X70Y2986D01*
X71Y2986D01*
X71Y2986D01*
X71Y2986D01*
X71Y2985D01*
X72Y2985D01*
X72Y2985D01*
X72Y2985D01*
X72Y2985D01*
X73Y2985D01*
X73Y2984D01*
X73Y2984D01*
X73Y2984D01*
X74Y2984D01*
X74Y2984D01*
X74Y2984D01*
X74Y2983D01*
X75Y2983D01*
X75Y2983D01*
X75Y2983D01*
X75Y2983D01*
X76Y2983D01*
X76Y2982D01*
X76Y2982D01*
X76Y2982D01*
X76Y2982D01*
X76Y2982D01*
X77Y2982D01*
X77Y2981D01*
X77Y2981D01*
X77Y2981D01*
X78Y2981D01*
X78Y2981D01*
X78Y2981D01*
X78Y2981D01*
X79Y2981D01*
X79Y2980D01*
X79Y2980D01*
X79Y2980D01*
X80Y2980D01*
X80Y2980D01*
X80Y2980D01*
X80Y2979D01*
X80Y2979D01*
X80Y2979D01*
X81Y2979D01*
X81Y2979D01*
X81Y2979D01*
X81Y2978D01*
X82Y2978D01*
X82Y2978D01*
X82Y2978D01*
X82Y2978D01*
X83Y2978D01*
X83Y2977D01*
X83Y2977D01*
X83Y2977D01*
X84Y2977D01*
X84Y2977D01*
X84Y2977D01*
X84Y2977D01*
X84Y2977D01*
X84Y2976D01*
X85Y2976D01*
X85Y2976D01*
X85Y2976D01*
X85Y2976D01*
X86Y2976D01*
X86Y2975D01*
X86Y2975D01*
X86Y2975D01*
X87Y2975D01*
X87Y2975D01*
X87Y2975D01*
X87Y2974D01*
X88Y2974D01*
X88Y2974D01*
X88Y2974D01*
X88Y2974D01*
X88Y2974D01*
X88Y2973D01*
X89Y2973D01*
X89Y2973D01*
X89Y2973D01*
X89Y2973D01*
X90Y2973D01*
X90Y2973D01*
X90Y2973D01*
X90Y2972D01*
X91Y2972D01*
X91Y2972D01*
X91Y2972D01*
X91Y2972D01*
X92Y2972D01*
X92Y2971D01*
X92Y2971D01*
X92Y2971D01*
X92Y2971D01*
X92Y2971D01*
X93Y2971D01*
X93Y2970D01*
X93Y2970D01*
X93Y2970D01*
X94Y2970D01*
X94Y2970D01*
X94Y2970D01*
X94Y2969D01*
X95Y2969D01*
X95Y2969D01*
X95Y2969D01*
X95Y2969D01*
X96Y2969D01*
X96Y2968D01*
X97Y2968D01*
X97Y2968D01*
X97Y2968D01*
X97Y2967D01*
X98Y2967D01*
X98Y2967D01*
X98Y2967D01*
X98Y2967D01*
X99Y2967D01*
X99Y2966D01*
X99Y2966D01*
X99Y2966D01*
X100Y2966D01*
X100Y2966D01*
X100Y2966D01*
X100Y2965D01*
X100Y2965D01*
X100Y2965D01*
X101Y2965D01*
X101Y2965D01*
X101Y2965D01*
X101Y2965D01*
X102Y2965D01*
X102Y2964D01*
X102Y2964D01*
X102Y2964D01*
X103Y2964D01*
X103Y2964D01*
X103Y2964D01*
X103Y2963D01*
X104Y2963D01*
X104Y2963D01*
X104Y2963D01*
X104Y2963D01*
X104Y2963D01*
X104Y2962D01*
X105Y2962D01*
X105Y2962D01*
X105Y2962D01*
X105Y2962D01*
X106Y2962D01*
X106Y2961D01*
X106Y2961D01*
X106Y2961D01*
X107Y2961D01*
X107Y2961D01*
X107Y2961D01*
X107Y2961D01*
X108Y2961D01*
X108Y2960D01*
X108Y2960D01*
X108Y2960D01*
X108Y2960D01*
X108Y2960D01*
X109Y2960D01*
X109Y2959D01*
X109Y2959D01*
X109Y2959D01*
X110Y2959D01*
X110Y2959D01*
X110Y2959D01*
X110Y2958D01*
X111Y2958D01*
X111Y2958D01*
X111Y2958D01*
X111Y2958D01*
X112Y2958D01*
X112Y2957D01*
X112Y2957D01*
X112Y2957D01*
X112Y2957D01*
X112Y2957D01*
X113Y2957D01*
X113Y2957D01*
X113Y2957D01*
X113Y2956D01*
X114Y2956D01*
X114Y2956D01*
X114Y2956D01*
X114Y2956D01*
X115Y2956D01*
X115Y2955D01*
X115Y2955D01*
X115Y2955D01*
X116Y2955D01*
X116Y2955D01*
X116Y2955D01*
X116Y2954D01*
X116Y2954D01*
X116Y2954D01*
X117Y2954D01*
X117Y2954D01*
X117Y2954D01*
X117Y2953D01*
X118Y2953D01*
X118Y2953D01*
X118Y2953D01*
X118Y2953D01*
X119Y2953D01*
X119Y2953D01*
X119Y2953D01*
X119Y2952D01*
X120Y2952D01*
X120Y2952D01*
X120Y2952D01*
X120Y2952D01*
X120Y2952D01*
X120Y2951D01*
X121Y2951D01*
X121Y2951D01*
X121Y2951D01*
X121Y2951D01*
X122Y2951D01*
X122Y2950D01*
X123Y2950D01*
X123Y2951D01*
X122Y2951D01*
X122Y2951D01*
X122Y2951D01*
X122Y2951D01*
X121Y2951D01*
X121Y2952D01*
X121Y2952D01*
X121Y2952D01*
X120Y2952D01*
X120Y2952D01*
X120Y2952D01*
X120Y2953D01*
X120Y2953D01*
X120Y2953D01*
X119Y2953D01*
X119Y2953D01*
X119Y2953D01*
X119Y2953D01*
X118Y2953D01*
X118Y2954D01*
X118Y2954D01*
X118Y2954D01*
X117Y2954D01*
X117Y2954D01*
X117Y2954D01*
X117Y2955D01*
X116Y2955D01*
X116Y2955D01*
X116Y2955D01*
X116Y2955D01*
X116Y2955D01*
X116Y2956D01*
X115Y2956D01*
X115Y2956D01*
X115Y2956D01*
X115Y2956D01*
X114Y2956D01*
X114Y2957D01*
X114Y2957D01*
X114Y2957D01*
X113Y2957D01*
X113Y2957D01*
X113Y2957D01*
X113Y2957D01*
X112Y2957D01*
X112Y2958D01*
X112Y2958D01*
X112Y2958D01*
X112Y2958D01*
X112Y2958D01*
X111Y2958D01*
X111Y2959D01*
X111Y2959D01*
X111Y2959D01*
X110Y2959D01*
X110Y2959D01*
X110Y2959D01*
X110Y2960D01*
X109Y2960D01*
X109Y2960D01*
X109Y2960D01*
X109Y2960D01*
X108Y2960D01*
X108Y2961D01*
X108Y2961D01*
X108Y2961D01*
X108Y2961D01*
X108Y2961D01*
X107Y2961D01*
X107Y2961D01*
X107Y2961D01*
X107Y2962D01*
X106Y2962D01*
X106Y2962D01*
X106Y2962D01*
X106Y2962D01*
X105Y2962D01*
X105Y2963D01*
X105Y2963D01*
X105Y2963D01*
X104Y2963D01*
X104Y2963D01*
X104Y2963D01*
X104Y2964D01*
X104Y2964D01*
X104Y2964D01*
X103Y2964D01*
X103Y2964D01*
X103Y2964D01*
X103Y2965D01*
X102Y2965D01*
X102Y2965D01*
X102Y2965D01*
X102Y2965D01*
X101Y2965D01*
X101Y2965D01*
X101Y2965D01*
X101Y2966D01*
X100Y2966D01*
X100Y2966D01*
X100Y2966D01*
X100Y2966D01*
X100Y2966D01*
X100Y2967D01*
X99Y2967D01*
X99Y2967D01*
X99Y2967D01*
X99Y2967D01*
X98Y2967D01*
X98Y2968D01*
X98Y2968D01*
X98Y2968D01*
X97Y2968D01*
X97Y2968D01*
X97Y2968D01*
X97Y2969D01*
X96Y2969D01*
X96Y2969D01*
X96Y2969D01*
X96Y2969D01*
X96Y2969D01*
X96Y2969D01*
X95Y2969D01*
X95Y2970D01*
X95Y2970D01*
X95Y2970D01*
X94Y2970D01*
X94Y2970D01*
X94Y2970D01*
X94Y2971D01*
X93Y2971D01*
X93Y2971D01*
X93Y2971D01*
X93Y2971D01*
X92Y2971D01*
X92Y2972D01*
X92Y2972D01*
X92Y2972D01*
X92Y2972D01*
X92Y2972D01*
X91Y2972D01*
X91Y2973D01*
X91Y2973D01*
X91Y2973D01*
X90Y2973D01*
X90Y2973D01*
X90Y2973D01*
X90Y2973D01*
X89Y2973D01*
X89Y2974D01*
X89Y2974D01*
X89Y2974D01*
X88Y2974D01*
X88Y2974D01*
X88Y2974D01*
X88Y2975D01*
X88Y2975D01*
X88Y2975D01*
X87Y2975D01*
X87Y2975D01*
X87Y2975D01*
X87Y2976D01*
X86Y2976D01*
X86Y2976D01*
X86Y2976D01*
X86Y2976D01*
X85Y2976D01*
X85Y2977D01*
X85Y2977D01*
X85Y2977D01*
X84Y2977D01*
X84Y2977D01*
X84Y2977D01*
X84Y2977D01*
X84Y2977D01*
X84Y2978D01*
X83Y2978D01*
X83Y2978D01*
X83Y2978D01*
X83Y2978D01*
X82Y2978D01*
X82Y2979D01*
X82Y2979D01*
X82Y2979D01*
X81Y2979D01*
X81Y2979D01*
X81Y2979D01*
X81Y2980D01*
X80Y2980D01*
X80Y2980D01*
X80Y2980D01*
X80Y2980D01*
X80Y2980D01*
X80Y2981D01*
X79Y2981D01*
X79Y2981D01*
X79Y2981D01*
X79Y2981D01*
X78Y2981D01*
X78Y2981D01*
X78Y2981D01*
X78Y2982D01*
X77Y2982D01*
X77Y2982D01*
X77Y2982D01*
X77Y2982D01*
X76Y2982D01*
X76Y2983D01*
X76Y2983D01*
X76Y2983D01*
X76Y2983D01*
X76Y2983D01*
X75Y2983D01*
X75Y2984D01*
X75Y2984D01*
X75Y2984D01*
X74Y2984D01*
X74Y2984D01*
X74Y2984D01*
X74Y2985D01*
X73Y2985D01*
X73Y2985D01*
X73Y2985D01*
X73Y2985D01*
X72Y2985D01*
X72Y2985D01*
X72Y2985D01*
X72Y2986D01*
X72Y2986D01*
X72Y2986D01*
X71Y2986D01*
X71Y2986D01*
X71Y2986D01*
X71Y2987D01*
X70Y2987D01*
X70Y2987D01*
X70Y2987D01*
X70Y2987D01*
X69Y2987D01*
X69Y2988D01*
X69Y2988D01*
X69Y2988D01*
X68Y2988D01*
X68Y2988D01*
X68Y2988D01*
X68Y2989D01*
X68Y2989D01*
X68Y2989D01*
X67Y2989D01*
X67Y2989D01*
X67Y2989D01*
X67Y2989D01*
X66Y2989D01*
X66Y2990D01*
X66Y2990D01*
X66Y2990D01*
X65Y2990D01*
X65Y2990D01*
X65Y2990D01*
X65Y2991D01*
X64Y2991D01*
X64Y2991D01*
X64Y2991D01*
X64Y2991D01*
X64Y2991D01*
X64Y2992D01*
X63Y2992D01*
X63Y2992D01*
X63Y2992D01*
X63Y2992D01*
X62Y2992D01*
X62Y2993D01*
X62Y2993D01*
X62Y2993D01*
X61Y2993D01*
X61Y2993D01*
X61Y2993D01*
X61Y2993D01*
X60Y2993D01*
X60Y2994D01*
X60Y2994D01*
X60Y2994D01*
X60Y2994D01*
X60Y2994D01*
X59Y2994D01*
X59Y2995D01*
X59Y2995D01*
X59Y2995D01*
X58Y2995D01*
X58Y2995D01*
X58Y2995D01*
X58Y2996D01*
X57Y2996D01*
X57Y2996D01*
X57Y2996D01*
X57Y2996D01*
X56Y2996D01*
X56Y2997D01*
X56Y2997D01*
X56Y2997D01*
X56Y2997D01*
X56Y2997D01*
X55Y2997D01*
X55Y2997D01*
X55Y2997D01*
X55Y2998D01*
X54Y2998D01*
X54Y2998D01*
X54Y2998D01*
X54Y2998D01*
X53Y2998D01*
X53Y2999D01*
X53Y2999D01*
X53Y2999D01*
X52Y2999D01*
X52Y2999D01*
X52Y2999D01*
X52Y3016D01*
X52Y3016D01*
G37*
D02*
G36*
X194Y3016D02*
X194Y3015D01*
X194Y3015D01*
X194Y3015D01*
X193Y3015D01*
X193Y3015D01*
X193Y3015D01*
X193Y3014D01*
X192Y3014D01*
X192Y3014D01*
X192Y3014D01*
X192Y3014D01*
X191Y3014D01*
X191Y3013D01*
X191Y3013D01*
X191Y3013D01*
X190Y3013D01*
X190Y3013D01*
X190Y3013D01*
X190Y3013D01*
X189Y3013D01*
X189Y3012D01*
X189Y3012D01*
X189Y3012D01*
X188Y3012D01*
X188Y3012D01*
X188Y3012D01*
X188Y3011D01*
X187Y3011D01*
X187Y3011D01*
X187Y3011D01*
X187Y3011D01*
X186Y3011D01*
X186Y3010D01*
X186Y3010D01*
X186Y3010D01*
X185Y3010D01*
X185Y3010D01*
X185Y3010D01*
X185Y3009D01*
X184Y3009D01*
X184Y3009D01*
X184Y3009D01*
X184Y3009D01*
X183Y3009D01*
X183Y3009D01*
X183Y3009D01*
X183Y3008D01*
X182Y3008D01*
X182Y3008D01*
X182Y3008D01*
X182Y3008D01*
X181Y3008D01*
X181Y3007D01*
X181Y3007D01*
X181Y3007D01*
X180Y3007D01*
X180Y3007D01*
X180Y3007D01*
X180Y3006D01*
X180Y3006D01*
X180Y3006D01*
X179Y3006D01*
X179Y3006D01*
X178Y3006D01*
X178Y3005D01*
X178Y3005D01*
X178Y3005D01*
X177Y3005D01*
X177Y3005D01*
X177Y3005D01*
X177Y3005D01*
X176Y3005D01*
X176Y3004D01*
X176Y3004D01*
X176Y3004D01*
X175Y3004D01*
X175Y3004D01*
X175Y3004D01*
X175Y3003D01*
X175Y3003D01*
X175Y3003D01*
X174Y3003D01*
X174Y3003D01*
X175Y3003D01*
X175Y2986D01*
X176Y2986D01*
X176Y3003D01*
X176Y3003D01*
X176Y3004D01*
X176Y3004D01*
X176Y3004D01*
X177Y3004D01*
X177Y3004D01*
X177Y3004D01*
X177Y3005D01*
X178Y3005D01*
X178Y3005D01*
X179Y3005D01*
X179Y3005D01*
X179Y3005D01*
X179Y3005D01*
X180Y3005D01*
X180Y3006D01*
X180Y3006D01*
X180Y3006D01*
X180Y3006D01*
X180Y3006D01*
X181Y3006D01*
X181Y3007D01*
X181Y3007D01*
X181Y3007D01*
X182Y3007D01*
X182Y3007D01*
X182Y3007D01*
X182Y3008D01*
X183Y3008D01*
X183Y3008D01*
X183Y3008D01*
X183Y3008D01*
X184Y3008D01*
X184Y3009D01*
X184Y3009D01*
X184Y3009D01*
X185Y3009D01*
X185Y3009D01*
X185Y3009D01*
X185Y3009D01*
X186Y3009D01*
X186Y3010D01*
X186Y3010D01*
X186Y3010D01*
X187Y3010D01*
X187Y3010D01*
X187Y3010D01*
X187Y3011D01*
X188Y3011D01*
X188Y3011D01*
X188Y3011D01*
X188Y3011D01*
X189Y3011D01*
X189Y3012D01*
X189Y3012D01*
X189Y3012D01*
X190Y3012D01*
X190Y3012D01*
X190Y3012D01*
X190Y3013D01*
X191Y3013D01*
X191Y3013D01*
X191Y3013D01*
X191Y3013D01*
X192Y3013D01*
X192Y3013D01*
X192Y3013D01*
X192Y3014D01*
X193Y3014D01*
X193Y3014D01*
X193Y3014D01*
X193Y3014D01*
X194Y3014D01*
X194Y3015D01*
X194Y3015D01*
X194Y3015D01*
X195Y3015D01*
X195Y3015D01*
X195Y3015D01*
X195Y3016D01*
X194Y3016D01*
G37*
D02*
G36*
X95Y3009D02*
X95Y3008D01*
X97Y3008D01*
X97Y3009D01*
X95Y3009D01*
G37*
D02*
G36*
X95Y3009D02*
X95Y3008D01*
X97Y3008D01*
X97Y3009D01*
X95Y3009D01*
G37*
D02*
G36*
X96Y3008D02*
X96Y3008D01*
X97Y3008D01*
X97Y3007D01*
X97Y3007D01*
X97Y3007D01*
X98Y3007D01*
X98Y3007D01*
X98Y3007D01*
X98Y3006D01*
X99Y3006D01*
X99Y3006D01*
X100Y3006D01*
X100Y3006D01*
X100Y3006D01*
X100Y3005D01*
X100Y3005D01*
X100Y3005D01*
X101Y3005D01*
X101Y3005D01*
X102Y3005D01*
X102Y3005D01*
X102Y3005D01*
X102Y3004D01*
X103Y3004D01*
X103Y3004D01*
X103Y3004D01*
X103Y3004D01*
X104Y3004D01*
X104Y3003D01*
X104Y3003D01*
X104Y3003D01*
X105Y3003D01*
X105Y3003D01*
X105Y3003D01*
X105Y3002D01*
X106Y3002D01*
X106Y3002D01*
X107Y3002D01*
X107Y3002D01*
X107Y3002D01*
X107Y3001D01*
X108Y3001D01*
X108Y3001D01*
X108Y3001D01*
X108Y3001D01*
X109Y3001D01*
X109Y3001D01*
X109Y3001D01*
X109Y3000D01*
X110Y3000D01*
X110Y3000D01*
X110Y3000D01*
X110Y3000D01*
X111Y3000D01*
X111Y2999D01*
X112Y2999D01*
X112Y2999D01*
X112Y2999D01*
X112Y2999D01*
X112Y2999D01*
X112Y2998D01*
X113Y2998D01*
X113Y2998D01*
X114Y2998D01*
X114Y2998D01*
X114Y2998D01*
X114Y2997D01*
X115Y2997D01*
X115Y2997D01*
X115Y2997D01*
X115Y2997D01*
X116Y2997D01*
X116Y2997D01*
X116Y2997D01*
X116Y2996D01*
X117Y2996D01*
X117Y2996D01*
X117Y2996D01*
X117Y2996D01*
X118Y2996D01*
X118Y2995D01*
X119Y2995D01*
X119Y2995D01*
X119Y2995D01*
X119Y2995D01*
X120Y2995D01*
X120Y2994D01*
X120Y2994D01*
X120Y2994D01*
X121Y2994D01*
X121Y2994D01*
X121Y2994D01*
X121Y2993D01*
X122Y2993D01*
X122Y2993D01*
X122Y2993D01*
X122Y2993D01*
X124Y2993D01*
X124Y2993D01*
X123Y2993D01*
X123Y2993D01*
X122Y2993D01*
X122Y2994D01*
X122Y2994D01*
X122Y2994D01*
X121Y2994D01*
X121Y2994D01*
X121Y2994D01*
X121Y2995D01*
X120Y2995D01*
X120Y2995D01*
X120Y2995D01*
X120Y2995D01*
X119Y2995D01*
X119Y2996D01*
X119Y2996D01*
X119Y2996D01*
X118Y2996D01*
X118Y2996D01*
X117Y2996D01*
X117Y2997D01*
X117Y2997D01*
X117Y2997D01*
X116Y2997D01*
X116Y2997D01*
X116Y2997D01*
X116Y2997D01*
X115Y2997D01*
X115Y2998D01*
X115Y2998D01*
X115Y2998D01*
X114Y2998D01*
X114Y2998D01*
X114Y2998D01*
X114Y2999D01*
X113Y2999D01*
X113Y2999D01*
X112Y2999D01*
X112Y2999D01*
X112Y2999D01*
X112Y3000D01*
X112Y3000D01*
X112Y3000D01*
X111Y3000D01*
X111Y3000D01*
X110Y3000D01*
X110Y3001D01*
X110Y3001D01*
X110Y3001D01*
X109Y3001D01*
X109Y3001D01*
X109Y3001D01*
X109Y3001D01*
X108Y3001D01*
X108Y3002D01*
X108Y3002D01*
X108Y3002D01*
X107Y3002D01*
X107Y3002D01*
X107Y3002D01*
X107Y3003D01*
X106Y3003D01*
X106Y3003D01*
X105Y3003D01*
X105Y3003D01*
X105Y3003D01*
X105Y3004D01*
X104Y3004D01*
X104Y3004D01*
X104Y3004D01*
X104Y3004D01*
X103Y3004D01*
X103Y3005D01*
X103Y3005D01*
X103Y3005D01*
X102Y3005D01*
X102Y3005D01*
X102Y3005D01*
X102Y3005D01*
X101Y3005D01*
X101Y3006D01*
X100Y3006D01*
X100Y3006D01*
X100Y3006D01*
X100Y3006D01*
X100Y3006D01*
X100Y3007D01*
X99Y3007D01*
X99Y3007D01*
X98Y3007D01*
X98Y3007D01*
X98Y3007D01*
X98Y3008D01*
X97Y3008D01*
X97Y3008D01*
X97Y3008D01*
X97Y3008D01*
X96Y3008D01*
G37*
D02*
G36*
X96Y3008D02*
X96Y2989D01*
X96Y2989D01*
X96Y3008D01*
X96Y3008D01*
G37*
D02*
G36*
X71Y3004D02*
X71Y3004D01*
X72Y3004D01*
X72Y3004D01*
X71Y3004D01*
G37*
D02*
G36*
X71Y3004D02*
X71Y3004D01*
X72Y3004D01*
X72Y3004D01*
X71Y3004D01*
G37*
D02*
G36*
X71Y3004D02*
X71Y3004D01*
X72Y3004D01*
X72Y3003D01*
X72Y3003D01*
X72Y3003D01*
X72Y3003D01*
X72Y3003D01*
X73Y3003D01*
X73Y3002D01*
X73Y3002D01*
X73Y3002D01*
X74Y3002D01*
X74Y3002D01*
X75Y3002D01*
X75Y3001D01*
X75Y3001D01*
X75Y3001D01*
X76Y3001D01*
X76Y3001D01*
X76Y3001D01*
X76Y3001D01*
X76Y3001D01*
X76Y3000D01*
X77Y3000D01*
X77Y3000D01*
X77Y3000D01*
X77Y3000D01*
X78Y3000D01*
X78Y2999D01*
X78Y2999D01*
X78Y2999D01*
X79Y2999D01*
X79Y2999D01*
X80Y2999D01*
X80Y2998D01*
X80Y2998D01*
X80Y2998D01*
X80Y2998D01*
X80Y2998D01*
X81Y2998D01*
X81Y2997D01*
X81Y2997D01*
X81Y2997D01*
X82Y2997D01*
X82Y2997D01*
X82Y2997D01*
X82Y2997D01*
X83Y2997D01*
X83Y2996D01*
X83Y2996D01*
X83Y2996D01*
X84Y2996D01*
X84Y2996D01*
X84Y2996D01*
X84Y2995D01*
X85Y2995D01*
X85Y2995D01*
X85Y2995D01*
X85Y2995D01*
X86Y2995D01*
X86Y2994D01*
X86Y2994D01*
X86Y2994D01*
X87Y2994D01*
X87Y2994D01*
X87Y2994D01*
X87Y2993D01*
X88Y2993D01*
X88Y2993D01*
X88Y2993D01*
X88Y2993D01*
X89Y2993D01*
X89Y2993D01*
X89Y2993D01*
X89Y2992D01*
X90Y2992D01*
X90Y2992D01*
X90Y2992D01*
X90Y2992D01*
X91Y2992D01*
X91Y2991D01*
X91Y2991D01*
X91Y2991D01*
X92Y2991D01*
X92Y2991D01*
X92Y2991D01*
X92Y2990D01*
X93Y2990D01*
X93Y2990D01*
X93Y2990D01*
X93Y2990D01*
X94Y2990D01*
X94Y2989D01*
X94Y2989D01*
X94Y2989D01*
X95Y2989D01*
X95Y2989D01*
X95Y2989D01*
X95Y2990D01*
X94Y2990D01*
X94Y2990D01*
X94Y2990D01*
X94Y2990D01*
X93Y2990D01*
X93Y2991D01*
X93Y2991D01*
X93Y2991D01*
X92Y2991D01*
X92Y2991D01*
X92Y2991D01*
X92Y2992D01*
X91Y2992D01*
X91Y2992D01*
X91Y2992D01*
X91Y2992D01*
X90Y2992D01*
X90Y2993D01*
X90Y2993D01*
X90Y2993D01*
X89Y2993D01*
X89Y2993D01*
X89Y2993D01*
X89Y2993D01*
X88Y2993D01*
X88Y2994D01*
X88Y2994D01*
X88Y2994D01*
X87Y2994D01*
X87Y2994D01*
X87Y2994D01*
X87Y2995D01*
X86Y2995D01*
X86Y2995D01*
X86Y2995D01*
X86Y2995D01*
X85Y2995D01*
X85Y2996D01*
X85Y2996D01*
X85Y2996D01*
X84Y2996D01*
X84Y2996D01*
X84Y2996D01*
X84Y2997D01*
X84Y2997D01*
X84Y2997D01*
X83Y2997D01*
X83Y2997D01*
X82Y2997D01*
X82Y2997D01*
X82Y2997D01*
X82Y2998D01*
X81Y2998D01*
X81Y2998D01*
X81Y2998D01*
X81Y2998D01*
X80Y2998D01*
X80Y2999D01*
X80Y2999D01*
X80Y2999D01*
X80Y2999D01*
X80Y2999D01*
X79Y2999D01*
X79Y3000D01*
X79Y3000D01*
X79Y3000D01*
X78Y3000D01*
X78Y3000D01*
X77Y3000D01*
X77Y3001D01*
X77Y3001D01*
X77Y3001D01*
X76Y3001D01*
X76Y3001D01*
X76Y3001D01*
X76Y3001D01*
X76Y3001D01*
X76Y3002D01*
X75Y3002D01*
X75Y3002D01*
X75Y3002D01*
X75Y3002D01*
X74Y3002D01*
X74Y3003D01*
X74Y3003D01*
X74Y3003D01*
X73Y3003D01*
X73Y3003D01*
X73Y3003D01*
X73Y3004D01*
X72Y3004D01*
X72Y3004D01*
X71Y3004D01*
G37*
D02*
G36*
X173Y3003D02*
X173Y3002D01*
X173Y3002D01*
X173Y3002D01*
X172Y3002D01*
X172Y3002D01*
X172Y3002D01*
X172Y3001D01*
X172Y3001D01*
X172Y3001D01*
X171Y3001D01*
X171Y3001D01*
X171Y3001D01*
X171Y3001D01*
X170Y3001D01*
X170Y3000D01*
X170Y3000D01*
X170Y3000D01*
X169Y3000D01*
X169Y3000D01*
X169Y3000D01*
X169Y2999D01*
X168Y2999D01*
X168Y2999D01*
X168Y2999D01*
X168Y2999D01*
X167Y2999D01*
X167Y2998D01*
X167Y2998D01*
X167Y2998D01*
X166Y2998D01*
X166Y2998D01*
X166Y2998D01*
X166Y2997D01*
X165Y2997D01*
X165Y2997D01*
X165Y2997D01*
X165Y2997D01*
X164Y2997D01*
X164Y2997D01*
X164Y2997D01*
X164Y2996D01*
X163Y2996D01*
X163Y2996D01*
X163Y2996D01*
X163Y2996D01*
X162Y2996D01*
X162Y2995D01*
X162Y2995D01*
X162Y2995D01*
X161Y2995D01*
X161Y2995D01*
X161Y2995D01*
X161Y2994D01*
X160Y2994D01*
X160Y2994D01*
X160Y2994D01*
X160Y2994D01*
X159Y2994D01*
X159Y2993D01*
X159Y2993D01*
X159Y2993D01*
X158Y2993D01*
X158Y2993D01*
X158Y2993D01*
X158Y2993D01*
X157Y2993D01*
X157Y2992D01*
X157Y2992D01*
X157Y2992D01*
X156Y2992D01*
X156Y2992D01*
X156Y2992D01*
X156Y2991D01*
X156Y2991D01*
X156Y2991D01*
X155Y2991D01*
X155Y2991D01*
X154Y2991D01*
X154Y2990D01*
X154Y2990D01*
X154Y2990D01*
X153Y2990D01*
X153Y2990D01*
X153Y2990D01*
X153Y2989D01*
X152Y2989D01*
X152Y2989D01*
X152Y2989D01*
X152Y2989D01*
X152Y2989D01*
X152Y2989D01*
X151Y2989D01*
X151Y2988D01*
X151Y2988D01*
X151Y2988D01*
X152Y2988D01*
X152Y2969D01*
X152Y2969D01*
X152Y2989D01*
X152Y2989D01*
X152Y2989D01*
X153Y2989D01*
X153Y2989D01*
X153Y2989D01*
X153Y2989D01*
X154Y2989D01*
X154Y2990D01*
X155Y2990D01*
X155Y2990D01*
X155Y2990D01*
X155Y2990D01*
X156Y2990D01*
X156Y2991D01*
X156Y2991D01*
X156Y2991D01*
X156Y2991D01*
X156Y2991D01*
X157Y2991D01*
X157Y2992D01*
X157Y2992D01*
X157Y2992D01*
X158Y2992D01*
X158Y2992D01*
X158Y2992D01*
X158Y2993D01*
X159Y2993D01*
X159Y2993D01*
X159Y2993D01*
X159Y2993D01*
X160Y2993D01*
X160Y2993D01*
X160Y2993D01*
X160Y2994D01*
X161Y2994D01*
X161Y2994D01*
X161Y2994D01*
X161Y2994D01*
X162Y2994D01*
X162Y2995D01*
X162Y2995D01*
X162Y2995D01*
X163Y2995D01*
X163Y2995D01*
X163Y2995D01*
X163Y2996D01*
X164Y2996D01*
X164Y2996D01*
X164Y2996D01*
X164Y2996D01*
X165Y2996D01*
X165Y2997D01*
X165Y2997D01*
X165Y2997D01*
X166Y2997D01*
X166Y2997D01*
X166Y2997D01*
X166Y2997D01*
X167Y2997D01*
X167Y2998D01*
X167Y2998D01*
X167Y2998D01*
X168Y2998D01*
X168Y2998D01*
X168Y2998D01*
X168Y2999D01*
X169Y2999D01*
X169Y2999D01*
X169Y2999D01*
X169Y2999D01*
X170Y2999D01*
X170Y3000D01*
X170Y3000D01*
X170Y3000D01*
X171Y3000D01*
X171Y3000D01*
X171Y3000D01*
X171Y3001D01*
X172Y3001D01*
X172Y3001D01*
X172Y3001D01*
X172Y3001D01*
X172Y3001D01*
X172Y3001D01*
X173Y3001D01*
X173Y3002D01*
X174Y3002D01*
X174Y3002D01*
X174Y3002D01*
X174Y3002D01*
X175Y3002D01*
X175Y3003D01*
X173Y3003D01*
G37*
D02*
G36*
X52Y2998D02*
X52Y2982D01*
X52Y2982D01*
X52Y2982D01*
X52Y2982D01*
X52Y2981D01*
X52Y2981D01*
X52Y2981D01*
X53Y2981D01*
X53Y2981D01*
X53Y2981D01*
X53Y2981D01*
X54Y2981D01*
X54Y2980D01*
X54Y2980D01*
X54Y2980D01*
X55Y2980D01*
X55Y2980D01*
X55Y2980D01*
X55Y2979D01*
X56Y2979D01*
X56Y2979D01*
X56Y2979D01*
X56Y2979D01*
X56Y2979D01*
X56Y2978D01*
X57Y2978D01*
X57Y2978D01*
X57Y2978D01*
X57Y2978D01*
X57Y2978D01*
X57Y2977D01*
X58Y2977D01*
X58Y2977D01*
X58Y2977D01*
X58Y2977D01*
X59Y2977D01*
X59Y2977D01*
X59Y2977D01*
X59Y2976D01*
X60Y2976D01*
X60Y2976D01*
X60Y2976D01*
X60Y2976D01*
X60Y2976D01*
X60Y2975D01*
X61Y2975D01*
X61Y2975D01*
X61Y2975D01*
X61Y2975D01*
X62Y2975D01*
X62Y2974D01*
X62Y2974D01*
X62Y2974D01*
X62Y2974D01*
X62Y2974D01*
X63Y2974D01*
X63Y2973D01*
X63Y2973D01*
X63Y2973D01*
X64Y2973D01*
X64Y2973D01*
X64Y2973D01*
X64Y2973D01*
X64Y2973D01*
X64Y2972D01*
X65Y2972D01*
X65Y2972D01*
X65Y2972D01*
X65Y2972D01*
X66Y2972D01*
X66Y2971D01*
X66Y2971D01*
X66Y2971D01*
X67Y2971D01*
X67Y2971D01*
X67Y2971D01*
X67Y2970D01*
X67Y2970D01*
X67Y2970D01*
X68Y2970D01*
X68Y2970D01*
X68Y2970D01*
X68Y2969D01*
X68Y2969D01*
X68Y2969D01*
X69Y2969D01*
X69Y2969D01*
X69Y2969D01*
X69Y2969D01*
X70Y2969D01*
X70Y2968D01*
X70Y2968D01*
X70Y2968D01*
X71Y2968D01*
X71Y2968D01*
X72Y2968D01*
X72Y2968D01*
X71Y2968D01*
X71Y2968D01*
X71Y2968D01*
X71Y2969D01*
X70Y2969D01*
X70Y2969D01*
X70Y2969D01*
X70Y2969D01*
X69Y2969D01*
X69Y2969D01*
X69Y2969D01*
X69Y2970D01*
X69Y2970D01*
X69Y2970D01*
X68Y2970D01*
X68Y2970D01*
X68Y2970D01*
X68Y2971D01*
X68Y2971D01*
X68Y2971D01*
X67Y2971D01*
X67Y2971D01*
X67Y2971D01*
X67Y2972D01*
X66Y2972D01*
X66Y2972D01*
X66Y2972D01*
X66Y2972D01*
X65Y2972D01*
X65Y2973D01*
X65Y2973D01*
X65Y2973D01*
X64Y2973D01*
X64Y2973D01*
X64Y2973D01*
X64Y2973D01*
X64Y2973D01*
X64Y2974D01*
X63Y2974D01*
X63Y2974D01*
X63Y2974D01*
X63Y2974D01*
X63Y2974D01*
X63Y2975D01*
X62Y2975D01*
X62Y2975D01*
X62Y2975D01*
X62Y2975D01*
X61Y2975D01*
X61Y2976D01*
X61Y2976D01*
X61Y2976D01*
X60Y2976D01*
X60Y2976D01*
X60Y2976D01*
X60Y2977D01*
X60Y2977D01*
X60Y2977D01*
X59Y2977D01*
X59Y2977D01*
X59Y2977D01*
X59Y2977D01*
X58Y2977D01*
X58Y2978D01*
X58Y2978D01*
X58Y2978D01*
X58Y2978D01*
X58Y2978D01*
X57Y2978D01*
X57Y2979D01*
X57Y2979D01*
X57Y2979D01*
X56Y2979D01*
X56Y2979D01*
X56Y2979D01*
X56Y2980D01*
X56Y2980D01*
X56Y2980D01*
X55Y2980D01*
X55Y2980D01*
X55Y2980D01*
X55Y2981D01*
X54Y2981D01*
X54Y2981D01*
X54Y2981D01*
X54Y2981D01*
X53Y2981D01*
X53Y2981D01*
X53Y2981D01*
X53Y2982D01*
X53Y2982D01*
X53Y2982D01*
X52Y2982D01*
X52Y2998D01*
X52Y2998D01*
G37*
D02*
G36*
X194Y2998D02*
X194Y2998D01*
X193Y2998D01*
X193Y2998D01*
X193Y2998D01*
X193Y2997D01*
X192Y2997D01*
X192Y2997D01*
X192Y2997D01*
X192Y2997D01*
X192Y2997D01*
X192Y2997D01*
X191Y2997D01*
X191Y2996D01*
X191Y2996D01*
X191Y2996D01*
X190Y2996D01*
X190Y2996D01*
X190Y2996D01*
X190Y2995D01*
X189Y2995D01*
X189Y2995D01*
X189Y2995D01*
X189Y2995D01*
X188Y2995D01*
X188Y2994D01*
X188Y2994D01*
X188Y2994D01*
X188Y2994D01*
X188Y2994D01*
X187Y2994D01*
X187Y2993D01*
X187Y2993D01*
X187Y2993D01*
X186Y2993D01*
X186Y2993D01*
X186Y2993D01*
X186Y2993D01*
X185Y2993D01*
X185Y2992D01*
X185Y2992D01*
X185Y2992D01*
X184Y2992D01*
X184Y2992D01*
X184Y2992D01*
X184Y2991D01*
X184Y2991D01*
X184Y2991D01*
X183Y2991D01*
X183Y2991D01*
X183Y2991D01*
X183Y2990D01*
X182Y2990D01*
X182Y2990D01*
X182Y2990D01*
X182Y2990D01*
X181Y2990D01*
X181Y2989D01*
X181Y2989D01*
X181Y2989D01*
X180Y2989D01*
X180Y2989D01*
X180Y2989D01*
X180Y2989D01*
X180Y2989D01*
X180Y2988D01*
X179Y2988D01*
X179Y2988D01*
X179Y2988D01*
X179Y2988D01*
X178Y2988D01*
X178Y2987D01*
X178Y2987D01*
X178Y2987D01*
X177Y2987D01*
X177Y2987D01*
X177Y2987D01*
X177Y2986D01*
X176Y2986D01*
X176Y2986D01*
X176Y2986D01*
X176Y2986D01*
X177Y2986D01*
X177Y2986D01*
X177Y2986D01*
X177Y2986D01*
X178Y2986D01*
X178Y2987D01*
X178Y2987D01*
X178Y2987D01*
X179Y2987D01*
X179Y2987D01*
X179Y2987D01*
X179Y2988D01*
X180Y2988D01*
X180Y2988D01*
X180Y2988D01*
X180Y2988D01*
X180Y2988D01*
X180Y2989D01*
X181Y2989D01*
X181Y2989D01*
X181Y2989D01*
X181Y2989D01*
X182Y2989D01*
X182Y2989D01*
X182Y2989D01*
X182Y2990D01*
X183Y2990D01*
X183Y2990D01*
X183Y2990D01*
X183Y2990D01*
X184Y2990D01*
X184Y2991D01*
X184Y2991D01*
X184Y2991D01*
X184Y2991D01*
X184Y2991D01*
X185Y2991D01*
X185Y2992D01*
X185Y2992D01*
X185Y2992D01*
X186Y2992D01*
X186Y2992D01*
X186Y2992D01*
X186Y2993D01*
X187Y2993D01*
X187Y2993D01*
X187Y2993D01*
X187Y2993D01*
X188Y2993D01*
X188Y2993D01*
X188Y2993D01*
X188Y2994D01*
X188Y2994D01*
X188Y2994D01*
X189Y2994D01*
X189Y2994D01*
X189Y2994D01*
X189Y2995D01*
X190Y2995D01*
X190Y2995D01*
X190Y2995D01*
X190Y2995D01*
X191Y2995D01*
X191Y2996D01*
X191Y2996D01*
X191Y2996D01*
X192Y2996D01*
X192Y2996D01*
X192Y2996D01*
X192Y2997D01*
X192Y2997D01*
X192Y2997D01*
X193Y2997D01*
X193Y2997D01*
X193Y2997D01*
X193Y2997D01*
X194Y2997D01*
X194Y2998D01*
X194Y2998D01*
X194Y2998D01*
X195Y2998D01*
X195Y2998D01*
X194Y2998D01*
G37*
D02*
G36*
X123Y2993D02*
X123Y2993D01*
X125Y2993D01*
X125Y2993D01*
X123Y2993D01*
G37*
D02*
G36*
X123Y2993D02*
X123Y2993D01*
X125Y2993D01*
X125Y2993D01*
X123Y2993D01*
G37*
D02*
G36*
X123Y2993D02*
X123Y2992D01*
X124Y2992D01*
X124Y2972D01*
X124Y2972D01*
X124Y2993D01*
X123Y2993D01*
G37*
D02*
G36*
X95Y2989D02*
X95Y2989D01*
X96Y2989D01*
X96Y2989D01*
X95Y2989D01*
G37*
D02*
G36*
X95Y2989D02*
X95Y2989D01*
X96Y2989D01*
X96Y2989D01*
X95Y2989D01*
G37*
D02*
G36*
X95Y2989D02*
X95Y2989D01*
X96Y2989D01*
X96Y2988D01*
X96Y2988D01*
X96Y2988D01*
X96Y2988D01*
X96Y2988D01*
X97Y2988D01*
X97Y2987D01*
X97Y2987D01*
X97Y2987D01*
X98Y2987D01*
X98Y2987D01*
X99Y2987D01*
X99Y2986D01*
X99Y2986D01*
X99Y2986D01*
X100Y2986D01*
X100Y2986D01*
X100Y2986D01*
X100Y2985D01*
X100Y2985D01*
X100Y2985D01*
X101Y2985D01*
X101Y2985D01*
X101Y2985D01*
X101Y2985D01*
X102Y2985D01*
X102Y2984D01*
X102Y2984D01*
X102Y2984D01*
X103Y2984D01*
X103Y2984D01*
X104Y2984D01*
X104Y2983D01*
X104Y2983D01*
X104Y2983D01*
X104Y2983D01*
X104Y2983D01*
X105Y2983D01*
X105Y2982D01*
X105Y2982D01*
X105Y2982D01*
X106Y2982D01*
X106Y2982D01*
X106Y2982D01*
X106Y2981D01*
X107Y2981D01*
X107Y2981D01*
X107Y2981D01*
X107Y2981D01*
X108Y2981D01*
X108Y2981D01*
X108Y2981D01*
X108Y2980D01*
X109Y2980D01*
X109Y2980D01*
X109Y2980D01*
X109Y2980D01*
X110Y2980D01*
X110Y2979D01*
X110Y2979D01*
X110Y2979D01*
X111Y2979D01*
X111Y2979D01*
X111Y2979D01*
X111Y2978D01*
X112Y2978D01*
X112Y2978D01*
X112Y2978D01*
X112Y2978D01*
X113Y2978D01*
X113Y2977D01*
X113Y2977D01*
X113Y2977D01*
X114Y2977D01*
X114Y2977D01*
X114Y2977D01*
X114Y2977D01*
X115Y2977D01*
X115Y2976D01*
X115Y2976D01*
X115Y2976D01*
X116Y2976D01*
X116Y2976D01*
X116Y2976D01*
X116Y2975D01*
X117Y2975D01*
X117Y2975D01*
X117Y2975D01*
X117Y2975D01*
X118Y2975D01*
X118Y2974D01*
X118Y2974D01*
X118Y2974D01*
X119Y2974D01*
X119Y2974D01*
X119Y2974D01*
X119Y2973D01*
X120Y2973D01*
X120Y2973D01*
X120Y2973D01*
X120Y2973D01*
X120Y2973D01*
X120Y2973D01*
X121Y2973D01*
X121Y2972D01*
X121Y2972D01*
X121Y2972D01*
X122Y2972D01*
X122Y2972D01*
X123Y2972D01*
X123Y2972D01*
X123Y2972D01*
X123Y2972D01*
X122Y2972D01*
X122Y2973D01*
X122Y2973D01*
X122Y2973D01*
X121Y2973D01*
X121Y2973D01*
X121Y2973D01*
X121Y2973D01*
X120Y2973D01*
X120Y2974D01*
X120Y2974D01*
X120Y2974D01*
X119Y2974D01*
X119Y2974D01*
X119Y2974D01*
X119Y2975D01*
X118Y2975D01*
X118Y2975D01*
X118Y2975D01*
X118Y2975D01*
X117Y2975D01*
X117Y2976D01*
X117Y2976D01*
X117Y2976D01*
X116Y2976D01*
X116Y2976D01*
X116Y2976D01*
X116Y2977D01*
X115Y2977D01*
X115Y2977D01*
X115Y2977D01*
X115Y2977D01*
X114Y2977D01*
X114Y2977D01*
X114Y2977D01*
X114Y2978D01*
X113Y2978D01*
X113Y2978D01*
X113Y2978D01*
X113Y2978D01*
X112Y2978D01*
X112Y2979D01*
X112Y2979D01*
X112Y2979D01*
X111Y2979D01*
X111Y2979D01*
X111Y2979D01*
X111Y2980D01*
X110Y2980D01*
X110Y2980D01*
X110Y2980D01*
X110Y2980D01*
X109Y2980D01*
X109Y2981D01*
X109Y2981D01*
X109Y2981D01*
X108Y2981D01*
X108Y2981D01*
X108Y2981D01*
X108Y2981D01*
X108Y2981D01*
X108Y2982D01*
X107Y2982D01*
X107Y2982D01*
X106Y2982D01*
X106Y2982D01*
X106Y2982D01*
X106Y2983D01*
X105Y2983D01*
X105Y2983D01*
X105Y2983D01*
X105Y2983D01*
X104Y2983D01*
X104Y2984D01*
X104Y2984D01*
X104Y2984D01*
X104Y2984D01*
X104Y2984D01*
X103Y2984D01*
X103Y2985D01*
X103Y2985D01*
X103Y2985D01*
X102Y2985D01*
X102Y2985D01*
X101Y2985D01*
X101Y2985D01*
X101Y2985D01*
X101Y2986D01*
X100Y2986D01*
X100Y2986D01*
X100Y2986D01*
X100Y2986D01*
X100Y2986D01*
X100Y2987D01*
X99Y2987D01*
X99Y2987D01*
X99Y2987D01*
X99Y2987D01*
X98Y2987D01*
X98Y2988D01*
X98Y2988D01*
X98Y2988D01*
X97Y2988D01*
X97Y2988D01*
X97Y2988D01*
X97Y2989D01*
X96Y2989D01*
X96Y2989D01*
X95Y2989D01*
G37*
D02*
G36*
X150Y2988D02*
X150Y2988D01*
X149Y2988D01*
X149Y2987D01*
X149Y2987D01*
X149Y2987D01*
X148Y2987D01*
X148Y2987D01*
X148Y2987D01*
X148Y2986D01*
X148Y2986D01*
X148Y2986D01*
X147Y2986D01*
X147Y2986D01*
X147Y2986D01*
X147Y2985D01*
X146Y2985D01*
X146Y2985D01*
X146Y2985D01*
X146Y2985D01*
X145Y2985D01*
X145Y2985D01*
X144Y2985D01*
X144Y2984D01*
X144Y2984D01*
X144Y2984D01*
X144Y2984D01*
X144Y2984D01*
X143Y2984D01*
X143Y2983D01*
X143Y2983D01*
X143Y2983D01*
X142Y2983D01*
X142Y2983D01*
X142Y2983D01*
X142Y2982D01*
X141Y2982D01*
X141Y2982D01*
X141Y2982D01*
X141Y2982D01*
X140Y2982D01*
X140Y2981D01*
X140Y2981D01*
X140Y2981D01*
X139Y2981D01*
X139Y2981D01*
X139Y2981D01*
X139Y2981D01*
X138Y2981D01*
X138Y2980D01*
X138Y2980D01*
X138Y2980D01*
X137Y2980D01*
X137Y2980D01*
X137Y2980D01*
X137Y2979D01*
X136Y2979D01*
X136Y2979D01*
X136Y2979D01*
X136Y2979D01*
X135Y2979D01*
X135Y2978D01*
X135Y2978D01*
X135Y2978D01*
X134Y2978D01*
X134Y2978D01*
X134Y2978D01*
X134Y2977D01*
X133Y2977D01*
X133Y2977D01*
X133Y2977D01*
X133Y2977D01*
X132Y2977D01*
X132Y2977D01*
X132Y2977D01*
X132Y2976D01*
X132Y2976D01*
X132Y2976D01*
X131Y2976D01*
X131Y2976D01*
X130Y2976D01*
X130Y2975D01*
X130Y2975D01*
X130Y2975D01*
X129Y2975D01*
X129Y2975D01*
X129Y2975D01*
X129Y2974D01*
X128Y2974D01*
X128Y2974D01*
X128Y2974D01*
X128Y2974D01*
X128Y2974D01*
X128Y2973D01*
X127Y2973D01*
X127Y2973D01*
X127Y2973D01*
X127Y2973D01*
X126Y2973D01*
X126Y2973D01*
X125Y2973D01*
X125Y2972D01*
X125Y2972D01*
X125Y2972D01*
X124Y2972D01*
X124Y2972D01*
X126Y2972D01*
X126Y2972D01*
X126Y2972D01*
X126Y2972D01*
X127Y2972D01*
X127Y2973D01*
X127Y2973D01*
X127Y2973D01*
X128Y2973D01*
X128Y2973D01*
X128Y2973D01*
X128Y2973D01*
X128Y2973D01*
X128Y2974D01*
X129Y2974D01*
X129Y2974D01*
X129Y2974D01*
X129Y2974D01*
X130Y2974D01*
X130Y2975D01*
X131Y2975D01*
X131Y2975D01*
X131Y2975D01*
X131Y2975D01*
X132Y2975D01*
X132Y2976D01*
X132Y2976D01*
X132Y2976D01*
X132Y2976D01*
X132Y2976D01*
X133Y2976D01*
X133Y2977D01*
X133Y2977D01*
X133Y2977D01*
X134Y2977D01*
X134Y2977D01*
X134Y2977D01*
X134Y2977D01*
X135Y2977D01*
X135Y2978D01*
X135Y2978D01*
X135Y2978D01*
X136Y2978D01*
X136Y2978D01*
X136Y2978D01*
X136Y2979D01*
X137Y2979D01*
X137Y2979D01*
X137Y2979D01*
X137Y2979D01*
X138Y2979D01*
X138Y2980D01*
X138Y2980D01*
X138Y2980D01*
X139Y2980D01*
X139Y2980D01*
X139Y2980D01*
X139Y2981D01*
X140Y2981D01*
X140Y2981D01*
X140Y2981D01*
X140Y2981D01*
X141Y2981D01*
X141Y2981D01*
X141Y2981D01*
X141Y2982D01*
X142Y2982D01*
X142Y2982D01*
X142Y2982D01*
X142Y2982D01*
X143Y2982D01*
X143Y2983D01*
X143Y2983D01*
X143Y2983D01*
X144Y2983D01*
X144Y2983D01*
X144Y2983D01*
X144Y2984D01*
X145Y2984D01*
X145Y2984D01*
X145Y2984D01*
X145Y2984D01*
X146Y2984D01*
X146Y2985D01*
X146Y2985D01*
X146Y2985D01*
X147Y2985D01*
X147Y2985D01*
X147Y2985D01*
X147Y2985D01*
X148Y2985D01*
X148Y2986D01*
X148Y2986D01*
X148Y2986D01*
X148Y2986D01*
X148Y2986D01*
X149Y2986D01*
X149Y2987D01*
X150Y2987D01*
X150Y2987D01*
X150Y2987D01*
X150Y2987D01*
X151Y2987D01*
X151Y2988D01*
X151Y2988D01*
X151Y2988D01*
X150Y2988D01*
G37*
D02*
G36*
X175Y2986D02*
X175Y2985D01*
X176Y2985D01*
X176Y2986D01*
X175Y2986D01*
G37*
D02*
G36*
X175Y2986D02*
X175Y2985D01*
X176Y2985D01*
X176Y2986D01*
X175Y2986D01*
G37*
D02*
G36*
X175Y2985D02*
X175Y2985D01*
X175Y2985D01*
X175Y2985D01*
X174Y2985D01*
X174Y2985D01*
X174Y2985D01*
X174Y2984D01*
X173Y2984D01*
X173Y2984D01*
X173Y2984D01*
X173Y2984D01*
X172Y2984D01*
X172Y2983D01*
X172Y2983D01*
X172Y2983D01*
X172Y2983D01*
X172Y2983D01*
X171Y2983D01*
X171Y2982D01*
X171Y2982D01*
X171Y2982D01*
X170Y2982D01*
X170Y2982D01*
X170Y2982D01*
X170Y2981D01*
X169Y2981D01*
X169Y2981D01*
X169Y2981D01*
X169Y2981D01*
X168Y2981D01*
X168Y2981D01*
X168Y2981D01*
X168Y2980D01*
X168Y2980D01*
X168Y2980D01*
X167Y2980D01*
X167Y2980D01*
X167Y2980D01*
X167Y2979D01*
X166Y2979D01*
X166Y2979D01*
X166Y2979D01*
X166Y2979D01*
X165Y2979D01*
X165Y2978D01*
X165Y2978D01*
X165Y2978D01*
X164Y2978D01*
X164Y2978D01*
X164Y2978D01*
X164Y2977D01*
X164Y2977D01*
X164Y2977D01*
X163Y2977D01*
X163Y2977D01*
X163Y2977D01*
X163Y2977D01*
X162Y2977D01*
X162Y2976D01*
X162Y2976D01*
X162Y2976D01*
X161Y2976D01*
X161Y2976D01*
X161Y2976D01*
X161Y2975D01*
X160Y2975D01*
X160Y2975D01*
X160Y2975D01*
X160Y2975D01*
X160Y2975D01*
X160Y2974D01*
X159Y2974D01*
X159Y2974D01*
X159Y2974D01*
X159Y2974D01*
X158Y2974D01*
X158Y2973D01*
X158Y2973D01*
X158Y2973D01*
X157Y2973D01*
X157Y2973D01*
X157Y2973D01*
X157Y2973D01*
X156Y2973D01*
X156Y2972D01*
X156Y2972D01*
X156Y2972D01*
X156Y2972D01*
X156Y2972D01*
X155Y2972D01*
X155Y2971D01*
X155Y2971D01*
X155Y2971D01*
X154Y2971D01*
X154Y2971D01*
X154Y2971D01*
X154Y2970D01*
X153Y2970D01*
X153Y2970D01*
X153Y2970D01*
X153Y2970D01*
X152Y2970D01*
X152Y2969D01*
X153Y2969D01*
X153Y2970D01*
X154Y2970D01*
X154Y2970D01*
X154Y2970D01*
X154Y2970D01*
X155Y2970D01*
X155Y2971D01*
X155Y2971D01*
X155Y2971D01*
X156Y2971D01*
X156Y2971D01*
X156Y2971D01*
X156Y2972D01*
X156Y2972D01*
X156Y2972D01*
X157Y2972D01*
X157Y2972D01*
X157Y2972D01*
X157Y2973D01*
X158Y2973D01*
X158Y2973D01*
X158Y2973D01*
X158Y2973D01*
X159Y2973D01*
X159Y2973D01*
X159Y2973D01*
X159Y2974D01*
X160Y2974D01*
X160Y2974D01*
X160Y2974D01*
X160Y2974D01*
X160Y2974D01*
X160Y2975D01*
X161Y2975D01*
X161Y2975D01*
X161Y2975D01*
X161Y2975D01*
X162Y2975D01*
X162Y2976D01*
X162Y2976D01*
X162Y2976D01*
X163Y2976D01*
X163Y2976D01*
X163Y2976D01*
X163Y2977D01*
X164Y2977D01*
X164Y2977D01*
X164Y2977D01*
X164Y2977D01*
X164Y2977D01*
X164Y2977D01*
X165Y2977D01*
X165Y2978D01*
X165Y2978D01*
X165Y2978D01*
X166Y2978D01*
X166Y2978D01*
X166Y2978D01*
X166Y2979D01*
X167Y2979D01*
X167Y2979D01*
X167Y2979D01*
X167Y2979D01*
X168Y2979D01*
X168Y2980D01*
X168Y2980D01*
X168Y2980D01*
X168Y2980D01*
X168Y2980D01*
X169Y2980D01*
X169Y2981D01*
X169Y2981D01*
X169Y2981D01*
X170Y2981D01*
X170Y2981D01*
X170Y2981D01*
X170Y2981D01*
X171Y2981D01*
X171Y2982D01*
X171Y2982D01*
X171Y2982D01*
X172Y2982D01*
X172Y2982D01*
X172Y2982D01*
X172Y2983D01*
X172Y2983D01*
X172Y2983D01*
X173Y2983D01*
X173Y2983D01*
X173Y2983D01*
X173Y2984D01*
X174Y2984D01*
X174Y2984D01*
X174Y2984D01*
X174Y2984D01*
X175Y2984D01*
X175Y2985D01*
X175Y2985D01*
X175Y2985D01*
X176Y2985D01*
X176Y2985D01*
X176Y2985D01*
X176Y2985D01*
X175Y2985D01*
G37*
D02*
G36*
X72Y2985D02*
X72Y2968D01*
X72Y2968D01*
X72Y2985D01*
X72Y2985D01*
G37*
D02*
G36*
X123Y2972D02*
X123Y2971D01*
X125Y2971D01*
X125Y2972D01*
X123Y2972D01*
G37*
D02*
G36*
X123Y2972D02*
X123Y2971D01*
X125Y2971D01*
X125Y2972D01*
X123Y2972D01*
G37*
D02*
G36*
X123Y2972D02*
X123Y2971D01*
X125Y2971D01*
X125Y2972D01*
X123Y2972D01*
G37*
D02*
G36*
X123Y2971D02*
X123Y2971D01*
X123Y2971D01*
X123Y2950D01*
X124Y2950D01*
X124Y2971D01*
X124Y2971D01*
X124Y2971D01*
X123Y2971D01*
G37*
D02*
G36*
X152Y2969D02*
X152Y2969D01*
X153Y2969D01*
X153Y2969D01*
X152Y2969D01*
G37*
D02*
G36*
X152Y2969D02*
X152Y2969D01*
X153Y2969D01*
X153Y2969D01*
X152Y2969D01*
G37*
D02*
G36*
X151Y2969D02*
X151Y2969D01*
X151Y2969D01*
X151Y2969D01*
X150Y2969D01*
X150Y2968D01*
X150Y2968D01*
X150Y2968D01*
X149Y2968D01*
X149Y2968D01*
X149Y2968D01*
X149Y2967D01*
X148Y2967D01*
X148Y2967D01*
X148Y2967D01*
X148Y2967D01*
X148Y2967D01*
X148Y2966D01*
X147Y2966D01*
X147Y2966D01*
X147Y2966D01*
X147Y2966D01*
X146Y2966D01*
X146Y2965D01*
X146Y2965D01*
X146Y2965D01*
X145Y2965D01*
X145Y2965D01*
X145Y2965D01*
X145Y2965D01*
X144Y2965D01*
X144Y2964D01*
X144Y2964D01*
X144Y2964D01*
X144Y2964D01*
X144Y2964D01*
X143Y2964D01*
X143Y2963D01*
X143Y2963D01*
X143Y2963D01*
X142Y2963D01*
X142Y2963D01*
X142Y2963D01*
X142Y2962D01*
X141Y2962D01*
X141Y2962D01*
X141Y2962D01*
X141Y2962D01*
X140Y2962D01*
X140Y2961D01*
X140Y2961D01*
X140Y2961D01*
X140Y2961D01*
X140Y2961D01*
X139Y2961D01*
X139Y2961D01*
X139Y2961D01*
X139Y2960D01*
X138Y2960D01*
X138Y2960D01*
X138Y2960D01*
X138Y2960D01*
X137Y2960D01*
X137Y2959D01*
X137Y2959D01*
X137Y2959D01*
X136Y2959D01*
X136Y2959D01*
X136Y2959D01*
X136Y2958D01*
X136Y2958D01*
X136Y2958D01*
X135Y2958D01*
X135Y2958D01*
X135Y2958D01*
X135Y2957D01*
X134Y2957D01*
X134Y2957D01*
X134Y2957D01*
X134Y2957D01*
X133Y2957D01*
X133Y2957D01*
X133Y2957D01*
X133Y2956D01*
X132Y2956D01*
X132Y2956D01*
X132Y2956D01*
X132Y2956D01*
X132Y2956D01*
X132Y2955D01*
X131Y2955D01*
X131Y2955D01*
X131Y2955D01*
X131Y2955D01*
X130Y2955D01*
X130Y2954D01*
X130Y2954D01*
X130Y2954D01*
X129Y2954D01*
X129Y2954D01*
X129Y2954D01*
X129Y2953D01*
X128Y2953D01*
X128Y2953D01*
X128Y2953D01*
X128Y2953D01*
X128Y2953D01*
X128Y2953D01*
X127Y2953D01*
X127Y2952D01*
X127Y2952D01*
X127Y2952D01*
X126Y2952D01*
X126Y2952D01*
X126Y2952D01*
X126Y2951D01*
X125Y2951D01*
X125Y2951D01*
X125Y2951D01*
X125Y2951D01*
X124Y2951D01*
X124Y2950D01*
X126Y2950D01*
X126Y2951D01*
X126Y2951D01*
X126Y2951D01*
X127Y2951D01*
X127Y2951D01*
X127Y2951D01*
X127Y2952D01*
X128Y2952D01*
X128Y2952D01*
X128Y2952D01*
X128Y2952D01*
X128Y2952D01*
X128Y2953D01*
X129Y2953D01*
X129Y2953D01*
X129Y2953D01*
X129Y2953D01*
X130Y2953D01*
X130Y2953D01*
X130Y2953D01*
X130Y2954D01*
X131Y2954D01*
X131Y2954D01*
X131Y2954D01*
X131Y2954D01*
X132Y2954D01*
X132Y2955D01*
X132Y2955D01*
X132Y2955D01*
X132Y2955D01*
X132Y2955D01*
X133Y2955D01*
X133Y2956D01*
X133Y2956D01*
X133Y2956D01*
X134Y2956D01*
X134Y2956D01*
X134Y2956D01*
X134Y2957D01*
X135Y2957D01*
X135Y2957D01*
X135Y2957D01*
X135Y2957D01*
X136Y2957D01*
X136Y2957D01*
X136Y2957D01*
X136Y2958D01*
X136Y2958D01*
X136Y2958D01*
X137Y2958D01*
X137Y2958D01*
X137Y2958D01*
X137Y2959D01*
X138Y2959D01*
X138Y2959D01*
X138Y2959D01*
X138Y2959D01*
X139Y2959D01*
X139Y2960D01*
X139Y2960D01*
X139Y2960D01*
X140Y2960D01*
X140Y2960D01*
X140Y2960D01*
X140Y2961D01*
X140Y2961D01*
X140Y2961D01*
X141Y2961D01*
X141Y2961D01*
X141Y2961D01*
X141Y2961D01*
X142Y2961D01*
X142Y2962D01*
X142Y2962D01*
X142Y2962D01*
X143Y2962D01*
X143Y2962D01*
X143Y2962D01*
X143Y2963D01*
X144Y2963D01*
X144Y2963D01*
X144Y2963D01*
X144Y2963D01*
X144Y2963D01*
X144Y2964D01*
X145Y2964D01*
X145Y2964D01*
X145Y2964D01*
X145Y2964D01*
X146Y2964D01*
X146Y2965D01*
X146Y2965D01*
X146Y2965D01*
X147Y2965D01*
X147Y2965D01*
X147Y2965D01*
X147Y2965D01*
X148Y2965D01*
X148Y2966D01*
X148Y2966D01*
X148Y2966D01*
X148Y2966D01*
X148Y2966D01*
X149Y2966D01*
X149Y2967D01*
X149Y2967D01*
X149Y2967D01*
X150Y2967D01*
X150Y2967D01*
X150Y2967D01*
X150Y2968D01*
X151Y2968D01*
X151Y2968D01*
X151Y2968D01*
X151Y2968D01*
X152Y2968D01*
X152Y2969D01*
X152Y2969D01*
X152Y2969D01*
X152Y2969D01*
X152Y2969D01*
X151Y2969D01*
G37*
D02*
G36*
X96Y2968D02*
X96Y2950D01*
X96Y2950D01*
X96Y2968D01*
X96Y2968D01*
G37*
D02*
G36*
X71Y2968D02*
X71Y2967D01*
X72Y2967D01*
X72Y2968D01*
X71Y2968D01*
G37*
D02*
G36*
X71Y2968D02*
X71Y2967D01*
X72Y2967D01*
X72Y2968D01*
X71Y2968D01*
G37*
D02*
G36*
X72Y2967D02*
X72Y2967D01*
X72Y2967D01*
X72Y2967D01*
X72Y2967D01*
X72Y2966D01*
X73Y2966D01*
X73Y2966D01*
X73Y2966D01*
X73Y2966D01*
X73Y2966D01*
X73Y2965D01*
X74Y2965D01*
X74Y2965D01*
X74Y2965D01*
X74Y2965D01*
X75Y2965D01*
X75Y2965D01*
X75Y2965D01*
X75Y2964D01*
X76Y2964D01*
X76Y2964D01*
X76Y2964D01*
X76Y2964D01*
X76Y2964D01*
X76Y2963D01*
X77Y2963D01*
X77Y2963D01*
X77Y2963D01*
X77Y2963D01*
X77Y2963D01*
X77Y2962D01*
X78Y2962D01*
X78Y2962D01*
X78Y2962D01*
X78Y2962D01*
X79Y2962D01*
X79Y2961D01*
X79Y2961D01*
X79Y2961D01*
X80Y2961D01*
X80Y2961D01*
X80Y2961D01*
X80Y2961D01*
X80Y2961D01*
X80Y2960D01*
X81Y2960D01*
X81Y2960D01*
X81Y2960D01*
X81Y2960D01*
X82Y2960D01*
X82Y2959D01*
X82Y2959D01*
X82Y2959D01*
X82Y2959D01*
X82Y2959D01*
X83Y2959D01*
X83Y2958D01*
X83Y2958D01*
X83Y2958D01*
X84Y2958D01*
X84Y2958D01*
X84Y2958D01*
X84Y2957D01*
X84Y2957D01*
X84Y2957D01*
X85Y2957D01*
X85Y2957D01*
X85Y2957D01*
X85Y2957D01*
X86Y2957D01*
X86Y2956D01*
X86Y2956D01*
X86Y2956D01*
X87Y2956D01*
X87Y2956D01*
X87Y2956D01*
X87Y2955D01*
X87Y2955D01*
X87Y2955D01*
X88Y2955D01*
X88Y2955D01*
X88Y2955D01*
X88Y2954D01*
X88Y2954D01*
X88Y2954D01*
X89Y2954D01*
X89Y2954D01*
X89Y2954D01*
X89Y2953D01*
X90Y2953D01*
X90Y2953D01*
X90Y2953D01*
X90Y2953D01*
X91Y2953D01*
X91Y2953D01*
X91Y2953D01*
X91Y2952D01*
X92Y2952D01*
X92Y2952D01*
X92Y2952D01*
X92Y2952D01*
X92Y2952D01*
X92Y2951D01*
X93Y2951D01*
X93Y2951D01*
X93Y2951D01*
X93Y2951D01*
X93Y2951D01*
X93Y2950D01*
X94Y2950D01*
X94Y2950D01*
X94Y2950D01*
X94Y2950D01*
X95Y2950D01*
X95Y2950D01*
X95Y2950D01*
X95Y2950D01*
X94Y2950D01*
X94Y2951D01*
X94Y2951D01*
X94Y2951D01*
X94Y2951D01*
X94Y2951D01*
X93Y2951D01*
X93Y2952D01*
X93Y2952D01*
X93Y2952D01*
X92Y2952D01*
X92Y2952D01*
X92Y2952D01*
X92Y2953D01*
X92Y2953D01*
X92Y2953D01*
X91Y2953D01*
X91Y2953D01*
X91Y2953D01*
X91Y2953D01*
X90Y2953D01*
X90Y2954D01*
X90Y2954D01*
X90Y2954D01*
X89Y2954D01*
X89Y2954D01*
X89Y2954D01*
X89Y2955D01*
X89Y2955D01*
X89Y2955D01*
X88Y2955D01*
X88Y2955D01*
X88Y2955D01*
X88Y2956D01*
X88Y2956D01*
X88Y2956D01*
X87Y2956D01*
X87Y2956D01*
X87Y2956D01*
X87Y2957D01*
X86Y2957D01*
X86Y2957D01*
X86Y2957D01*
X86Y2957D01*
X85Y2957D01*
X85Y2957D01*
X85Y2957D01*
X85Y2958D01*
X84Y2958D01*
X84Y2958D01*
X84Y2958D01*
X84Y2958D01*
X84Y2958D01*
X84Y2959D01*
X83Y2959D01*
X83Y2959D01*
X83Y2959D01*
X83Y2959D01*
X83Y2959D01*
X83Y2960D01*
X82Y2960D01*
X82Y2960D01*
X82Y2960D01*
X82Y2960D01*
X81Y2960D01*
X81Y2961D01*
X81Y2961D01*
X81Y2961D01*
X80Y2961D01*
X80Y2961D01*
X80Y2961D01*
X80Y2961D01*
X80Y2961D01*
X80Y2962D01*
X79Y2962D01*
X79Y2962D01*
X79Y2962D01*
X79Y2962D01*
X78Y2962D01*
X78Y2963D01*
X78Y2963D01*
X78Y2963D01*
X78Y2963D01*
X78Y2963D01*
X77Y2963D01*
X77Y2964D01*
X77Y2964D01*
X77Y2964D01*
X76Y2964D01*
X76Y2964D01*
X76Y2964D01*
X76Y2965D01*
X76Y2965D01*
X76Y2965D01*
X75Y2965D01*
X75Y2965D01*
X75Y2965D01*
X75Y2965D01*
X74Y2965D01*
X74Y2966D01*
X74Y2966D01*
X74Y2966D01*
X74Y2966D01*
X74Y2966D01*
X73Y2966D01*
X73Y2967D01*
X73Y2967D01*
X73Y2967D01*
X72Y2967D01*
X72Y2967D01*
X72Y2967D01*
G37*
D02*
G36*
X122Y2950D02*
X122Y2950D01*
X125Y2950D01*
X125Y2950D01*
X122Y2950D01*
G37*
D02*
G36*
X122Y2950D02*
X122Y2950D01*
X125Y2950D01*
X125Y2950D01*
X122Y2950D01*
G37*
D02*
G36*
X122Y2950D02*
X122Y2950D01*
X125Y2950D01*
X125Y2950D01*
X122Y2950D01*
G37*
D02*
G36*
X123Y2950D02*
X123Y2950D01*
X123Y2950D01*
X123Y2949D01*
X124Y2949D01*
X124Y2929D01*
X124Y2929D01*
X124Y2929D01*
X124Y2929D01*
X124Y2949D01*
X124Y2949D01*
X124Y2950D01*
X125Y2950D01*
X125Y2950D01*
X123Y2950D01*
G37*
D02*
G36*
X95Y2950D02*
X95Y2949D01*
X96Y2949D01*
X96Y2950D01*
X95Y2950D01*
G37*
D02*
G36*
X95Y2950D02*
X95Y2949D01*
X96Y2949D01*
X96Y2950D01*
X95Y2950D01*
G37*
D02*
G36*
X95Y2949D02*
X95Y2949D01*
X96Y2949D01*
X96Y2949D01*
X96Y2949D01*
X96Y2949D01*
X96Y2949D01*
X96Y2948D01*
X97Y2948D01*
X97Y2948D01*
X97Y2948D01*
X97Y2948D01*
X98Y2948D01*
X98Y2947D01*
X98Y2947D01*
X98Y2947D01*
X98Y2947D01*
X98Y2947D01*
X99Y2947D01*
X99Y2946D01*
X99Y2946D01*
X99Y2946D01*
X100Y2946D01*
X100Y2946D01*
X100Y2946D01*
X100Y2945D01*
X100Y2945D01*
X100Y2945D01*
X101Y2945D01*
X101Y2945D01*
X101Y2945D01*
X101Y2945D01*
X102Y2945D01*
X102Y2944D01*
X102Y2944D01*
X102Y2944D01*
X102Y2944D01*
X102Y2944D01*
X103Y2944D01*
X103Y2943D01*
X103Y2943D01*
X103Y2943D01*
X104Y2943D01*
X104Y2943D01*
X104Y2943D01*
X104Y2942D01*
X104Y2942D01*
X104Y2942D01*
X105Y2942D01*
X105Y2942D01*
X105Y2942D01*
X105Y2941D01*
X106Y2941D01*
X106Y2941D01*
X106Y2941D01*
X106Y2941D01*
X107Y2941D01*
X107Y2941D01*
X107Y2941D01*
X107Y2940D01*
X107Y2940D01*
X107Y2940D01*
X108Y2940D01*
X108Y2940D01*
X108Y2940D01*
X108Y2939D01*
X108Y2939D01*
X108Y2939D01*
X109Y2939D01*
X109Y2939D01*
X109Y2939D01*
X109Y2938D01*
X110Y2938D01*
X110Y2938D01*
X110Y2938D01*
X110Y2938D01*
X111Y2938D01*
X111Y2937D01*
X111Y2937D01*
X111Y2937D01*
X112Y2937D01*
X112Y2937D01*
X112Y2937D01*
X112Y2937D01*
X112Y2937D01*
X112Y2936D01*
X113Y2936D01*
X113Y2936D01*
X113Y2936D01*
X113Y2936D01*
X113Y2936D01*
X113Y2935D01*
X114Y2935D01*
X114Y2935D01*
X114Y2935D01*
X114Y2935D01*
X115Y2935D01*
X115Y2934D01*
X115Y2934D01*
X115Y2934D01*
X116Y2934D01*
X116Y2934D01*
X116Y2934D01*
X116Y2933D01*
X116Y2933D01*
X116Y2933D01*
X117Y2933D01*
X117Y2933D01*
X117Y2933D01*
X117Y2933D01*
X118Y2933D01*
X118Y2932D01*
X118Y2932D01*
X118Y2932D01*
X118Y2932D01*
X118Y2932D01*
X119Y2932D01*
X119Y2931D01*
X119Y2931D01*
X119Y2931D01*
X120Y2931D01*
X120Y2931D01*
X120Y2931D01*
X120Y2930D01*
X120Y2930D01*
X120Y2930D01*
X121Y2930D01*
X121Y2930D01*
X121Y2930D01*
X121Y2929D01*
X122Y2929D01*
X122Y2929D01*
X122Y2929D01*
X122Y2929D01*
X122Y2929D01*
X122Y2929D01*
X123Y2929D01*
X123Y2929D01*
X122Y2929D01*
X122Y2930D01*
X122Y2930D01*
X122Y2930D01*
X121Y2930D01*
X121Y2930D01*
X121Y2930D01*
X121Y2931D01*
X120Y2931D01*
X120Y2931D01*
X120Y2931D01*
X120Y2931D01*
X120Y2931D01*
X120Y2932D01*
X119Y2932D01*
X119Y2932D01*
X119Y2932D01*
X119Y2932D01*
X119Y2932D01*
X119Y2933D01*
X118Y2933D01*
X118Y2933D01*
X118Y2933D01*
X118Y2933D01*
X117Y2933D01*
X117Y2933D01*
X117Y2933D01*
X117Y2934D01*
X116Y2934D01*
X116Y2934D01*
X116Y2934D01*
X116Y2934D01*
X116Y2934D01*
X116Y2935D01*
X115Y2935D01*
X115Y2935D01*
X115Y2935D01*
X115Y2935D01*
X114Y2935D01*
X114Y2936D01*
X114Y2936D01*
X114Y2936D01*
X114Y2936D01*
X114Y2936D01*
X113Y2936D01*
X113Y2937D01*
X113Y2937D01*
X113Y2937D01*
X112Y2937D01*
X112Y2937D01*
X112Y2937D01*
X112Y2937D01*
X112Y2937D01*
X112Y2938D01*
X111Y2938D01*
X111Y2938D01*
X111Y2938D01*
X111Y2938D01*
X110Y2938D01*
X110Y2939D01*
X110Y2939D01*
X110Y2939D01*
X109Y2939D01*
X109Y2939D01*
X109Y2939D01*
X109Y2940D01*
X109Y2940D01*
X109Y2940D01*
X108Y2940D01*
X108Y2940D01*
X108Y2940D01*
X108Y2941D01*
X108Y2941D01*
X108Y2941D01*
X107Y2941D01*
X107Y2941D01*
X107Y2941D01*
X107Y2941D01*
X106Y2941D01*
X106Y2942D01*
X106Y2942D01*
X106Y2942D01*
X105Y2942D01*
X105Y2942D01*
X105Y2942D01*
X105Y2943D01*
X104Y2943D01*
X104Y2943D01*
X104Y2943D01*
X104Y2943D01*
X104Y2943D01*
X104Y2944D01*
X103Y2944D01*
X103Y2944D01*
X103Y2944D01*
X103Y2944D01*
X103Y2944D01*
X103Y2945D01*
X102Y2945D01*
X102Y2945D01*
X102Y2945D01*
X102Y2945D01*
X101Y2945D01*
X101Y2945D01*
X101Y2945D01*
X101Y2946D01*
X100Y2946D01*
X100Y2946D01*
X100Y2946D01*
X100Y2946D01*
X100Y2946D01*
X100Y2947D01*
X99Y2947D01*
X99Y2947D01*
X99Y2947D01*
X99Y2947D01*
X98Y2947D01*
X98Y2948D01*
X98Y2948D01*
X98Y2948D01*
X98Y2948D01*
X98Y2948D01*
X97Y2948D01*
X97Y2949D01*
X97Y2949D01*
X97Y2949D01*
X96Y2949D01*
X96Y2949D01*
X96Y2949D01*
X96Y2949D01*
X95Y2949D01*
G37*
D02*
G36*
X48Y2921D02*
X48Y2920D01*
X62Y2920D01*
X62Y2909D01*
X63Y2909D01*
X63Y2921D01*
X48Y2921D01*
G37*
D02*
G36*
X64Y2921D02*
X64Y2920D01*
X79Y2920D01*
X79Y2893D01*
X78Y2893D01*
X78Y2891D01*
X78Y2891D01*
X78Y2891D01*
X78Y2891D01*
X78Y2891D01*
X77Y2891D01*
X77Y2890D01*
X77Y2890D01*
X77Y2890D01*
X78Y2890D01*
X78Y2890D01*
X78Y2890D01*
X78Y2891D01*
X78Y2891D01*
X78Y2891D01*
X79Y2891D01*
X79Y2892D01*
X79Y2892D01*
X79Y2894D01*
X79Y2894D01*
X79Y2921D01*
X64Y2921D01*
G37*
D02*
G36*
X48Y2920D02*
X48Y2890D01*
X48Y2890D01*
X48Y2920D01*
X48Y2920D01*
G37*
D02*
G36*
X64Y2920D02*
X64Y2909D01*
X64Y2909D01*
X64Y2920D01*
X64Y2920D01*
G37*
D02*
G36*
X62Y2909D02*
X62Y2909D01*
X64Y2909D01*
X64Y2909D01*
X62Y2909D01*
G37*
D02*
G36*
X62Y2909D02*
X62Y2909D01*
X64Y2909D01*
X64Y2909D01*
X62Y2909D01*
G37*
D02*
G36*
X62Y2909D02*
X62Y2909D01*
X64Y2909D01*
X64Y2909D01*
X62Y2909D01*
G37*
D02*
G36*
X52Y2909D02*
X52Y2908D01*
X61Y2908D01*
X61Y2907D01*
X54Y2907D01*
X54Y2904D01*
X57Y2904D01*
X57Y2904D01*
X57Y2904D01*
X57Y2903D01*
X57Y2903D01*
X57Y2903D01*
X54Y2903D01*
X54Y2901D01*
X54Y2901D01*
X54Y2902D01*
X58Y2902D01*
X58Y2903D01*
X58Y2903D01*
X58Y2903D01*
X58Y2903D01*
X58Y2904D01*
X57Y2904D01*
X57Y2904D01*
X57Y2904D01*
X57Y2905D01*
X55Y2905D01*
X55Y2907D01*
X61Y2907D01*
X61Y2909D01*
X52Y2909D01*
G37*
D02*
G36*
X65Y2909D02*
X65Y2908D01*
X74Y2908D01*
X74Y2894D01*
X75Y2894D01*
X75Y2894D01*
X75Y2894D01*
X75Y2909D01*
X65Y2909D01*
G37*
D02*
G36*
X52Y2908D02*
X52Y2890D01*
X53Y2890D01*
X53Y2908D01*
X52Y2908D01*
G37*
D02*
G36*
X65Y2908D02*
X65Y2907D01*
X72Y2907D01*
X72Y2905D01*
X70Y2905D01*
X70Y2905D01*
X70Y2905D01*
X70Y2904D01*
X69Y2904D01*
X69Y2903D01*
X69Y2903D01*
X69Y2903D01*
X69Y2903D01*
X69Y2902D01*
X73Y2902D01*
X73Y2901D01*
X73Y2901D01*
X73Y2903D01*
X70Y2903D01*
X70Y2903D01*
X70Y2903D01*
X70Y2904D01*
X70Y2904D01*
X70Y2904D01*
X73Y2904D01*
X73Y2907D01*
X66Y2907D01*
X66Y2908D01*
X65Y2908D01*
G37*
D02*
G36*
X54Y2901D02*
X54Y2900D01*
X73Y2900D01*
X73Y2901D01*
X54Y2901D01*
G37*
D02*
G36*
X54Y2901D02*
X54Y2900D01*
X73Y2900D01*
X73Y2901D01*
X54Y2901D01*
G37*
D02*
G36*
X54Y2900D02*
X54Y2900D01*
X73Y2900D01*
X73Y2900D01*
X54Y2900D01*
G37*
D02*
G36*
X56Y2900D02*
X56Y2899D01*
X71Y2899D01*
X71Y2894D01*
X72Y2894D01*
X72Y2900D01*
X56Y2900D01*
G37*
D02*
G36*
X56Y2899D02*
X56Y2891D01*
X56Y2891D01*
X56Y2899D01*
X56Y2899D01*
G37*
D02*
G36*
X71Y2894D02*
X71Y2894D01*
X75Y2894D01*
X75Y2894D01*
X71Y2894D01*
G37*
D02*
G36*
X71Y2894D02*
X71Y2894D01*
X75Y2894D01*
X75Y2894D01*
X71Y2894D01*
G37*
D02*
G36*
X71Y2894D02*
X71Y2893D01*
X74Y2893D01*
X74Y2894D01*
X71Y2894D01*
G37*
D02*
G36*
X60Y2892D02*
X60Y2891D01*
X70Y2891D01*
X70Y2890D01*
X70Y2890D01*
X70Y2892D01*
X60Y2892D01*
G37*
D02*
G36*
X60Y2891D02*
X60Y2891D01*
X60Y2891D01*
X60Y2891D01*
X60Y2891D01*
G37*
D02*
G36*
X56Y2891D02*
X56Y2891D01*
X60Y2891D01*
X60Y2891D01*
X56Y2891D01*
G37*
D02*
G36*
X56Y2891D02*
X56Y2891D01*
X60Y2891D01*
X60Y2891D01*
X56Y2891D01*
G37*
D02*
G36*
X56Y2891D02*
X56Y2890D01*
X60Y2890D01*
X60Y2891D01*
X56Y2891D01*
G37*
D02*
G36*
X48Y2890D02*
X48Y2890D01*
X53Y2890D01*
X53Y2890D01*
X48Y2890D01*
G37*
D02*
G36*
X48Y2890D02*
X48Y2890D01*
X53Y2890D01*
X53Y2890D01*
X48Y2890D01*
G37*
D02*
G36*
X70Y2890D02*
X70Y2890D01*
X77Y2890D01*
X77Y2890D01*
X70Y2890D01*
G37*
D02*
G36*
X70Y2890D02*
X70Y2890D01*
X77Y2890D01*
X77Y2890D01*
X70Y2890D01*
G37*
D02*
G36*
X48Y2890D02*
X48Y2889D01*
X53Y2889D01*
X53Y2890D01*
X48Y2890D01*
G37*
D02*
G36*
X71Y2890D02*
X71Y2889D01*
X76Y2889D01*
X76Y2890D01*
X71Y2890D01*
G37*
D02*
G36*
X105Y2920D02*
X105Y2920D01*
X104Y2920D01*
X104Y2919D01*
X106Y2919D01*
X106Y2919D01*
X106Y2919D01*
X106Y2919D01*
X107Y2919D01*
X107Y2918D01*
X107Y2918D01*
X107Y2918D01*
X107Y2918D01*
X107Y2916D01*
X107Y2916D01*
X107Y2916D01*
X107Y2916D01*
X107Y2915D01*
X106Y2915D01*
X106Y2915D01*
X106Y2915D01*
X106Y2915D01*
X107Y2915D01*
X107Y2915D01*
X107Y2915D01*
X107Y2915D01*
X107Y2915D01*
X107Y2916D01*
X108Y2916D01*
X108Y2916D01*
X108Y2916D01*
X108Y2918D01*
X108Y2918D01*
X108Y2918D01*
X107Y2918D01*
X107Y2919D01*
X107Y2919D01*
X107Y2919D01*
X106Y2919D01*
X106Y2920D01*
X105Y2920D01*
X105Y2920D01*
X105Y2920D01*
G37*
D02*
G36*
X103Y2919D02*
X103Y2919D01*
X103Y2919D01*
X103Y2919D01*
X103Y2919D01*
X103Y2918D01*
X102Y2918D01*
X102Y2916D01*
X103Y2916D01*
X103Y2916D01*
X103Y2916D01*
X103Y2915D01*
X103Y2915D01*
X103Y2915D01*
X104Y2915D01*
X104Y2915D01*
X104Y2915D01*
X104Y2915D01*
X104Y2915D01*
X104Y2916D01*
X103Y2916D01*
X103Y2916D01*
X103Y2916D01*
X103Y2918D01*
X103Y2918D01*
X103Y2919D01*
X104Y2919D01*
X104Y2919D01*
X104Y2919D01*
X104Y2919D01*
X103Y2919D01*
G37*
D02*
G36*
X104Y2915D02*
X104Y2914D01*
X106Y2914D01*
X106Y2915D01*
X104Y2915D01*
G37*
D02*
G36*
X104Y2915D02*
X104Y2914D01*
X106Y2914D01*
X106Y2915D01*
X104Y2915D01*
G37*
D02*
G36*
X111Y2920D02*
X111Y2920D01*
X110Y2920D01*
X110Y2919D01*
X112Y2919D01*
X112Y2919D01*
X112Y2919D01*
X112Y2919D01*
X113Y2919D01*
X113Y2918D01*
X113Y2918D01*
X113Y2917D01*
X113Y2917D01*
X113Y2917D01*
X113Y2917D01*
X113Y2916D01*
X113Y2916D01*
X113Y2915D01*
X112Y2915D01*
X112Y2915D01*
X112Y2915D01*
X112Y2915D01*
X113Y2915D01*
X113Y2915D01*
X113Y2915D01*
X113Y2915D01*
X113Y2915D01*
X113Y2916D01*
X114Y2916D01*
X114Y2918D01*
X113Y2918D01*
X113Y2919D01*
X113Y2919D01*
X113Y2919D01*
X113Y2919D01*
X113Y2919D01*
X112Y2919D01*
X112Y2920D01*
X111Y2920D01*
X111Y2920D01*
X111Y2920D01*
G37*
D02*
G36*
X109Y2919D02*
X109Y2919D01*
X109Y2919D01*
X109Y2919D01*
X109Y2919D01*
X109Y2918D01*
X108Y2918D01*
X108Y2917D01*
X108Y2917D01*
X108Y2917D01*
X108Y2917D01*
X108Y2916D01*
X109Y2916D01*
X109Y2915D01*
X109Y2915D01*
X109Y2915D01*
X109Y2915D01*
X109Y2915D01*
X110Y2915D01*
X110Y2915D01*
X110Y2915D01*
X110Y2915D01*
X109Y2915D01*
X109Y2916D01*
X109Y2916D01*
X109Y2916D01*
X109Y2916D01*
X109Y2918D01*
X109Y2918D01*
X109Y2918D01*
X109Y2918D01*
X109Y2919D01*
X110Y2919D01*
X110Y2919D01*
X110Y2919D01*
X110Y2919D01*
X109Y2919D01*
G37*
D02*
G36*
X110Y2915D02*
X110Y2914D01*
X112Y2914D01*
X112Y2915D01*
X110Y2915D01*
G37*
D02*
G36*
X110Y2915D02*
X110Y2914D01*
X112Y2914D01*
X112Y2915D01*
X110Y2915D01*
G37*
D02*
G36*
X193Y2918D02*
X193Y2918D01*
X192Y2918D01*
X192Y2917D01*
X194Y2917D01*
X194Y2917D01*
X195Y2917D01*
X195Y2917D01*
X195Y2917D01*
X195Y2917D01*
X196Y2917D01*
X196Y2914D01*
X195Y2914D01*
X195Y2914D01*
X195Y2914D01*
X195Y2913D01*
X195Y2913D01*
X195Y2913D01*
X194Y2913D01*
X194Y2913D01*
X195Y2913D01*
X195Y2913D01*
X196Y2913D01*
X196Y2914D01*
X196Y2914D01*
X196Y2914D01*
X196Y2914D01*
X196Y2916D01*
X196Y2916D01*
X196Y2917D01*
X196Y2917D01*
X196Y2917D01*
X195Y2917D01*
X195Y2917D01*
X195Y2917D01*
X195Y2918D01*
X194Y2918D01*
X194Y2918D01*
X193Y2918D01*
G37*
D02*
G36*
X192Y2917D02*
X192Y2917D01*
X191Y2917D01*
X191Y2917D01*
X191Y2917D01*
X191Y2916D01*
X191Y2916D01*
X191Y2915D01*
X191Y2915D01*
X191Y2914D01*
X186Y2914D01*
X186Y2914D01*
X191Y2914D01*
X191Y2913D01*
X192Y2913D01*
X192Y2913D01*
X192Y2913D01*
X192Y2913D01*
X193Y2913D01*
X193Y2913D01*
X192Y2913D01*
X192Y2913D01*
X192Y2913D01*
X192Y2914D01*
X192Y2914D01*
X192Y2914D01*
X191Y2914D01*
X191Y2916D01*
X192Y2916D01*
X192Y2917D01*
X192Y2917D01*
X192Y2917D01*
X192Y2917D01*
X192Y2917D01*
X192Y2917D01*
X192Y2917D01*
X192Y2917D01*
G37*
D02*
G36*
X185Y2914D02*
X185Y2913D01*
X190Y2913D01*
X190Y2912D01*
X190Y2912D01*
X190Y2911D01*
X189Y2911D01*
X189Y2911D01*
X200Y2911D01*
X200Y2911D01*
X200Y2911D01*
X200Y2910D01*
X200Y2910D01*
X200Y2910D01*
X201Y2910D01*
X201Y2909D01*
X200Y2909D01*
X200Y2907D01*
X200Y2907D01*
X200Y2906D01*
X200Y2906D01*
X200Y2905D01*
X200Y2905D01*
X200Y2904D01*
X199Y2904D01*
X199Y2903D01*
X199Y2903D01*
X199Y2901D01*
X199Y2901D01*
X199Y2900D01*
X198Y2900D01*
X198Y2899D01*
X198Y2899D01*
X198Y2898D01*
X198Y2898D01*
X198Y2897D01*
X197Y2897D01*
X197Y2896D01*
X197Y2896D01*
X197Y2894D01*
X197Y2894D01*
X197Y2893D01*
X196Y2893D01*
X196Y2893D01*
X197Y2893D01*
X197Y2893D01*
X197Y2893D01*
X197Y2895D01*
X198Y2895D01*
X198Y2896D01*
X198Y2896D01*
X198Y2897D01*
X198Y2897D01*
X198Y2898D01*
X199Y2898D01*
X199Y2899D01*
X199Y2899D01*
X199Y2901D01*
X199Y2901D01*
X199Y2902D01*
X200Y2902D01*
X200Y2903D01*
X200Y2903D01*
X200Y2904D01*
X200Y2904D01*
X200Y2905D01*
X200Y2905D01*
X200Y2906D01*
X201Y2906D01*
X201Y2908D01*
X201Y2908D01*
X201Y2909D01*
X201Y2909D01*
X201Y2910D01*
X201Y2910D01*
X201Y2910D01*
X201Y2910D01*
X201Y2911D01*
X200Y2911D01*
X200Y2911D01*
X200Y2911D01*
X200Y2912D01*
X190Y2912D01*
X190Y2913D01*
X191Y2913D01*
X191Y2914D01*
X185Y2914D01*
G37*
D02*
G36*
X185Y2913D02*
X185Y2913D01*
X185Y2913D01*
X185Y2912D01*
X178Y2912D01*
X178Y2906D01*
X184Y2906D01*
X184Y2905D01*
X183Y2905D01*
X183Y2905D01*
X183Y2905D01*
X183Y2903D01*
X183Y2903D01*
X183Y2902D01*
X182Y2902D01*
X182Y2901D01*
X182Y2901D01*
X182Y2900D01*
X182Y2900D01*
X182Y2899D01*
X181Y2899D01*
X181Y2898D01*
X181Y2898D01*
X181Y2897D01*
X181Y2897D01*
X181Y2896D01*
X180Y2896D01*
X180Y2895D01*
X180Y2895D01*
X180Y2894D01*
X180Y2894D01*
X180Y2893D01*
X180Y2893D01*
X180Y2894D01*
X181Y2894D01*
X181Y2895D01*
X181Y2895D01*
X181Y2896D01*
X181Y2896D01*
X181Y2897D01*
X182Y2897D01*
X182Y2898D01*
X182Y2898D01*
X182Y2900D01*
X182Y2900D01*
X182Y2901D01*
X183Y2901D01*
X183Y2901D01*
X183Y2901D01*
X183Y2903D01*
X183Y2903D01*
X183Y2904D01*
X184Y2904D01*
X184Y2905D01*
X184Y2905D01*
X184Y2906D01*
X184Y2906D01*
X184Y2907D01*
X178Y2907D01*
X178Y2911D01*
X185Y2911D01*
X185Y2912D01*
X186Y2912D01*
X186Y2913D01*
X186Y2913D01*
X186Y2913D01*
X185Y2913D01*
G37*
D02*
G36*
X192Y2913D02*
X192Y2913D01*
X195Y2913D01*
X195Y2913D01*
X192Y2913D01*
G37*
D02*
G36*
X192Y2913D02*
X192Y2913D01*
X195Y2913D01*
X195Y2913D01*
X192Y2913D01*
G37*
D02*
G36*
X188Y2907D02*
X188Y2906D01*
X195Y2906D01*
X195Y2905D01*
X195Y2905D01*
X195Y2904D01*
X195Y2904D01*
X195Y2903D01*
X194Y2903D01*
X194Y2902D01*
X194Y2902D01*
X194Y2901D01*
X194Y2901D01*
X194Y2900D01*
X193Y2900D01*
X193Y2899D01*
X193Y2899D01*
X193Y2897D01*
X193Y2897D01*
X193Y2897D01*
X192Y2897D01*
X192Y2895D01*
X192Y2895D01*
X192Y2894D01*
X192Y2894D01*
X192Y2893D01*
X192Y2893D01*
X192Y2893D01*
X192Y2893D01*
X192Y2893D01*
X192Y2893D01*
X192Y2894D01*
X193Y2894D01*
X193Y2896D01*
X193Y2896D01*
X193Y2897D01*
X193Y2897D01*
X193Y2898D01*
X194Y2898D01*
X194Y2899D01*
X194Y2899D01*
X194Y2900D01*
X194Y2900D01*
X194Y2901D01*
X195Y2901D01*
X195Y2902D01*
X195Y2902D01*
X195Y2903D01*
X195Y2903D01*
X195Y2905D01*
X196Y2905D01*
X196Y2905D01*
X196Y2905D01*
X196Y2906D01*
X196Y2906D01*
X196Y2907D01*
X195Y2907D01*
X195Y2907D01*
X188Y2907D01*
G37*
D02*
G36*
X188Y2906D02*
X188Y2905D01*
X188Y2905D01*
X188Y2904D01*
X188Y2904D01*
X188Y2903D01*
X187Y2903D01*
X187Y2902D01*
X187Y2902D01*
X187Y2901D01*
X187Y2901D01*
X187Y2900D01*
X186Y2900D01*
X186Y2898D01*
X186Y2898D01*
X186Y2897D01*
X186Y2897D01*
X186Y2896D01*
X185Y2896D01*
X185Y2895D01*
X185Y2895D01*
X185Y2894D01*
X185Y2894D01*
X185Y2893D01*
X185Y2893D01*
X185Y2893D01*
X185Y2893D01*
X185Y2894D01*
X186Y2894D01*
X186Y2895D01*
X186Y2895D01*
X186Y2897D01*
X186Y2897D01*
X186Y2898D01*
X187Y2898D01*
X187Y2899D01*
X187Y2899D01*
X187Y2900D01*
X187Y2900D01*
X187Y2901D01*
X188Y2901D01*
X188Y2902D01*
X188Y2902D01*
X188Y2903D01*
X188Y2903D01*
X188Y2905D01*
X188Y2905D01*
X188Y2905D01*
X189Y2905D01*
X189Y2906D01*
X188Y2906D01*
G37*
D02*
G36*
X180Y2893D02*
X180Y2893D01*
X185Y2893D01*
X185Y2893D01*
X180Y2893D01*
G37*
D02*
G36*
X180Y2893D02*
X180Y2893D01*
X185Y2893D01*
X185Y2893D01*
X180Y2893D01*
G37*
D02*
G36*
X192Y2893D02*
X192Y2893D01*
X197Y2893D01*
X197Y2893D01*
X192Y2893D01*
G37*
D02*
G36*
X192Y2893D02*
X192Y2893D01*
X197Y2893D01*
X197Y2893D01*
X192Y2893D01*
G37*
D02*
G36*
X180Y2893D02*
X180Y2892D01*
X185Y2892D01*
X185Y2893D01*
X180Y2893D01*
G37*
D02*
G36*
X192Y2893D02*
X192Y2892D01*
X197Y2892D01*
X197Y2893D01*
X192Y2893D01*
G37*
D02*
G36*
X199Y2918D02*
X199Y2918D01*
X198Y2918D01*
X198Y2917D01*
X200Y2917D01*
X200Y2917D01*
X201Y2917D01*
X201Y2917D01*
X201Y2917D01*
X201Y2917D01*
X201Y2917D01*
X201Y2916D01*
X202Y2916D01*
X202Y2914D01*
X201Y2914D01*
X201Y2914D01*
X201Y2914D01*
X201Y2913D01*
X201Y2913D01*
X201Y2913D01*
X200Y2913D01*
X200Y2913D01*
X201Y2913D01*
X201Y2913D01*
X201Y2913D01*
X201Y2913D01*
X202Y2913D01*
X202Y2914D01*
X202Y2914D01*
X202Y2915D01*
X202Y2915D01*
X202Y2916D01*
X202Y2916D01*
X202Y2917D01*
X202Y2917D01*
X202Y2917D01*
X201Y2917D01*
X201Y2917D01*
X201Y2917D01*
X201Y2917D01*
X201Y2917D01*
X201Y2918D01*
X200Y2918D01*
X200Y2918D01*
X199Y2918D01*
G37*
D02*
G36*
X198Y2917D02*
X198Y2917D01*
X197Y2917D01*
X197Y2917D01*
X197Y2917D01*
X197Y2916D01*
X197Y2916D01*
X197Y2914D01*
X197Y2914D01*
X197Y2913D01*
X197Y2913D01*
X197Y2913D01*
X198Y2913D01*
X198Y2913D01*
X199Y2913D01*
X199Y2913D01*
X198Y2913D01*
X198Y2913D01*
X198Y2913D01*
X198Y2914D01*
X197Y2914D01*
X197Y2915D01*
X197Y2915D01*
X197Y2916D01*
X197Y2916D01*
X197Y2917D01*
X198Y2917D01*
X198Y2917D01*
X198Y2917D01*
X198Y2917D01*
X199Y2917D01*
X199Y2917D01*
X198Y2917D01*
G37*
D02*
G36*
X198Y2913D02*
X198Y2913D01*
X200Y2913D01*
X200Y2913D01*
X198Y2913D01*
G37*
D02*
G36*
X198Y2913D02*
X198Y2913D01*
X200Y2913D01*
X200Y2913D01*
X198Y2913D01*
G37*
D02*
G36*
X52Y2917D02*
X52Y2917D01*
X58Y2917D01*
X58Y2916D01*
X59Y2916D01*
X59Y2917D01*
X52Y2917D01*
G37*
D02*
G36*
X52Y2917D02*
X52Y2916D01*
X53Y2916D01*
X53Y2917D01*
X52Y2917D01*
G37*
D02*
G36*
X52Y2916D02*
X52Y2916D01*
X59Y2916D01*
X59Y2916D01*
X52Y2916D01*
G37*
D02*
G36*
X52Y2916D02*
X52Y2916D01*
X59Y2916D01*
X59Y2916D01*
X52Y2916D01*
G37*
D02*
G36*
X52Y2916D02*
X52Y2915D01*
X59Y2915D01*
X59Y2916D01*
X52Y2916D01*
G37*
D02*
G36*
X68Y2917D02*
X68Y2917D01*
X74Y2917D01*
X74Y2916D01*
X75Y2916D01*
X75Y2917D01*
X68Y2917D01*
G37*
D02*
G36*
X68Y2917D02*
X68Y2916D01*
X68Y2916D01*
X68Y2917D01*
X68Y2917D01*
G37*
D02*
G36*
X68Y2916D02*
X68Y2916D01*
X75Y2916D01*
X75Y2916D01*
X68Y2916D01*
G37*
D02*
G36*
X68Y2916D02*
X68Y2916D01*
X75Y2916D01*
X75Y2916D01*
X68Y2916D01*
G37*
D02*
G36*
X68Y2916D02*
X68Y2915D01*
X75Y2915D01*
X75Y2916D01*
X68Y2916D01*
G37*
D02*
G36*
X52Y2913D02*
X52Y2913D01*
X58Y2913D01*
X58Y2912D01*
X59Y2912D01*
X59Y2913D01*
X52Y2913D01*
G37*
D02*
G36*
X52Y2913D02*
X52Y2912D01*
X53Y2912D01*
X53Y2913D01*
X52Y2913D01*
G37*
D02*
G36*
X52Y2912D02*
X52Y2911D01*
X59Y2911D01*
X59Y2912D01*
X52Y2912D01*
G37*
D02*
G36*
X52Y2912D02*
X52Y2911D01*
X59Y2911D01*
X59Y2912D01*
X52Y2912D01*
G37*
D02*
G36*
X52Y2911D02*
X52Y2911D01*
X59Y2911D01*
X59Y2911D01*
X52Y2911D01*
G37*
D02*
G36*
X68Y2913D02*
X68Y2913D01*
X74Y2913D01*
X74Y2912D01*
X75Y2912D01*
X75Y2913D01*
X68Y2913D01*
G37*
D02*
G36*
X68Y2913D02*
X68Y2912D01*
X68Y2912D01*
X68Y2913D01*
X68Y2913D01*
G37*
D02*
G36*
X68Y2912D02*
X68Y2911D01*
X75Y2911D01*
X75Y2912D01*
X68Y2912D01*
G37*
D02*
G36*
X68Y2912D02*
X68Y2911D01*
X75Y2911D01*
X75Y2912D01*
X68Y2912D01*
G37*
D02*
G36*
X68Y2911D02*
X68Y2911D01*
X75Y2911D01*
X75Y2911D01*
X68Y2911D01*
G37*
D02*
G36*
X88Y2913D02*
X88Y2913D01*
X99Y2913D01*
X99Y2909D01*
X100Y2909D01*
X100Y2913D01*
X88Y2913D01*
G37*
D02*
G36*
X88Y2913D02*
X88Y2909D01*
X88Y2909D01*
X88Y2913D01*
X88Y2913D01*
G37*
D02*
G36*
X88Y2909D02*
X88Y2909D01*
X100Y2909D01*
X100Y2909D01*
X88Y2909D01*
G37*
D02*
G36*
X88Y2909D02*
X88Y2909D01*
X100Y2909D01*
X100Y2909D01*
X88Y2909D01*
G37*
D02*
G36*
X88Y2909D02*
X88Y2908D01*
X100Y2908D01*
X100Y2909D01*
X88Y2909D01*
G37*
D02*
G36*
X108Y2913D02*
X108Y2913D01*
X107Y2913D01*
X107Y2913D01*
X112Y2913D01*
X112Y2912D01*
X112Y2912D01*
X112Y2911D01*
X112Y2911D01*
X112Y2910D01*
X111Y2910D01*
X111Y2909D01*
X111Y2909D01*
X111Y2909D01*
X111Y2909D01*
X111Y2908D01*
X110Y2908D01*
X110Y2907D01*
X110Y2907D01*
X110Y2907D01*
X110Y2907D01*
X110Y2906D01*
X109Y2906D01*
X109Y2905D01*
X109Y2905D01*
X109Y2904D01*
X109Y2904D01*
X109Y2904D01*
X108Y2904D01*
X108Y2903D01*
X108Y2903D01*
X108Y2902D01*
X108Y2902D01*
X108Y2901D01*
X108Y2901D01*
X108Y2901D01*
X107Y2901D01*
X107Y2900D01*
X107Y2900D01*
X107Y2899D01*
X107Y2899D01*
X107Y2898D01*
X106Y2898D01*
X106Y2897D01*
X106Y2897D01*
X106Y2897D01*
X106Y2897D01*
X106Y2896D01*
X105Y2896D01*
X105Y2895D01*
X105Y2895D01*
X105Y2894D01*
X105Y2894D01*
X105Y2893D01*
X104Y2893D01*
X104Y2893D01*
X105Y2893D01*
X105Y2894D01*
X105Y2894D01*
X105Y2894D01*
X106Y2894D01*
X106Y2895D01*
X106Y2895D01*
X106Y2896D01*
X106Y2896D01*
X106Y2897D01*
X107Y2897D01*
X107Y2897D01*
X107Y2897D01*
X107Y2898D01*
X107Y2898D01*
X107Y2899D01*
X108Y2899D01*
X108Y2900D01*
X108Y2900D01*
X108Y2901D01*
X108Y2901D01*
X108Y2901D01*
X108Y2901D01*
X108Y2902D01*
X109Y2902D01*
X109Y2903D01*
X109Y2903D01*
X109Y2904D01*
X109Y2904D01*
X109Y2905D01*
X110Y2905D01*
X110Y2905D01*
X110Y2905D01*
X110Y2906D01*
X110Y2906D01*
X110Y2907D01*
X111Y2907D01*
X111Y2908D01*
X111Y2908D01*
X111Y2908D01*
X111Y2908D01*
X111Y2909D01*
X112Y2909D01*
X112Y2910D01*
X112Y2910D01*
X112Y2911D01*
X112Y2911D01*
X112Y2911D01*
X112Y2911D01*
X112Y2912D01*
X113Y2912D01*
X113Y2913D01*
X113Y2913D01*
X113Y2913D01*
X108Y2913D01*
G37*
D02*
G36*
X107Y2913D02*
X107Y2912D01*
X107Y2912D01*
X107Y2912D01*
X107Y2912D01*
X107Y2911D01*
X106Y2911D01*
X106Y2910D01*
X106Y2910D01*
X106Y2909D01*
X106Y2909D01*
X106Y2909D01*
X105Y2909D01*
X105Y2908D01*
X105Y2908D01*
X105Y2907D01*
X105Y2907D01*
X105Y2906D01*
X104Y2906D01*
X104Y2905D01*
X104Y2905D01*
X104Y2905D01*
X104Y2905D01*
X104Y2904D01*
X104Y2904D01*
X104Y2903D01*
X103Y2903D01*
X103Y2902D01*
X103Y2902D01*
X103Y2902D01*
X103Y2902D01*
X103Y2901D01*
X102Y2901D01*
X102Y2900D01*
X102Y2900D01*
X102Y2899D01*
X102Y2899D01*
X102Y2899D01*
X101Y2899D01*
X101Y2898D01*
X101Y2898D01*
X101Y2897D01*
X101Y2897D01*
X101Y2897D01*
X100Y2897D01*
X100Y2896D01*
X100Y2896D01*
X100Y2895D01*
X100Y2895D01*
X100Y2894D01*
X100Y2894D01*
X100Y2893D01*
X99Y2893D01*
X99Y2893D01*
X100Y2893D01*
X100Y2893D01*
X100Y2893D01*
X100Y2894D01*
X100Y2894D01*
X100Y2895D01*
X101Y2895D01*
X101Y2896D01*
X101Y2896D01*
X101Y2897D01*
X101Y2897D01*
X101Y2897D01*
X102Y2897D01*
X102Y2898D01*
X102Y2898D01*
X102Y2899D01*
X102Y2899D01*
X102Y2900D01*
X103Y2900D01*
X103Y2901D01*
X103Y2901D01*
X103Y2901D01*
X103Y2901D01*
X103Y2902D01*
X104Y2902D01*
X104Y2903D01*
X104Y2903D01*
X104Y2903D01*
X104Y2903D01*
X104Y2904D01*
X104Y2904D01*
X104Y2905D01*
X105Y2905D01*
X105Y2906D01*
X105Y2906D01*
X105Y2906D01*
X105Y2906D01*
X105Y2907D01*
X106Y2907D01*
X106Y2908D01*
X106Y2908D01*
X106Y2909D01*
X106Y2909D01*
X106Y2909D01*
X107Y2909D01*
X107Y2910D01*
X107Y2910D01*
X107Y2911D01*
X107Y2911D01*
X107Y2912D01*
X108Y2912D01*
X108Y2913D01*
X108Y2913D01*
X108Y2913D01*
X107Y2913D01*
G37*
D02*
G36*
X99Y2893D02*
X99Y2893D01*
X105Y2893D01*
X105Y2893D01*
X99Y2893D01*
G37*
D02*
G36*
X99Y2893D02*
X99Y2893D01*
X105Y2893D01*
X105Y2893D01*
X99Y2893D01*
G37*
D02*
G36*
X99Y2893D02*
X99Y2892D01*
X105Y2892D01*
X105Y2893D01*
X99Y2893D01*
G37*
D02*
G36*
X146Y2913D02*
X146Y2913D01*
X157Y2913D01*
X157Y2909D01*
X158Y2909D01*
X158Y2913D01*
X146Y2913D01*
G37*
D02*
G36*
X146Y2913D02*
X146Y2909D01*
X146Y2909D01*
X146Y2913D01*
X146Y2913D01*
G37*
D02*
G36*
X146Y2909D02*
X146Y2909D01*
X158Y2909D01*
X158Y2909D01*
X146Y2909D01*
G37*
D02*
G36*
X146Y2909D02*
X146Y2909D01*
X158Y2909D01*
X158Y2909D01*
X146Y2909D01*
G37*
D02*
G36*
X146Y2909D02*
X146Y2908D01*
X158Y2908D01*
X158Y2909D01*
X146Y2909D01*
G37*
D02*
G36*
X164Y2913D02*
X164Y2913D01*
X169Y2913D01*
X169Y2912D01*
X168Y2912D01*
X168Y2911D01*
X168Y2911D01*
X168Y2910D01*
X168Y2910D01*
X168Y2909D01*
X168Y2909D01*
X168Y2909D01*
X167Y2909D01*
X167Y2908D01*
X167Y2908D01*
X167Y2907D01*
X167Y2907D01*
X167Y2906D01*
X166Y2906D01*
X166Y2906D01*
X166Y2906D01*
X166Y2905D01*
X166Y2905D01*
X166Y2904D01*
X165Y2904D01*
X165Y2904D01*
X165Y2904D01*
X165Y2903D01*
X165Y2903D01*
X165Y2902D01*
X164Y2902D01*
X164Y2901D01*
X164Y2901D01*
X164Y2901D01*
X164Y2901D01*
X164Y2900D01*
X164Y2900D01*
X164Y2899D01*
X163Y2899D01*
X163Y2898D01*
X163Y2898D01*
X163Y2897D01*
X163Y2897D01*
X163Y2897D01*
X162Y2897D01*
X162Y2896D01*
X162Y2896D01*
X162Y2895D01*
X162Y2895D01*
X162Y2894D01*
X161Y2894D01*
X161Y2893D01*
X161Y2893D01*
X161Y2893D01*
X162Y2893D01*
X162Y2894D01*
X162Y2894D01*
X162Y2894D01*
X162Y2894D01*
X162Y2895D01*
X163Y2895D01*
X163Y2896D01*
X163Y2896D01*
X163Y2897D01*
X163Y2897D01*
X163Y2897D01*
X164Y2897D01*
X164Y2898D01*
X164Y2898D01*
X164Y2899D01*
X164Y2899D01*
X164Y2900D01*
X164Y2900D01*
X164Y2901D01*
X165Y2901D01*
X165Y2901D01*
X165Y2901D01*
X165Y2902D01*
X165Y2902D01*
X165Y2903D01*
X166Y2903D01*
X166Y2904D01*
X166Y2904D01*
X166Y2905D01*
X166Y2905D01*
X166Y2905D01*
X167Y2905D01*
X167Y2906D01*
X167Y2906D01*
X167Y2907D01*
X167Y2907D01*
X167Y2908D01*
X168Y2908D01*
X168Y2908D01*
X168Y2908D01*
X168Y2909D01*
X168Y2909D01*
X168Y2910D01*
X168Y2910D01*
X168Y2911D01*
X169Y2911D01*
X169Y2911D01*
X169Y2911D01*
X169Y2912D01*
X169Y2912D01*
X169Y2913D01*
X170Y2913D01*
X170Y2913D01*
X164Y2913D01*
G37*
D02*
G36*
X164Y2913D02*
X164Y2913D01*
X164Y2913D01*
X164Y2912D01*
X163Y2912D01*
X163Y2911D01*
X163Y2911D01*
X163Y2910D01*
X163Y2910D01*
X163Y2910D01*
X162Y2910D01*
X162Y2909D01*
X162Y2909D01*
X162Y2908D01*
X162Y2908D01*
X162Y2907D01*
X161Y2907D01*
X161Y2907D01*
X161Y2907D01*
X161Y2906D01*
X161Y2906D01*
X161Y2905D01*
X160Y2905D01*
X160Y2904D01*
X160Y2904D01*
X160Y2904D01*
X160Y2904D01*
X160Y2903D01*
X160Y2903D01*
X160Y2902D01*
X159Y2902D01*
X159Y2901D01*
X159Y2901D01*
X159Y2901D01*
X159Y2901D01*
X159Y2900D01*
X158Y2900D01*
X158Y2899D01*
X158Y2899D01*
X158Y2898D01*
X158Y2898D01*
X158Y2897D01*
X157Y2897D01*
X157Y2897D01*
X157Y2897D01*
X157Y2896D01*
X157Y2896D01*
X157Y2895D01*
X156Y2895D01*
X156Y2894D01*
X156Y2894D01*
X156Y2894D01*
X156Y2894D01*
X156Y2893D01*
X156Y2893D01*
X156Y2893D01*
X156Y2893D01*
X156Y2894D01*
X157Y2894D01*
X157Y2895D01*
X157Y2895D01*
X157Y2895D01*
X157Y2895D01*
X157Y2896D01*
X158Y2896D01*
X158Y2897D01*
X158Y2897D01*
X158Y2898D01*
X158Y2898D01*
X158Y2898D01*
X159Y2898D01*
X159Y2899D01*
X159Y2899D01*
X159Y2900D01*
X159Y2900D01*
X159Y2901D01*
X160Y2901D01*
X160Y2901D01*
X160Y2901D01*
X160Y2902D01*
X160Y2902D01*
X160Y2903D01*
X160Y2903D01*
X160Y2904D01*
X161Y2904D01*
X161Y2905D01*
X161Y2905D01*
X161Y2905D01*
X161Y2905D01*
X161Y2906D01*
X162Y2906D01*
X162Y2907D01*
X162Y2907D01*
X162Y2908D01*
X162Y2908D01*
X162Y2908D01*
X163Y2908D01*
X163Y2909D01*
X163Y2909D01*
X163Y2910D01*
X163Y2910D01*
X163Y2911D01*
X164Y2911D01*
X164Y2911D01*
X164Y2911D01*
X164Y2912D01*
X164Y2912D01*
X164Y2913D01*
X164Y2913D01*
G37*
D02*
G36*
X156Y2893D02*
X156Y2893D01*
X161Y2893D01*
X161Y2893D01*
X156Y2893D01*
G37*
D02*
G36*
X156Y2893D02*
X156Y2893D01*
X161Y2893D01*
X161Y2893D01*
X156Y2893D01*
G37*
D02*
G36*
X156Y2893D02*
X156Y2892D01*
X161Y2892D01*
X161Y2893D01*
X156Y2893D01*
G37*
D02*
G36*
X120Y2909D02*
X120Y2909D01*
X137Y2909D01*
X137Y2905D01*
X130Y2905D01*
X130Y2896D01*
X137Y2896D01*
X137Y2893D01*
X138Y2893D01*
X138Y2897D01*
X131Y2897D01*
X131Y2905D01*
X138Y2905D01*
X138Y2909D01*
X120Y2909D01*
G37*
D02*
G36*
X120Y2909D02*
X120Y2905D01*
X127Y2905D01*
X127Y2897D01*
X120Y2897D01*
X120Y2893D01*
X120Y2893D01*
X120Y2896D01*
X127Y2896D01*
X127Y2905D01*
X120Y2905D01*
X120Y2909D01*
X120Y2909D01*
G37*
D02*
G36*
X120Y2893D02*
X120Y2893D01*
X138Y2893D01*
X138Y2893D01*
X120Y2893D01*
G37*
D02*
G36*
X120Y2893D02*
X120Y2893D01*
X138Y2893D01*
X138Y2893D01*
X120Y2893D01*
G37*
D02*
G36*
X120Y2893D02*
X120Y2892D01*
X138Y2892D01*
X138Y2893D01*
X120Y2893D01*
G37*
D02*
G36*
X88Y2906D02*
X88Y2906D01*
X99Y2906D01*
X99Y2901D01*
X100Y2901D01*
X100Y2906D01*
X88Y2906D01*
G37*
D02*
G36*
X88Y2906D02*
X88Y2901D01*
X88Y2901D01*
X88Y2906D01*
X88Y2906D01*
G37*
D02*
G36*
X88Y2901D02*
X88Y2901D01*
X100Y2901D01*
X100Y2901D01*
X88Y2901D01*
G37*
D02*
G36*
X88Y2901D02*
X88Y2901D01*
X100Y2901D01*
X100Y2901D01*
X88Y2901D01*
G37*
D02*
G36*
X88Y2901D02*
X88Y2901D01*
X100Y2901D01*
X100Y2901D01*
X88Y2901D01*
G37*
D02*
G36*
X60Y2905D02*
X60Y2905D01*
X61Y2905D01*
X61Y2904D01*
X66Y2904D01*
X66Y2904D01*
X65Y2904D01*
X65Y2903D01*
X65Y2903D01*
X65Y2903D01*
X66Y2903D01*
X66Y2904D01*
X66Y2904D01*
X66Y2904D01*
X66Y2904D01*
X66Y2905D01*
X67Y2905D01*
X67Y2905D01*
X60Y2905D01*
G37*
D02*
G36*
X61Y2904D02*
X61Y2904D01*
X61Y2904D01*
X61Y2903D01*
X62Y2903D01*
X62Y2903D01*
X62Y2903D01*
X62Y2904D01*
X61Y2904D01*
X61Y2904D01*
X61Y2904D01*
G37*
D02*
G36*
X62Y2903D02*
X62Y2903D01*
X65Y2903D01*
X65Y2903D01*
X62Y2903D01*
G37*
D02*
G36*
X62Y2903D02*
X62Y2903D01*
X65Y2903D01*
X65Y2903D01*
X62Y2903D01*
G37*
D02*
G36*
X62Y2903D02*
X62Y2902D01*
X65Y2902D01*
X65Y2903D01*
X62Y2903D01*
G37*
D02*
G36*
X60Y2897D02*
X60Y2896D01*
X67Y2896D01*
X67Y2897D01*
X60Y2897D01*
G37*
D02*
G36*
X60Y2895D02*
X60Y2894D01*
X67Y2894D01*
X67Y2894D01*
X67Y2894D01*
X67Y2895D01*
X60Y2895D01*
G37*
D02*
G36*
X60Y2894D02*
X60Y2894D01*
X60Y2894D01*
X60Y2894D01*
X60Y2894D01*
G37*
D02*
G36*
X60Y2894D02*
X60Y2894D01*
X67Y2894D01*
X67Y2894D01*
X60Y2894D01*
G37*
D02*
G36*
X60Y2894D02*
X60Y2894D01*
X67Y2894D01*
X67Y2894D01*
X60Y2894D01*
G37*
D02*
G36*
X60Y2894D02*
X60Y2893D01*
X67Y2893D01*
X67Y2894D01*
X60Y2894D01*
G37*
D02*
G54D29*
X365Y1770D02*
X420Y1770D01*
X420Y1715D01*
X365Y1715D01*
X365Y1770D01*
D02*
G36*
X380Y1177D02*
X402Y1177D01*
X402Y1127D01*
X380Y1127D01*
X380Y1177D01*
G37*
D02*
G36*
X411Y1177D02*
X433Y1177D01*
X433Y1127D01*
X411Y1127D01*
X411Y1177D01*
G37*
D02*
G36*
X443Y1177D02*
X465Y1177D01*
X465Y1127D01*
X443Y1127D01*
X443Y1177D01*
G37*
D02*
G36*
X474Y1177D02*
X496Y1177D01*
X496Y1127D01*
X474Y1127D01*
X474Y1177D01*
G37*
D02*
G36*
X506Y1177D02*
X528Y1177D01*
X528Y1127D01*
X506Y1127D01*
X506Y1177D01*
G37*
D02*
G36*
X537Y1177D02*
X559Y1177D01*
X559Y1127D01*
X537Y1127D01*
X537Y1177D01*
G37*
D02*
G36*
X569Y1177D02*
X591Y1177D01*
X591Y1127D01*
X569Y1127D01*
X569Y1177D01*
G37*
D02*
G36*
X600Y1177D02*
X622Y1177D01*
X622Y1127D01*
X600Y1127D01*
X600Y1177D01*
G37*
D02*
G36*
X645Y1222D02*
X695Y1222D01*
X695Y1200D01*
X645Y1200D01*
X645Y1222D01*
G37*
D02*
G36*
X645Y1254D02*
X695Y1254D01*
X695Y1232D01*
X645Y1232D01*
X645Y1254D01*
G37*
D02*
G36*
X645Y1411D02*
X695Y1411D01*
X695Y1389D01*
X645Y1389D01*
X645Y1411D01*
G37*
D02*
G36*
X645Y1442D02*
X695Y1442D01*
X695Y1420D01*
X645Y1420D01*
X645Y1442D01*
G37*
D02*
G36*
X600Y1515D02*
X622Y1515D01*
X622Y1465D01*
X600Y1465D01*
X600Y1515D01*
G37*
D02*
G36*
X569Y1515D02*
X591Y1515D01*
X591Y1465D01*
X569Y1465D01*
X569Y1515D01*
G37*
D02*
G36*
X411Y1515D02*
X433Y1515D01*
X433Y1465D01*
X411Y1465D01*
X411Y1515D01*
G37*
D02*
G36*
X380Y1515D02*
X402Y1515D01*
X402Y1465D01*
X380Y1465D01*
X380Y1515D01*
G37*
D02*
G36*
X307Y1442D02*
X357Y1442D01*
X357Y1420D01*
X307Y1420D01*
X307Y1442D01*
G37*
D02*
G36*
X307Y1411D02*
X357Y1411D01*
X357Y1389D01*
X307Y1389D01*
X307Y1411D01*
G37*
D02*
G36*
X307Y1379D02*
X357Y1379D01*
X357Y1357D01*
X307Y1357D01*
X307Y1379D01*
G37*
D02*
G36*
X307Y1348D02*
X357Y1348D01*
X357Y1326D01*
X307Y1326D01*
X307Y1348D01*
G37*
D02*
G36*
X307Y1317D02*
X357Y1317D01*
X357Y1295D01*
X307Y1295D01*
X307Y1317D01*
G37*
D02*
G36*
X307Y1285D02*
X357Y1285D01*
X357Y1263D01*
X307Y1263D01*
X307Y1285D01*
G37*
D02*
G36*
X307Y1254D02*
X357Y1254D01*
X357Y1232D01*
X307Y1232D01*
X307Y1254D01*
G37*
D02*
G36*
X307Y1222D02*
X357Y1222D01*
X357Y1200D01*
X307Y1200D01*
X307Y1222D01*
G37*
D02*
G04 End of Copper1*
M02*