; NON-PLATED HOLES START AT T1
; THROUGH (PLATED) HOLES START AT T100
M48
INCH
T100C0.015748
T101C0.030000
T102C0.027559
T103C0.035000
T104C0.038000
%
T100
X002478Y028785
X005796Y024909
X003034Y026850
X007285Y023420
X006241Y010820
X004374Y010820
X008867Y022498
X006930Y007309
X005641Y010398
X007285Y022532
X003508Y003376
X003419Y015887
X007508Y012420
X000796Y013065
X004708Y025309
X003330Y025043
X006941Y019415
X004930Y015909
X003941Y019415
X008508Y011798
X001708Y012265
X009108Y011776
X002702Y013054
X008046Y013809
X001241Y013820
X002663Y016398
X005589Y028794
X008041Y013132
X007996Y005948
T101
X005871Y027096
X003613Y010213
X006741Y027072
X002611Y010213
X005871Y028097
X006741Y028074
T102
X004678Y026452
X004678Y027239
T103
X006923Y020427
X006923Y017427
X005923Y020427
X004923Y020427
X005923Y017427
X004923Y017427
X003923Y020427
X003923Y017427
T104
X007532Y001959
X006532Y001959
X005532Y001959
X004532Y001959
X003532Y001959
X002532Y001959
T00
M30
