G04 MADE WITH FRITZING*
G04 WWW.FRITZING.ORG*
G04 DOUBLE SIDED*
G04 HOLES PLATED*
G04 CONTOUR ON CENTER OF CONTOUR VECTOR*
%ASAXBY*%
%FSLAX23Y23*%
%MOIN*%
%OFA0B0*%
%SFA1.0B1.0*%
%ADD10R,0.040236X0.067069*%
%ADD11R,0.040222X0.067069*%
%ADD12R,0.040236X0.067083*%
%ADD13R,0.040222X0.067056*%
%ADD14R,0.050000X0.022000*%
%ADD15R,0.022000X0.050000*%
%ADD16R,0.047244X0.021654*%
%ADD17R,0.013780X0.055118*%
%ADD18R,0.070866X0.074803*%
%ADD19R,0.059055X0.055118*%
%ADD20R,0.055118X0.059055*%
%LNPASTEMASK1*%
G90*
G70*
G54D10*
X447Y863D03*
G54D11*
X577Y863D03*
G54D12*
X447Y670D03*
G54D13*
X577Y670D03*
G54D10*
X449Y2423D03*
G54D11*
X579Y2423D03*
G54D12*
X449Y2230D03*
G54D13*
X579Y2230D03*
G54D14*
X670Y1274D03*
X670Y1306D03*
X670Y1337D03*
X670Y1368D03*
G54D15*
X548Y1490D03*
X517Y1490D03*
X485Y1490D03*
X454Y1490D03*
G54D16*
X351Y2649D03*
X351Y2686D03*
X351Y2723D03*
X249Y2723D03*
X249Y2649D03*
G54D17*
X559Y2961D03*
X456Y2961D03*
X533Y2961D03*
X508Y2961D03*
X482Y2961D03*
G54D18*
X665Y3066D03*
X350Y3066D03*
G54D19*
X718Y2981D03*
X718Y2900D03*
G54D20*
X332Y2583D03*
X251Y2583D03*
G54D19*
X809Y2899D03*
X809Y2980D03*
G36*
X380Y1177D02*
X402Y1177D01*
X402Y1127D01*
X380Y1127D01*
X380Y1177D01*
G37*
D02*
G36*
X411Y1177D02*
X433Y1177D01*
X433Y1127D01*
X411Y1127D01*
X411Y1177D01*
G37*
D02*
G36*
X443Y1177D02*
X465Y1177D01*
X465Y1127D01*
X443Y1127D01*
X443Y1177D01*
G37*
D02*
G36*
X474Y1177D02*
X496Y1177D01*
X496Y1127D01*
X474Y1127D01*
X474Y1177D01*
G37*
D02*
G36*
X506Y1177D02*
X528Y1177D01*
X528Y1127D01*
X506Y1127D01*
X506Y1177D01*
G37*
D02*
G36*
X537Y1177D02*
X559Y1177D01*
X559Y1127D01*
X537Y1127D01*
X537Y1177D01*
G37*
D02*
G36*
X569Y1177D02*
X591Y1177D01*
X591Y1127D01*
X569Y1127D01*
X569Y1177D01*
G37*
D02*
G36*
X600Y1177D02*
X622Y1177D01*
X622Y1127D01*
X600Y1127D01*
X600Y1177D01*
G37*
D02*
G36*
X645Y1222D02*
X695Y1222D01*
X695Y1200D01*
X645Y1200D01*
X645Y1222D01*
G37*
D02*
G36*
X645Y1254D02*
X695Y1254D01*
X695Y1232D01*
X645Y1232D01*
X645Y1254D01*
G37*
D02*
G36*
X645Y1411D02*
X695Y1411D01*
X695Y1389D01*
X645Y1389D01*
X645Y1411D01*
G37*
D02*
G36*
X645Y1442D02*
X695Y1442D01*
X695Y1420D01*
X645Y1420D01*
X645Y1442D01*
G37*
D02*
G36*
X600Y1515D02*
X622Y1515D01*
X622Y1465D01*
X600Y1465D01*
X600Y1515D01*
G37*
D02*
G36*
X569Y1515D02*
X591Y1515D01*
X591Y1465D01*
X569Y1465D01*
X569Y1515D01*
G37*
D02*
G36*
X411Y1515D02*
X433Y1515D01*
X433Y1465D01*
X411Y1465D01*
X411Y1515D01*
G37*
D02*
G36*
X380Y1515D02*
X402Y1515D01*
X402Y1465D01*
X380Y1465D01*
X380Y1515D01*
G37*
D02*
G36*
X307Y1442D02*
X357Y1442D01*
X357Y1420D01*
X307Y1420D01*
X307Y1442D01*
G37*
D02*
G36*
X307Y1411D02*
X357Y1411D01*
X357Y1389D01*
X307Y1389D01*
X307Y1411D01*
G37*
D02*
G36*
X307Y1379D02*
X357Y1379D01*
X357Y1357D01*
X307Y1357D01*
X307Y1379D01*
G37*
D02*
G36*
X307Y1348D02*
X357Y1348D01*
X357Y1326D01*
X307Y1326D01*
X307Y1348D01*
G37*
D02*
G36*
X307Y1317D02*
X357Y1317D01*
X357Y1295D01*
X307Y1295D01*
X307Y1317D01*
G37*
D02*
G36*
X307Y1285D02*
X357Y1285D01*
X357Y1263D01*
X307Y1263D01*
X307Y1285D01*
G37*
D02*
G36*
X307Y1254D02*
X357Y1254D01*
X357Y1232D01*
X307Y1232D01*
X307Y1254D01*
G37*
D02*
G36*
X307Y1222D02*
X357Y1222D01*
X357Y1200D01*
X307Y1200D01*
X307Y1222D01*
G37*
D02*
G04 End of PasteMask1*
M02*