G04 MADE WITH FRITZING*
G04 WWW.FRITZING.ORG*
G04 DOUBLE SIDED*
G04 HOLES PLATED*
G04 CONTOUR ON CENTER OF CONTOUR VECTOR*
%ASAXBY*%
%FSLAX23Y23*%
%MOIN*%
%OFA0B0*%
%SFA1.0B1.0*%
%ADD10C,0.049370*%
%ADD11C,0.085000*%
%ADD12C,0.080000*%
%ADD13C,0.067000*%
%ADD14C,0.088000*%
%ADD15R,0.050236X0.077069*%
%ADD16R,0.050222X0.077069*%
%ADD17R,0.050236X0.077083*%
%ADD18R,0.050222X0.077056*%
%ADD19R,0.060000X0.032000*%
%ADD20R,0.032000X0.060000*%
%ADD21R,0.057244X0.031654*%
%ADD22R,0.023779X0.065118*%
%ADD23R,0.080866X0.084803*%
%ADD24R,0.069055X0.065118*%
%ADD25R,0.065118X0.069055*%
%ADD26C,0.030000*%
%ADD27C,0.010000*%
%LNMASK1*%
G90*
G70*
G54D10*
X694Y1942D03*
X394Y1942D03*
X580Y2491D03*
X887Y2250D03*
X729Y2253D03*
X564Y1040D03*
X751Y1242D03*
X693Y731D03*
X171Y1227D03*
X729Y2342D03*
X333Y2504D03*
X559Y2879D03*
X248Y2879D03*
X303Y2685D03*
X270Y1305D03*
X911Y1178D03*
X851Y1180D03*
X805Y1381D03*
X351Y338D03*
X124Y1382D03*
X80Y1307D03*
X471Y2531D03*
X266Y1640D03*
X493Y1591D03*
X342Y1589D03*
X804Y1313D03*
X800Y595D03*
X437Y1082D03*
X624Y1082D03*
G54D11*
X392Y1743D03*
X392Y2043D03*
X492Y1743D03*
X492Y2043D03*
X592Y1743D03*
X592Y2043D03*
X692Y1743D03*
X692Y2043D03*
G54D12*
X587Y2710D03*
X587Y2810D03*
X674Y2707D03*
X674Y2807D03*
G54D13*
X468Y2724D03*
X468Y2645D03*
X468Y2724D03*
X468Y2645D03*
X468Y2724D03*
X468Y2645D03*
G54D12*
X261Y1021D03*
X361Y1021D03*
G54D14*
X753Y196D03*
X653Y196D03*
X553Y196D03*
X453Y196D03*
X353Y196D03*
X253Y196D03*
G54D15*
X447Y863D03*
G54D16*
X577Y863D03*
G54D17*
X447Y670D03*
G54D18*
X577Y670D03*
G54D15*
X449Y2423D03*
G54D16*
X579Y2423D03*
G54D17*
X449Y2230D03*
G54D18*
X579Y2230D03*
G54D19*
X670Y1274D03*
X670Y1306D03*
X670Y1337D03*
X670Y1368D03*
G54D20*
X548Y1490D03*
X517Y1490D03*
X485Y1490D03*
X454Y1490D03*
G54D21*
X351Y2649D03*
X351Y2686D03*
X351Y2723D03*
X249Y2723D03*
X249Y2649D03*
G54D22*
X559Y2961D03*
X456Y2961D03*
X533Y2961D03*
X508Y2961D03*
X482Y2961D03*
G54D23*
X665Y3066D03*
X350Y3066D03*
G54D24*
X718Y2981D03*
X718Y2900D03*
G54D25*
X332Y2583D03*
X251Y2583D03*
G54D24*
X809Y2899D03*
X809Y2980D03*
G54D26*
G36*
X365Y1770D02*
X420Y1770D01*
X420Y1715D01*
X365Y1715D01*
X365Y1770D01*
G37*
D02*
G54D27*
G36*
X380Y1177D02*
X402Y1177D01*
X402Y1127D01*
X380Y1127D01*
X380Y1177D01*
G37*
D02*
G36*
X411Y1177D02*
X433Y1177D01*
X433Y1127D01*
X411Y1127D01*
X411Y1177D01*
G37*
D02*
G36*
X443Y1177D02*
X465Y1177D01*
X465Y1127D01*
X443Y1127D01*
X443Y1177D01*
G37*
D02*
G36*
X474Y1177D02*
X496Y1177D01*
X496Y1127D01*
X474Y1127D01*
X474Y1177D01*
G37*
D02*
G36*
X506Y1177D02*
X528Y1177D01*
X528Y1127D01*
X506Y1127D01*
X506Y1177D01*
G37*
D02*
G36*
X537Y1177D02*
X559Y1177D01*
X559Y1127D01*
X537Y1127D01*
X537Y1177D01*
G37*
D02*
G36*
X569Y1177D02*
X591Y1177D01*
X591Y1127D01*
X569Y1127D01*
X569Y1177D01*
G37*
D02*
G36*
X600Y1177D02*
X622Y1177D01*
X622Y1127D01*
X600Y1127D01*
X600Y1177D01*
G37*
D02*
G36*
X645Y1222D02*
X695Y1222D01*
X695Y1200D01*
X645Y1200D01*
X645Y1222D01*
G37*
D02*
G36*
X645Y1254D02*
X695Y1254D01*
X695Y1232D01*
X645Y1232D01*
X645Y1254D01*
G37*
D02*
G36*
X645Y1411D02*
X695Y1411D01*
X695Y1389D01*
X645Y1389D01*
X645Y1411D01*
G37*
D02*
G36*
X645Y1442D02*
X695Y1442D01*
X695Y1420D01*
X645Y1420D01*
X645Y1442D01*
G37*
D02*
G36*
X600Y1515D02*
X622Y1515D01*
X622Y1465D01*
X600Y1465D01*
X600Y1515D01*
G37*
D02*
G36*
X569Y1515D02*
X591Y1515D01*
X591Y1465D01*
X569Y1465D01*
X569Y1515D01*
G37*
D02*
G36*
X411Y1515D02*
X433Y1515D01*
X433Y1465D01*
X411Y1465D01*
X411Y1515D01*
G37*
D02*
G36*
X380Y1515D02*
X402Y1515D01*
X402Y1465D01*
X380Y1465D01*
X380Y1515D01*
G37*
D02*
G36*
X307Y1442D02*
X357Y1442D01*
X357Y1420D01*
X307Y1420D01*
X307Y1442D01*
G37*
D02*
G36*
X307Y1411D02*
X357Y1411D01*
X357Y1389D01*
X307Y1389D01*
X307Y1411D01*
G37*
D02*
G36*
X307Y1379D02*
X357Y1379D01*
X357Y1357D01*
X307Y1357D01*
X307Y1379D01*
G37*
D02*
G36*
X307Y1348D02*
X357Y1348D01*
X357Y1326D01*
X307Y1326D01*
X307Y1348D01*
G37*
D02*
G36*
X307Y1317D02*
X357Y1317D01*
X357Y1295D01*
X307Y1295D01*
X307Y1317D01*
G37*
D02*
G36*
X307Y1285D02*
X357Y1285D01*
X357Y1263D01*
X307Y1263D01*
X307Y1285D01*
G37*
D02*
G36*
X307Y1254D02*
X357Y1254D01*
X357Y1232D01*
X307Y1232D01*
X307Y1254D01*
G37*
D02*
G36*
X307Y1222D02*
X357Y1222D01*
X357Y1200D01*
X307Y1200D01*
X307Y1222D01*
G37*
D02*
G04 End of Mask1*
M02*